<?xml version="1.0" encoding="UTF-8" standalone="no"?>
<svg xmlns="http://www.w3.org/2000/svg"
     xmlns:xlink="http://www.w3.org/1999/xlink"
     width="576pt" height="432pt" viewBox="0 0 576 432">
<title>gl2ps_renderer figure</title>
<desc>
Creator: GL2PS 1.4.0, (C) 1999-2017 C. Geuzaine
For: Octave
CreationDate: Sun May 29 01:26:06 2022
</desc>
<defs>
</defs>
<polygon fill="#ffffff" points="0,0 576,0 576,432 0,432"/>
<g>
<polygon fill="#ffffff" points="0,432 576,432 576,0 0,0" shape-rendering="crispEdges"/>
<clipPath id="cp00576432">
  <polygon points="0,432 576,432 576,0 0,0"/>
</clipPath>
<g clip-path="url(#cp00576432)">
<polygon fill="#ffffff" shape-rendering="crispEdges" points="74.8799,384.48 521.28,384.48 521.28,32.3999"/>
<polygon fill="#ffffff" shape-rendering="crispEdges" points="74.8799,384.48 521.28,32.3999 74.8799,32.3999"/>
<polyline fill="none" stroke="#262626" stroke-width="0.5" stroke-linecap="butt" stroke-linejoin="miter" points="74.8799,384.48 74.8799,380.015"/>
<polyline fill="none" stroke="#262626" stroke-width="0.5" stroke-linecap="butt" stroke-linejoin="miter" points="74.8799,32.3999 74.8799,36.8652"/>
<polyline fill="none" stroke="#262626" stroke-width="0.5" stroke-linecap="butt" stroke-linejoin="miter" points="186.48,384.48 186.48,380.015"/>
<polyline fill="none" stroke="#262626" stroke-width="0.5" stroke-linecap="butt" stroke-linejoin="miter" points="186.48,32.3999 186.48,36.8652"/>
<polyline fill="none" stroke="#262626" stroke-width="0.5" stroke-linecap="butt" stroke-linejoin="miter" points="298.08,384.48 298.08,380.015"/>
<polyline fill="none" stroke="#262626" stroke-width="0.5" stroke-linecap="butt" stroke-linejoin="miter" points="298.08,32.3999 298.08,36.8652"/>
<polyline fill="none" stroke="#262626" stroke-width="0.5" stroke-linecap="butt" stroke-linejoin="miter" points="409.68,384.48 409.68,380.015"/>
<polyline fill="none" stroke="#262626" stroke-width="0.5" stroke-linecap="butt" stroke-linejoin="miter" points="409.68,32.3999 409.68,36.8652"/>
<polyline fill="none" stroke="#262626" stroke-width="0.5" stroke-linecap="butt" stroke-linejoin="miter" points="521.28,384.48 521.28,380.015"/>
<polyline fill="none" stroke="#262626" stroke-width="0.5" stroke-linecap="butt" stroke-linejoin="miter" points="521.28,32.3999 521.28,36.8652"/>
<text xml:space="preserve" transform="translate(71.88,400.481) rotate(-0,3,-11)" font-family="FreeSans" font-weight="normal" font-style="normal" font-size="10"><tspan y="-1" fill="rgb(38,38,38)" x="0 ">0</tspan></text>
<text xml:space="preserve" transform="translate(177.48,400.481) rotate(-0,9,-11)" font-family="FreeSans" font-weight="normal" font-style="normal" font-size="10"><tspan y="-1" fill="rgb(38,38,38)" x="0 6 12 ">500</tspan></text>
<text xml:space="preserve" transform="translate(286.08,400.481) rotate(-0,12,-11)" font-family="FreeSans" font-weight="normal" font-style="normal" font-size="10"><tspan y="-1" fill="rgb(38,38,38)" x="0 6 12 18 ">1000</tspan></text>
<text xml:space="preserve" transform="translate(397.68,400.481) rotate(-0,12,-11)" font-family="FreeSans" font-weight="normal" font-style="normal" font-size="10"><tspan y="-1" fill="rgb(38,38,38)" x="0 6 12 18 ">1500</tspan></text>
<text xml:space="preserve" transform="translate(509.28,400.481) rotate(-0,12,-11)" font-family="FreeSans" font-weight="normal" font-style="normal" font-size="10"><tspan y="-1" fill="rgb(38,38,38)" x="0 6 12 18 ">2000</tspan></text>
<polyline fill="none" stroke="#262626" stroke-width="0.5" stroke-linecap="butt" stroke-linejoin="miter" points="74.8799,384.48 79.3481,384.48"/>
<polyline fill="none" stroke="#262626" stroke-width="0.5" stroke-linecap="butt" stroke-linejoin="miter" points="521.28,384.48 516.812,384.48"/>
<polyline fill="none" stroke="#262626" stroke-width="0.5" stroke-linecap="butt" stroke-linejoin="miter" points="74.8799,325.8 79.3481,325.8"/>
<polyline fill="none" stroke="#262626" stroke-width="0.5" stroke-linecap="butt" stroke-linejoin="miter" points="521.28,325.8 516.812,325.8"/>
<polyline fill="none" stroke="#262626" stroke-width="0.5" stroke-linecap="butt" stroke-linejoin="miter" points="74.8799,267.12 79.3481,267.12"/>
<polyline fill="none" stroke="#262626" stroke-width="0.5" stroke-linecap="butt" stroke-linejoin="miter" points="521.28,267.12 516.812,267.12"/>
<polyline fill="none" stroke="#262626" stroke-width="0.5" stroke-linecap="butt" stroke-linejoin="miter" points="74.8799,208.44 79.3481,208.44"/>
<polyline fill="none" stroke="#262626" stroke-width="0.5" stroke-linecap="butt" stroke-linejoin="miter" points="521.28,208.44 516.812,208.44"/>
<polyline fill="none" stroke="#262626" stroke-width="0.5" stroke-linecap="butt" stroke-linejoin="miter" points="74.8799,149.76 79.3481,149.76"/>
<polyline fill="none" stroke="#262626" stroke-width="0.5" stroke-linecap="butt" stroke-linejoin="miter" points="521.28,149.76 516.812,149.76"/>
<polyline fill="none" stroke="#262626" stroke-width="0.5" stroke-linecap="butt" stroke-linejoin="miter" points="74.8799,91.0801 79.3481,91.0801"/>
<polyline fill="none" stroke="#262626" stroke-width="0.5" stroke-linecap="butt" stroke-linejoin="miter" points="521.28,91.0801 516.812,91.0801"/>
<polyline fill="none" stroke="#262626" stroke-width="0.5" stroke-linecap="butt" stroke-linejoin="miter" points="74.8799,32.3999 79.3481,32.3999"/>
<polyline fill="none" stroke="#262626" stroke-width="0.5" stroke-linecap="butt" stroke-linejoin="miter" points="521.28,32.3999 516.812,32.3999"/>
<text xml:space="preserve" transform="translate(54.8755,389.98) rotate(-0,15,-5.5)" font-family="FreeSans" font-weight="normal" font-style="normal" font-size="10"><tspan y="-1" fill="rgb(38,38,38)" x="0 3 9 ">-25</tspan></text>
<text xml:space="preserve" transform="translate(54.8755,331.3) rotate(-0,15,-5.5)" font-family="FreeSans" font-weight="normal" font-style="normal" font-size="10"><tspan y="-1" fill="rgb(38,38,38)" x="0 3 9 ">-20</tspan></text>
<text xml:space="preserve" transform="translate(54.8755,272.62) rotate(-0,15,-5.5)" font-family="FreeSans" font-weight="normal" font-style="normal" font-size="10"><tspan y="-1" fill="rgb(38,38,38)" x="0 3 9 ">-15</tspan></text>
<text xml:space="preserve" transform="translate(54.8755,213.94) rotate(-0,15,-5.5)" font-family="FreeSans" font-weight="normal" font-style="normal" font-size="10"><tspan y="-1" fill="rgb(38,38,38)" x="0 3 9 ">-10</tspan></text>
<text xml:space="preserve" transform="translate(60.8755,155.26) rotate(-0,9,-5.5)" font-family="FreeSans" font-weight="normal" font-style="normal" font-size="10"><tspan y="-1" fill="rgb(38,38,38)" x="0 3 ">-5</tspan></text>
<text xml:space="preserve" transform="translate(63.8755,96.58) rotate(-0,6,-5.5)" font-family="FreeSans" font-weight="normal" font-style="normal" font-size="10"><tspan y="-1" fill="rgb(38,38,38)" x="0 ">0</tspan></text>
<text xml:space="preserve" transform="translate(63.8755,37.9) rotate(-0,6,-5.5)" font-family="FreeSans" font-weight="normal" font-style="normal" font-size="10"><tspan y="-1" fill="rgb(38,38,38)" x="0 ">5</tspan></text>
<polyline fill="none" stroke="#262626" stroke-width="0.5" stroke-linecap="square" stroke-linejoin="miter" stroke-dasharray="16,0" points="74.8799,384.48 521.28,384.48"/>
<polyline fill="none" stroke="#262626" stroke-width="0.5" stroke-linecap="square" stroke-linejoin="miter" stroke-dasharray="16,0" points="74.8799,32.3999 521.28,32.3999"/>
<polyline fill="none" stroke="#262626" stroke-width="0.5" stroke-linecap="square" stroke-linejoin="miter" stroke-dasharray="16,0" points="74.8799,384.48 74.8799,32.3999"/>
<polyline fill="none" stroke="#262626" stroke-width="0.5" stroke-linecap="square" stroke-linejoin="miter" stroke-dasharray="16,0" points="521.28,384.48 521.28,32.3999"/>
<text xml:space="preserve" transform="translate(247.58,413.481) rotate(-0,50.5,-13)" font-family="FreeSans" font-weight="normal" font-style="normal" font-size="11"><tspan y="-2" fill="rgb(38,38,38)" x="0 8 14 23 29 33 39 42 48 54 57 59 62 68 72 78 84 90 96 ">Número de iterações</tspan></text>
<text xml:space="preserve" transform="translate(-0.124484,208.44) rotate(-90,51,0)" font-family="FreeSans" font-weight="normal" font-style="normal" font-size="11"><tspan y="-2" fill="rgb(38,38,38)" x="0 2 8 14 18 26 32 37 39 45 51 57 60 68 74 76 82 85 87 92 98 ">log(Resíduo Relativo)</tspan></text>
<text xml:space="preserve" transform="translate(276.58,22.4) rotate(-0,21.5,0)" font-family="FreeSans" font-weight="bold" font-style="normal" font-size="11"><tspan y="-2" fill="rgb(0,0,0)" x="0 6 12 18 21 25 31 37 ">cavity05</tspan></text>
<polyline fill="none" stroke="#0071bc" stroke-width="0.5" stroke-linecap="butt" stroke-linejoin="round" points="75.103,49.564 75.3262,49.6992 75.5498,50.2944 75.7729,51.6836 75.9961,52.52 76.2192,53.1489 76.4424,53.5498 76.6655,54.1431 76.8887,54.7515 77.1118,55.3481 77.335,56.0059 77.5586,56.3906 77.7817,56.793 78.0049,56.9844 78.228,57.1772 78.4512,57.3403 78.6743,57.4155 78.8975,57.4756 79.1206,57.5181 79.3438,57.5649 79.5674,57.5923 79.7905,57.6104 80.0137,57.624 80.2368,57.6406 80.46,57.6602 80.6831,57.6914 80.9062,57.7236 81.1294,57.7705 81.353,57.8159 81.5762,57.9868 81.7993,58.4707 82.0225,58.9624 82.2456,59.4712 82.4688,60.0859 82.6919,60.9497 82.915,61.6069 83.1382,62.0884 83.3618,62.3965 83.585,62.5942 83.8081,62.7397 84.0312,62.8589 84.2544,62.9419 84.4775,62.9907 84.7007,63.02 84.9238,63.0361 85.147,63.0479 85.3706,63.0566 85.5938,63.0669 85.8169,63.0762 86.04,63.0869 86.2632,63.103 86.4863,63.1235 86.7095,63.1846 86.9326,63.3506 87.1562,63.564 87.3794,63.8149 87.6025,64.02 87.8257,64.1777 88.0488,64.2461 88.272,64.2754 88.4951,64.2866 88.7183,64.292 88.9414,64.2944 89.165,64.2959 89.3882,64.2974 89.6113,64.2998 89.8345,64.3018 90.0576,64.3042 90.2808,64.3066 90.5039,64.3081 90.7271,64.3096 90.9502,64.3105 91.1738,64.3115 91.397,64.3125 91.6201,64.3135 91.8433,64.3169 92.0664,64.3257 92.2896,64.3491 92.5127,64.3882 92.7358,64.4238 92.959,64.4712 93.1826,64.4912 93.4058,64.4995 93.6289,64.5024 93.8521,64.5044 94.0752,64.5063 94.2983,64.5083 94.5215,64.5103 94.7446,64.5137 94.9678,64.5166 95.1914,64.5186 95.4146,64.5205 95.6377,64.522 95.8608,64.5229 96.084,64.5249 96.3071,64.5293 96.5303,64.5454 96.7534,64.5786 96.9766,64.6406 97.2002,64.6934 97.4233,64.7744 97.6465,64.8765 97.8696,64.9824 98.0928,65.1294 98.3159,65.2046 98.5391,65.2593 98.7622,65.2783 98.9854,65.2847 99.209,65.2871 99.4321,65.2886 99.6553,65.2905 99.8784,65.2954 100.102,65.3032 100.325,65.3174 100.548,65.3403 100.771,65.373 100.995,65.4785 101.218,65.7266 101.441,66.3403 101.664,66.7539 101.887,67.1025 102.11,67.4468 102.333,67.6558 102.557,67.8804 102.78,67.9946 103.003,68.0386 103.227,68.0566 103.45,68.0713 103.673,68.084 103.896,68.1001 104.119,68.1152 104.342,68.1353 104.565,68.1621 104.789,68.2051 105.012,68.3623 105.235,68.7671 105.458,70.1802 105.682,72.272 105.905,73.3789 106.128,73.7275 106.351,73.8071 106.574,73.8608 106.797,73.9048 107.021,73.9272 107.244,73.9404 107.467,73.9648 107.69,74.0186 107.914,74.1445 108.137,74.4536 108.36,75.3145 108.583,76.6162 108.807,78.4629 109.03,81.3457 109.253,83.3926 109.476,84.6255 109.699,84.9067 109.922,84.9648 110.146,84.9814 110.369,84.9941 110.592,85.0161 110.815,85.0454 111.039,85.1279 111.262,85.3247 111.485,85.7485 111.708,86.8706 111.931,88.8721 112.154,93.0776 112.377,94.8013 112.601,95.4214 112.824,95.7178 113.047,95.9609 113.271,96.0933 113.494,96.1538 113.717,96.1997 113.94,96.3037 114.163,96.5615 114.386,96.7793 114.609,96.9336 114.833,97.021 115.056,97.0537 115.279,97.0713 115.502,97.0825 115.726,97.1182 115.949,97.2163 116.172,97.4722 116.395,97.999 116.618,98.9556 116.842,101.203 117.065,102.56 117.288,103.917 117.511,105.038 117.734,105.622 117.958,105.883 118.181,105.964 118.404,106.127 118.627,106.486 118.851,106.836 119.074,107.01 119.297,107.094 119.52,107.135 119.743,107.149 119.966,107.152 120.189,107.156 120.413,107.164 120.636,107.184 120.859,107.231 121.083,107.274 121.306,107.318 121.529,107.355 121.752,107.412 121.975,107.51 122.198,107.646 122.421,107.845 122.645,108.04 122.868,108.274 123.091,108.615 123.314,109.039 123.538,109.736 123.761,110.402 123.984,111.164 124.207,111.949 124.43,112.755 124.654,113.267 124.877,113.601 125.1,113.979 125.323,114.28 125.546,114.589 125.77,114.785 125.993,114.944 126.216,115.131 126.439,115.288 126.663,115.423 126.886,115.517 127.109,115.589 127.332,115.647 127.555,115.721 127.778,115.834 128.001,115.924 128.225,115.979 128.448,116.039 128.671,116.088 128.895,116.125 129.118,116.154 129.341,116.197 129.564,116.271 129.787,116.37 130.01,116.477 130.233,116.59 130.457,116.707 130.68,116.858 130.903,117.011 131.126,117.203 131.35,117.537 131.573,117.916 131.796,118.258 132.019,118.565 132.242,119.089 132.466,119.673 132.689,120.478 132.912,121.523 133.135,122.395 133.358,123.167 133.582,123.776 133.805,124.478 134.028,124.995 134.251,125.251 134.475,125.356 134.698,125.423 134.921,125.473 135.144,125.52 135.367,125.57 135.59,125.608 135.813,125.643 136.037,125.671 136.26,125.723 136.483,125.795 136.707,125.896 136.93,126.02 137.153,126.177 137.376,126.433 137.599,126.807 137.822,127.582 138.045,128.271 138.269,129.052 138.492,130.11 138.715,131.021 138.938,132.167 139.162,133.398 139.385,134.366 139.608,135.121 139.831,135.664 140.054,136.047 140.277,136.235 140.501,136.355 140.724,136.449 140.947,136.525 141.17,136.581 141.394,136.631 141.617,136.662 141.84,136.685 142.063,136.71 142.287,136.755 142.51,136.831 142.733,136.913 142.956,137.065 143.179,137.215 143.402,137.403 143.625,137.648 143.849,138.008 144.072,138.59 144.295,139.404 144.519,140.598 144.742,141.734 144.965,142.692 145.188,143.778 145.411,144.561 145.634,144.954 145.857,145.157 146.081,145.261 146.304,145.326 146.527,145.352 146.75,145.366 146.974,145.378 147.197,145.388 147.42,145.406 147.643,145.43 147.866,145.477 148.09,145.55 148.313,145.647 148.536,145.781 148.759,145.961 148.982,146.141 149.206,146.283 149.429,146.394 149.652,146.459 149.875,146.524 150.099,146.606 150.322,146.811 150.545,147.17 150.768,147.676 150.991,148.117 151.214,148.348 151.438,148.544 151.661,148.626 151.884,148.672 152.107,148.694 152.331,148.709 152.554,148.723 152.777,148.731 153,148.736 153.223,148.739 153.446,148.741 153.669,148.744 153.893,148.749 154.116,148.757 154.339,148.778 154.562,148.849 154.786,148.987 155.009,149.142 155.232,149.261 155.455,149.345 155.678,149.4 155.901,149.445 156.125,149.465 156.348,149.48 156.571,149.493 156.794,149.498 157.018,149.501 157.241,149.502 157.464,149.503 157.687,149.504 157.91,149.505 158.134,149.506 158.357,149.507 158.58,149.508 158.803,149.51 159.026,149.515 159.25,149.523 159.473,149.539 159.696,149.569 159.919,149.625 160.143,149.671 160.366,149.705 160.589,149.716 160.812,149.72 161.035,149.722 161.258,149.722 161.481,149.723 161.705,149.723 161.928,149.723 162.151,149.725 162.375,149.728 162.598,149.734 162.821,149.751 163.044,149.785 163.267,149.88 163.49,149.963 163.713,150.074 163.937,150.125 164.16,150.147 164.383,150.164 164.606,150.169 164.83,150.173 165.053,150.176 165.276,150.177 165.499,150.181 165.722,150.185 165.946,150.188 166.169,150.191 166.392,150.194 166.615,150.197 166.838,150.198 167.062,150.202 167.285,150.207 167.508,150.211 167.731,150.216 167.955,150.219 168.178,150.221 168.401,150.223 168.624,150.225 168.847,150.229 169.07,150.234 169.293,150.244 169.517,150.253 169.74,150.271 169.963,150.308 170.187,150.358 170.41,150.434 170.633,150.485 170.856,150.525 171.079,150.554 171.302,150.57 171.525,150.576 171.749,150.579 171.972,150.582 172.195,150.583 172.418,150.584 172.642,150.586 172.865,150.587 173.088,150.588 173.311,150.589 173.534,150.59 173.758,150.592 173.981,150.592 174.204,150.594 174.427,150.596 174.65,150.598 174.874,150.602 175.097,150.608 175.32,150.616 175.543,150.623 175.767,150.634 175.99,150.654 176.213,150.676 176.436,150.704 176.659,150.729 176.882,150.749 177.105,150.771 177.329,150.791 177.552,150.808 177.775,150.822 177.999,150.832 178.222,150.837 178.445,150.84 178.668,150.844 178.891,150.846 179.114,150.847 179.337,150.848 179.561,150.85 179.784,150.852 180.007,150.854 180.23,150.856 180.454,150.859 180.677,150.864 180.9,150.871 181.123,150.883 181.346,150.903 181.57,150.939 181.793,150.986 182.016,151.049 182.239,151.127 182.462,151.224 182.686,151.299 182.909,151.348 183.132,151.378 183.355,151.399 183.579,151.414 183.802,151.429 184.025,151.439 184.248,151.447 184.471,151.453 184.694,151.459 184.917,151.468 185.141,151.476 185.364,151.483 185.587,151.489 185.811,151.493 186.034,151.496 186.257,151.501 186.48,151.509 186.703,151.521 186.926,151.543 187.149,151.578 187.373,151.63 187.596,151.708 187.819,151.87 188.042,152.229 188.266,152.789 188.489,153.172 188.712,153.519 188.935,153.812 189.158,153.968 189.382,154.08 189.605,154.136 189.828,154.177 190.051,154.199 190.274,154.212 190.498,154.224 190.721,154.235 190.944,154.256 191.167,154.29 191.391,154.366 191.614,154.512 191.837,154.774 192.06,155.322 192.283,155.966 192.506,156.559 192.729,157.191 192.953,157.912 193.176,158.515 193.399,158.961 193.623,159.457 193.846,159.849 194.069,160.104 194.292,160.373 194.515,160.659 194.738,161.018 194.961,161.623 195.185,162.11 195.408,162.495 195.631,162.839 195.854,163.065 196.078,163.231 196.301,163.303 196.524,163.361 196.747,163.428 196.97,163.522 197.193,163.597 197.417,163.635 197.64,163.676 197.863,163.709 198.086,163.746 198.31,163.78 198.533,163.824 198.756,163.898 198.979,164.061 199.203,164.314 199.426,164.916 199.649,165.843 199.872,166.996 200.095,168.49 200.318,169.508 200.542,170.455 200.765,171.224 200.988,172.041 201.211,172.503 201.435,172.839 201.658,173.14 201.881,173.266 202.104,173.327 202.327,173.346 202.55,173.361 202.773,173.383 202.997,173.416 203.22,173.488 203.443,173.604 203.667,173.883 203.89,174.266 204.113,174.717 204.336,175.357 204.559,175.997 204.782,176.839 205.005,178.103 205.229,179.752 205.452,180.906 205.675,181.719 205.898,182.164 206.122,182.357 206.345,182.483 206.568,182.652 206.791,182.767 207.015,182.815 207.238,182.847 207.461,182.866 207.684,182.888 207.907,182.917 208.13,182.979 208.354,183.136 208.577,183.412 208.8,184.325 209.023,185.428 209.247,186.045 209.47,186.583 209.693,186.951 209.916,187.235 210.139,187.379 210.362,187.443 210.585,187.49 210.809,187.531 211.032,187.573 211.255,187.616 211.479,187.648 211.702,187.668 211.925,187.678 212.148,187.696 212.371,187.717 212.594,187.747 212.817,187.805 213.041,187.908 213.264,188.021 213.487,188.314 213.71,188.7 213.934,189.208 214.157,189.553 214.38,190.007 214.603,190.656 214.826,191.171 215.05,191.897 215.273,192.428 215.496,192.816 215.719,193.168 215.942,193.471 216.166,193.877 216.389,194.3 216.612,194.595 216.835,194.731 217.059,194.832 217.282,194.93 217.505,195.007 217.728,195.106 217.951,195.223 218.174,195.33 218.397,195.42 218.621,195.492 218.844,195.559 219.067,195.639 219.291,195.702 219.514,195.76 219.737,195.804 219.96,195.843 220.183,195.883 220.406,195.927 220.629,196.027 220.853,196.158 221.076,196.367 221.299,196.699 221.522,197.167 221.746,197.889 221.969,198.744 222.192,199.955 222.415,201.137 222.638,202.02 222.862,202.76 223.085,203.218 223.308,203.557 223.531,203.865 223.754,204.278 223.978,204.652 224.201,204.856 224.424,204.971 224.647,205.037 224.871,205.08 225.094,205.117 225.317,205.149 225.54,205.181 225.763,205.213 225.986,205.251 226.209,205.294 226.433,205.346 226.656,205.426 226.879,205.538 227.103,205.708 227.326,205.943 227.549,206.223 227.772,206.574 227.995,207.134 228.218,207.805 228.441,208.513 228.665,209.322 228.888,210.042 229.111,210.726 229.334,211.271 229.558,211.994 229.781,212.718 230.004,213.411 230.227,214.022 230.45,214.462 230.674,214.918 230.897,215.321 231.12,215.608 231.343,215.749 231.566,215.806 231.79,215.847 232.013,215.869 232.236,215.884 232.459,215.898 232.683,215.907 232.906,215.919 233.129,215.932 233.352,215.965 233.575,216.033 233.798,216.152 234.021,216.36 234.245,216.604 234.468,216.886 234.691,217.201 234.915,217.518 235.138,217.837 235.361,218.046 235.584,218.334 235.807,218.6 236.03,218.761 236.253,218.896 236.477,218.95 236.7,218.98 236.923,218.998 237.146,219.012 237.37,219.02 237.593,219.024 237.816,219.028 238.039,219.034 238.262,219.04 238.485,219.047 238.709,219.053 238.932,219.062 239.155,219.075 239.378,219.089 239.602,219.105 239.825,219.115 240.048,219.128 240.271,219.14 240.495,219.152 240.718,219.167 240.941,219.18 241.164,219.201 241.387,219.244 241.61,219.336 241.833,219.451 242.057,219.57 242.28,219.66 242.503,219.712 242.727,219.75 242.95,219.779 243.173,219.797 243.396,219.808 243.619,219.813 243.842,219.815 244.065,219.816 244.289,219.817 244.512,219.818 244.735,219.82 244.958,219.822 245.182,219.826 245.405,219.83 245.628,219.842 245.851,219.867 246.074,219.901 246.297,219.946 246.521,219.988 246.744,220.029 246.967,220.054 247.19,220.065 247.414,220.07 247.637,220.073 247.86,220.074 248.083,220.075 248.307,220.076 248.53,220.077 248.753,220.078 248.976,220.078 249.199,220.079 249.422,220.08 249.646,220.081 249.869,220.083 250.092,220.09 250.315,220.106 250.539,220.148 250.762,220.206 250.985,220.262 251.208,220.313 251.431,220.346 251.654,220.36 251.877,220.37 252.101,220.375 252.324,220.377 252.547,220.378 252.771,220.379 252.994,220.38 253.217,220.381 253.44,220.383 253.663,220.388 253.886,220.391 254.109,220.392 254.333,220.393 254.556,220.393 254.779,220.393 255.002,220.394 255.226,220.395 255.449,220.396 255.672,220.398 255.895,220.399 256.118,220.401 256.342,220.403 256.565,220.406 256.788,220.408 257.011,220.409 257.234,220.411 257.458,220.412 257.681,220.413 257.904,220.417 258.127,220.424 258.351,220.438 258.574,220.463 258.797,220.497 259.02,220.541 259.243,220.576 259.466,220.604 259.689,220.634 259.913,220.649 260.136,220.663 260.359,220.675 260.583,220.683 260.806,220.687 261.029,220.688 261.252,220.689 261.475,220.69 261.698,220.691 261.921,220.693 262.145,220.694 262.368,220.696 262.591,220.698 262.814,220.699 263.038,220.7 263.261,220.701 263.484,220.702 263.707,220.703 263.93,220.707 264.154,220.713 264.377,220.724 264.6,220.741 264.823,220.758 265.046,220.779 265.27,220.8 265.493,220.831 265.716,220.857 265.939,220.876 266.163,220.893 266.386,220.91 266.609,220.928 266.832,220.941 267.055,220.949 267.278,220.954 267.501,220.957 267.725,220.958 267.948,220.96 268.171,220.961 268.395,220.963 268.618,220.965 268.841,220.968 269.064,220.974 269.287,220.983 269.51,220.999 269.733,221.021 269.957,221.052 270.18,221.096 270.403,221.144 270.626,221.209 270.85,221.273 271.073,221.328 271.296,221.392 271.519,221.444 271.742,221.5 271.966,221.539 272.189,221.576 272.412,221.614 272.635,221.647 272.858,221.68 273.082,221.701 273.305,221.712 273.528,221.72 273.751,221.728 273.975,221.734 274.198,221.74 274.421,221.745 274.644,221.747 274.867,221.75 275.09,221.753 275.313,221.757 275.537,221.761 275.76,221.769 275.983,221.78 276.207,221.804 276.43,221.835 276.653,221.891 276.876,221.999 277.099,222.173 277.322,222.559 277.545,222.997 277.769,223.397 277.992,223.706 278.215,223.954 278.438,224.205 278.662,224.341 278.885,224.454 279.108,224.507 279.331,224.538 279.554,224.564 279.778,224.583 280.001,224.598 280.224,224.614 280.447,224.629 280.67,224.65 280.894,224.682 281.117,224.738 281.34,224.863 281.563,225 281.787,225.23 282.01,225.532 282.233,225.966 282.456,226.425 282.679,226.872 282.902,227.49 283.125,228.252 283.349,229.407 283.572,230.736 283.795,231.779 284.019,232.821 284.242,233.563 284.465,234.09 284.688,234.396 284.911,234.556 285.134,234.673 285.357,234.726 285.581,234.763 285.804,234.789 286.027,234.81 286.25,234.837 286.474,234.881 286.697,234.973 286.92,235.182 287.143,235.413 287.366,235.772 287.59,236.21 287.813,236.634 288.036,237.033 288.259,237.405 288.482,237.765 288.706,238.007 288.929,238.258 289.152,238.494 289.375,238.811 289.599,239.225 289.822,239.914 290.045,240.782 290.268,241.621 290.491,242.46 290.714,243.182 290.938,243.637 291.161,243.934 291.384,244.063 291.607,244.124 291.831,244.167 292.054,244.187 292.277,244.209 292.5,244.239 292.723,244.282 292.946,244.36 293.169,244.438 293.393,244.53 293.616,244.649 293.839,244.797 294.062,245.167 294.286,245.76 294.509,246.748 294.732,247.976 294.955,249.141 295.178,250.327 295.401,251.066 295.625,251.606 295.848,251.895 296.071,252.074 296.294,252.189 296.518,252.242 296.741,252.292 296.964,252.324 297.187,252.344 297.411,252.357 297.634,252.372 297.857,252.401 298.08,252.498 298.303,252.745 298.526,252.9 298.75,252.999 298.973,253.058 299.196,253.093 299.419,253.116 299.643,253.133 299.866,253.146 300.089,253.157 300.312,253.173 300.535,253.191 300.758,253.214 300.981,253.245 301.205,253.299 301.428,253.342 301.651,253.41 301.875,253.504 302.098,253.622 302.321,253.782 302.544,253.991 302.767,254.427 302.99,254.99 303.213,255.778 303.437,256.6 303.66,257.17 303.883,257.798 304.106,258.249 304.33,258.576 304.553,258.79 304.776,258.97 304.999,259.233 305.222,259.535 305.446,259.859 305.669,260.154 305.892,260.395 306.115,260.579 306.338,260.703 306.562,260.809 306.785,260.926 307.008,261.025 307.231,261.107 307.455,261.171 307.678,261.23 307.901,261.275 308.124,261.307 308.347,261.333 308.57,261.351 308.793,261.378 309.017,261.423 309.24,261.484 309.463,261.57 309.687,261.707 309.91,262.004 310.133,262.357 310.356,262.752 310.579,263.286 310.802,264.12 311.025,265.404 311.249,266.757 311.472,267.757 311.695,268.682 311.918,269.208 312.142,269.622 312.365,269.929 312.588,270.135 312.811,270.277 313.034,270.37 313.258,270.448 313.481,270.505 313.704,270.553 313.927,270.599 314.15,270.639 314.374,270.679 314.597,270.712 314.82,270.751 315.043,270.804 315.267,270.88 315.49,270.978 315.713,271.078 315.936,271.232 316.159,271.486 316.382,271.902 316.605,272.596 316.829,273.51 317.052,274.436 317.275,275.51 317.499,276.364 317.722,277.204 317.945,277.877 318.168,278.487 318.391,278.949 318.614,279.273 318.837,279.549 319.061,279.722 319.284,279.883 319.507,280.045 319.73,280.197 319.954,280.295 320.177,280.366 320.4,280.432 320.623,280.491 320.846,280.521 321.07,280.545 321.293,280.563 321.516,280.577 321.739,280.592 321.962,280.607 322.186,280.635 322.409,280.671 322.632,280.733 322.855,280.833 323.079,281.002 323.302,281.266 323.525,281.572 323.748,281.875 323.971,282.207 324.194,282.535 324.417,282.88 324.641,283.088 324.864,283.26 325.087,283.399 325.311,283.494 325.534,283.561 325.757,283.597 325.98,283.619 326.203,283.628 326.426,283.634 326.649,283.638 326.873,283.641 327.096,283.643 327.319,283.649 327.542,283.657 327.766,283.675 327.989,283.703 328.212,283.746 328.435,283.814 328.658,283.893 328.882,284.007 329.105,284.091 329.328,284.166 329.551,284.217 329.774,284.243 329.998,284.261 330.221,284.271 330.444,284.285 330.667,284.301 330.891,284.315 331.114,284.332 331.337,284.351 331.56,284.373 331.783,284.389 332.006,284.396 332.229,284.4 332.453,284.401 332.676,284.403 332.899,284.405 333.123,284.407 333.346,284.409 333.569,284.412 333.792,284.415 334.015,284.417 334.238,284.419 334.461,284.426 334.685,284.441 334.908,284.481 335.131,284.546 335.354,284.604 335.578,284.643 335.801,284.66 336.024,284.669 336.247,284.674 336.47,284.676 336.693,284.677 336.917,284.677 337.14,284.678 337.363,284.679 337.586,284.68 337.81,284.682 338.033,284.684 338.256,284.687 338.479,284.69 338.703,284.695 338.926,284.705 339.149,284.721 339.372,284.743 339.595,284.768 339.818,284.818 340.042,284.873 340.265,284.913 340.488,284.936 340.711,284.948 340.935,284.958 341.158,284.964 341.381,284.968 341.604,284.971 341.827,284.972 342.05,284.974 342.273,284.975 342.497,284.976 342.72,284.978 342.943,284.981 343.167,284.983 343.39,284.983 343.613,284.983 343.836,284.983 344.059,284.984 344.282,284.986 344.505,284.987 344.729,284.989 344.952,284.99 345.175,284.991 345.398,284.992 345.622,284.994 345.845,284.997 346.068,284.999 346.291,285.001 346.515,285.004 346.738,285.007 346.961,285.01 347.184,285.014 347.407,285.02 347.63,285.031 347.854,285.065 348.077,285.113 348.3,285.167 348.523,285.206 348.747,285.229 348.97,285.243 349.193,285.25 349.416,285.257 349.639,285.263 349.862,285.269 350.085,285.273 350.309,285.276 350.532,285.278 350.755,285.279 350.979,285.279 351.202,285.28 351.425,285.28 351.648,285.282 351.871,285.283 352.094,285.286 352.317,285.288 352.541,285.29 352.764,285.292 352.987,285.294 353.21,285.298 353.434,285.304 353.657,285.312 353.88,285.329 354.103,285.354 354.326,285.389 354.55,285.424 354.773,285.456 354.996,285.486 355.219,285.506 355.442,285.526 355.666,285.539 355.889,285.548 356.112,285.554 356.335,285.557 356.559,285.559 356.782,285.559 357.005,285.56 357.228,285.56 357.451,285.561 357.674,285.563 357.897,285.568 358.121,285.573 358.344,285.58 358.567,285.588 358.791,285.603 359.014,285.628 359.237,285.671 359.46,285.736 359.683,285.816 359.906,285.897 360.129,285.961 360.353,286.035 360.576,286.121 360.799,286.17 361.022,286.201 361.246,286.222 361.469,286.247 361.692,286.279 361.915,286.303 362.138,286.321 362.362,286.332 362.585,286.339 362.808,286.343 363.031,286.347 363.254,286.35 363.478,286.354 363.701,286.359 363.924,286.365 364.147,286.373 364.371,286.382 364.594,286.396 364.817,286.411 365.04,286.432 365.263,286.453 365.486,286.486 365.709,286.528 365.933,286.584 366.156,286.674 366.379,286.83 366.603,287.164 366.826,287.551 367.049,287.827 367.272,288.131 367.495,288.421 367.718,288.668 367.941,288.829 368.165,288.941 368.388,289.027 368.611,289.083 368.834,289.124 369.058,289.151 369.281,289.173 369.504,289.195 369.727,289.218 369.95,289.244 370.174,289.27 370.397,289.3 370.62,289.347 370.843,289.392 371.066,289.473 371.29,289.57 371.513,289.694 371.736,289.889 371.959,290.163 372.183,290.717 372.406,291.768 372.629,293.715 372.852,295.838 373.075,297.322 373.298,297.991 373.521,298.324 373.745,298.586 373.968,298.753 374.191,298.85 374.415,298.915 374.638,298.946 374.861,298.976 375.084,299.006 375.307,299.034 375.53,299.069 375.753,299.106 375.977,299.188 376.2,299.4 376.423,299.843 376.646,300.598 376.87,301.495 377.093,302.791 377.316,304.087 377.539,305.231 377.762,305.995 377.986,306.444 378.209,306.761 378.432,306.875 378.655,306.951 378.878,307.049 379.102,307.175 379.325,307.379 379.548,307.558 379.771,307.726 379.995,307.848 380.218,307.984 380.441,308.1 380.664,308.179 380.887,308.243 381.11,308.276 381.333,308.296 381.557,308.315 381.78,308.35 382.003,308.441 382.227,308.588 382.45,308.816 382.673,309.133 382.896,309.583 383.119,310.152 383.342,310.873 383.565,311.774 383.789,312.805 384.012,313.756 384.235,314.705 384.458,315.444 384.682,315.764 384.905,316 385.128,316.154 385.351,316.276 385.574,316.368 385.798,316.407 386.021,316.434 386.244,316.449 386.467,316.466 386.69,316.49 386.914,316.534 387.137,316.612 387.36,316.771 387.583,317.035 387.807,317.222 388.03,317.369 388.253,317.445 388.476,317.489 388.699,317.517 388.922,317.539 389.146,317.557 389.369,317.574 389.592,317.59 389.815,317.605 390.039,317.625 390.262,317.644 390.485,317.681 390.708,317.73 390.931,317.8 391.154,317.888 391.377,317.989 391.601,318.164 391.824,318.373 392.047,318.753 392.271,319.168 392.494,319.682 392.717,320.262 392.94,320.846 393.163,321.409 393.386,321.815 393.609,322.217 393.833,322.627 394.056,323 394.279,323.322 394.502,323.61 394.726,323.836 394.949,324.005 395.172,324.184 395.395,324.409 395.618,324.614 395.842,324.792 396.065,324.95 396.288,325.071 396.511,325.181 396.734,325.255 396.958,325.316 397.181,325.361 397.404,325.387 397.627,325.415 397.851,325.44 398.074,325.483 398.297,325.53 398.52,325.581 398.743,325.644 398.966,325.715 399.189,325.839 399.413,326.026 399.636,326.335 399.859,326.901 400.083,327.545 400.306,328.339 400.529,329.198 400.752,330.383 400.975,331.691 401.198,332.622 401.421,333.399 401.645,333.854 401.868,334.188 402.091,334.448 402.314,334.646 402.538,334.791 402.761,334.878 402.984,334.935 403.207,334.986 403.43,335.026 403.654,335.062 403.877,335.091 404.1,335.127 404.323,335.193 404.546,335.267 404.77,335.35 404.993,335.437 405.216,335.55 405.439,335.69 405.663,335.901 405.886,336.159 406.109,336.7 406.332,337.534 406.555,338.823 406.778,340.069 407.001,340.948 407.225,341.631 407.448,342.13 407.671,342.491 407.895,342.785 408.118,343.109 408.341,343.35 408.564,343.539 408.787,343.789 409.01,344.01 409.233,344.17 409.457,344.241 409.68,344.284 409.903,344.314 410.126,344.336 410.35,344.357 410.573,344.374 410.796,344.39 411.019,344.408 411.242,344.431 411.466,344.485 411.689,344.576 411.912,344.745 412.135,345.007 412.358,345.354 412.582,345.861 412.805,346.29 413.028,346.68 413.251,346.972"/>
</g>
</g>
</svg>
