<?xml version="1.0" encoding="UTF-8" standalone="no"?>
<svg xmlns="http://www.w3.org/2000/svg"
     xmlns:xlink="http://www.w3.org/1999/xlink"
     width="576pt" height="432pt" viewBox="0 0 576 432">
<title>gl2ps_renderer figure</title>
<desc>
Creator: GL2PS 1.4.0, (C) 1999-2017 C. Geuzaine
For: Octave
CreationDate: Wed May 25 18:15:42 2022
</desc>
<defs>
</defs>
<polygon fill="#ffffff" points="0,0 576,0 576,432 0,432"/>
<g>
<polygon fill="#ffffff" points="0,432 576,432 576,0 0,0" shape-rendering="crispEdges"/>
<clipPath id="cp00576432">
  <polygon points="0,432 576,432 576,0 0,0"/>
</clipPath>
<g clip-path="url(#cp00576432)">
<polygon fill="#ffffff" shape-rendering="crispEdges" points="74.8799,384.48 521.28,384.48 521.28,32.3999"/>
<polygon fill="#ffffff" shape-rendering="crispEdges" points="74.8799,384.48 521.28,32.3999 74.8799,32.3999"/>
<polyline fill="none" stroke="#262626" stroke-width="0.5" stroke-linecap="butt" stroke-linejoin="miter" points="74.8799,384.48 74.8799,380.015"/>
<polyline fill="none" stroke="#262626" stroke-width="0.5" stroke-linecap="butt" stroke-linejoin="miter" points="74.8799,32.3999 74.8799,36.8652"/>
<polyline fill="none" stroke="#262626" stroke-width="0.5" stroke-linecap="butt" stroke-linejoin="miter" points="186.48,384.48 186.48,380.015"/>
<polyline fill="none" stroke="#262626" stroke-width="0.5" stroke-linecap="butt" stroke-linejoin="miter" points="186.48,32.3999 186.48,36.8652"/>
<polyline fill="none" stroke="#262626" stroke-width="0.5" stroke-linecap="butt" stroke-linejoin="miter" points="298.08,384.48 298.08,380.015"/>
<polyline fill="none" stroke="#262626" stroke-width="0.5" stroke-linecap="butt" stroke-linejoin="miter" points="298.08,32.3999 298.08,36.8652"/>
<polyline fill="none" stroke="#262626" stroke-width="0.5" stroke-linecap="butt" stroke-linejoin="miter" points="409.68,384.48 409.68,380.015"/>
<polyline fill="none" stroke="#262626" stroke-width="0.5" stroke-linecap="butt" stroke-linejoin="miter" points="409.68,32.3999 409.68,36.8652"/>
<polyline fill="none" stroke="#262626" stroke-width="0.5" stroke-linecap="butt" stroke-linejoin="miter" points="521.28,384.48 521.28,380.015"/>
<polyline fill="none" stroke="#262626" stroke-width="0.5" stroke-linecap="butt" stroke-linejoin="miter" points="521.28,32.3999 521.28,36.8652"/>
<text xml:space="preserve" transform="translate(67.38,400.481) rotate(-0,7.5,-11)" font-family="FreeSans" font-weight="normal" font-style="normal" font-size="10"><tspan y="-1" fill="rgb(38,38,38)" x="0 6 9 ">0.9</tspan></text>
<text xml:space="preserve" transform="translate(175.98,400.481) rotate(-0,10.5,-11)" font-family="FreeSans" font-weight="normal" font-style="normal" font-size="10"><tspan y="-1" fill="rgb(38,38,38)" x="0 6 9 15 ">0.95</tspan></text>
<text xml:space="preserve" transform="translate(295.08,400.481) rotate(-0,3,-11)" font-family="FreeSans" font-weight="normal" font-style="normal" font-size="10"><tspan y="-1" fill="rgb(38,38,38)" x="0 ">1</tspan></text>
<text xml:space="preserve" transform="translate(399.18,400.481) rotate(-0,10.5,-11)" font-family="FreeSans" font-weight="normal" font-style="normal" font-size="10"><tspan y="-1" fill="rgb(38,38,38)" x="0 6 9 15 ">1.05</tspan></text>
<text xml:space="preserve" transform="translate(513.78,400.481) rotate(-0,7.5,-11)" font-family="FreeSans" font-weight="normal" font-style="normal" font-size="10"><tspan y="-1" fill="rgb(38,38,38)" x="0 6 9 ">1.1</tspan></text>
<polyline fill="none" stroke="#262626" stroke-width="0.5" stroke-linecap="butt" stroke-linejoin="miter" points="74.8799,384.48 79.3481,384.48"/>
<polyline fill="none" stroke="#262626" stroke-width="0.5" stroke-linecap="butt" stroke-linejoin="miter" points="521.28,384.48 516.812,384.48"/>
<polyline fill="none" stroke="#262626" stroke-width="0.5" stroke-linecap="butt" stroke-linejoin="miter" points="74.8799,314.064 79.3481,314.064"/>
<polyline fill="none" stroke="#262626" stroke-width="0.5" stroke-linecap="butt" stroke-linejoin="miter" points="521.28,314.064 516.812,314.064"/>
<polyline fill="none" stroke="#262626" stroke-width="0.5" stroke-linecap="butt" stroke-linejoin="miter" points="74.8799,243.648 79.3481,243.648"/>
<polyline fill="none" stroke="#262626" stroke-width="0.5" stroke-linecap="butt" stroke-linejoin="miter" points="521.28,243.648 516.812,243.648"/>
<polyline fill="none" stroke="#262626" stroke-width="0.5" stroke-linecap="butt" stroke-linejoin="miter" points="74.8799,173.232 79.3481,173.232"/>
<polyline fill="none" stroke="#262626" stroke-width="0.5" stroke-linecap="butt" stroke-linejoin="miter" points="521.28,173.232 516.812,173.232"/>
<polyline fill="none" stroke="#262626" stroke-width="0.5" stroke-linecap="butt" stroke-linejoin="miter" points="74.8799,102.816 79.3481,102.816"/>
<polyline fill="none" stroke="#262626" stroke-width="0.5" stroke-linecap="butt" stroke-linejoin="miter" points="521.28,102.816 516.812,102.816"/>
<polyline fill="none" stroke="#262626" stroke-width="0.5" stroke-linecap="butt" stroke-linejoin="miter" points="74.8799,32.3999 79.3481,32.3999"/>
<polyline fill="none" stroke="#262626" stroke-width="0.5" stroke-linecap="butt" stroke-linejoin="miter" points="521.28,32.3999 516.812,32.3999"/>
<text xml:space="preserve" transform="translate(63.8755,389.98) rotate(-0,6,-5.5)" font-family="FreeSans" font-weight="normal" font-style="normal" font-size="10"><tspan y="-1" fill="rgb(38,38,38)" x="0 ">2</tspan></text>
<text xml:space="preserve" transform="translate(54.8755,319.564) rotate(-0,15,-5.5)" font-family="FreeSans" font-weight="normal" font-style="normal" font-size="10"><tspan y="-1" fill="rgb(38,38,38)" x="0 6 9 ">2.5</tspan></text>
<text xml:space="preserve" transform="translate(63.8755,249.148) rotate(-0,6,-5.5)" font-family="FreeSans" font-weight="normal" font-style="normal" font-size="10"><tspan y="-1" fill="rgb(38,38,38)" x="0 ">3</tspan></text>
<text xml:space="preserve" transform="translate(54.8755,178.732) rotate(-0,15,-5.5)" font-family="FreeSans" font-weight="normal" font-style="normal" font-size="10"><tspan y="-1" fill="rgb(38,38,38)" x="0 6 9 ">3.5</tspan></text>
<text xml:space="preserve" transform="translate(63.8755,108.316) rotate(-0,6,-5.5)" font-family="FreeSans" font-weight="normal" font-style="normal" font-size="10"><tspan y="-1" fill="rgb(38,38,38)" x="0 ">4</tspan></text>
<text xml:space="preserve" transform="translate(54.8755,37.9) rotate(-0,15,-5.5)" font-family="FreeSans" font-weight="normal" font-style="normal" font-size="10"><tspan y="-1" fill="rgb(38,38,38)" x="0 6 9 ">4.5</tspan></text>
<polyline fill="none" stroke="#262626" stroke-width="0.5" stroke-linecap="square" stroke-linejoin="miter" stroke-dasharray="16,0" points="74.8799,384.48 521.28,384.48"/>
<polyline fill="none" stroke="#262626" stroke-width="0.5" stroke-linecap="square" stroke-linejoin="miter" stroke-dasharray="16,0" points="74.8799,32.3999 521.28,32.3999"/>
<polyline fill="none" stroke="#262626" stroke-width="0.5" stroke-linecap="square" stroke-linejoin="miter" stroke-dasharray="16,0" points="74.8799,384.48 74.8799,32.3999"/>
<polyline fill="none" stroke="#262626" stroke-width="0.5" stroke-linecap="square" stroke-linejoin="miter" stroke-dasharray="16,0" points="521.28,384.48 521.28,32.3999"/>
<text xml:space="preserve" transform="translate(247.58,413.481) rotate(-0,50.5,-13)" font-family="FreeSans" font-weight="normal" font-style="normal" font-size="11"><tspan y="-2" fill="rgb(38,38,38)" x="0 8 14 23 29 33 39 42 48 54 57 59 62 68 72 78 84 90 96 ">Número de iterações</tspan></text>
<text xml:space="preserve" transform="translate(-0.124484,208.44) rotate(-90,51,0)" font-family="FreeSans" font-weight="normal" font-style="normal" font-size="11"><tspan y="-2" fill="rgb(38,38,38)" x="0 2 8 14 18 26 32 37 39 45 51 57 60 68 74 76 82 85 87 92 98 ">log(Resíduo Relativo)</tspan></text>
<text xml:space="preserve" transform="translate(276.58,22.4) rotate(-0,21.5,0)" font-family="FreeSans" font-weight="bold" font-style="normal" font-size="11"><tspan y="-2" fill="rgb(0,0,0)" x="0 6 12 18 21 25 31 37 ">cavity05</tspan></text>
<polygon fill="#0071bc" shape-rendering="crispEdges" points="299.08,373.292 298.58,374.158 297.58,374.158"/>
<polygon fill="#0071bc" shape-rendering="crispEdges" points="299.08,373.292 297.58,374.158 297.08,373.292"/>
<polygon fill="#0071bc" shape-rendering="crispEdges" points="299.08,373.292 297.08,373.292 297.58,372.426"/>
<polygon fill="#0071bc" shape-rendering="crispEdges" points="299.08,373.292 297.58,372.426 298.58,372.426"/>
<polygon fill="#0071bc" shape-rendering="crispEdges" points="299.08,373.292 298.58,372.426 299.08,373.292"/>
<polygon fill="#d85218" shape-rendering="crispEdges" points="299.08,45.5371 298.58,46.4028 297.58,46.4028"/>
<polygon fill="#d85218" shape-rendering="crispEdges" points="299.08,45.5371 297.58,46.4028 297.08,45.5371"/>
<polygon fill="#d85218" shape-rendering="crispEdges" points="299.08,45.5371 297.08,45.5371 297.58,44.6709"/>
<polygon fill="#d85218" shape-rendering="crispEdges" points="299.08,45.5371 297.58,44.6709 298.58,44.6709"/>
<polygon fill="#d85218" shape-rendering="crispEdges" points="299.08,45.5371 298.58,44.6709 299.08,45.5371"/>
</g>
</g>
</svg>
