<?xml version="1.0" encoding="UTF-8" standalone="no"?>
<svg xmlns="http://www.w3.org/2000/svg"
     xmlns:xlink="http://www.w3.org/1999/xlink"
     width="576pt" height="432pt" viewBox="0 0 576 432">
<title>gl2ps_renderer figure</title>
<desc>
Creator: GL2PS 1.4.0, (C) 1999-2017 C. Geuzaine
For: Octave
CreationDate: Sun May 29 01:24:14 2022
</desc>
<defs>
</defs>
<polygon fill="#ffffff" points="0,0 576,0 576,432 0,432"/>
<g>
<polygon fill="#ffffff" points="0,432 576,432 576,0 0,0" shape-rendering="crispEdges"/>
<clipPath id="cp00576432">
  <polygon points="0,432 576,432 576,0 0,0"/>
</clipPath>
<g clip-path="url(#cp00576432)">
<polygon fill="#ffffff" shape-rendering="crispEdges" points="74.8799,384.479 521.28,384.479 521.28,32.4004"/>
<polygon fill="#ffffff" shape-rendering="crispEdges" points="74.8799,384.479 521.28,32.4004 74.8799,32.4004"/>
<polyline fill="none" stroke="#262626" stroke-width="0.5" stroke-linecap="butt" stroke-linejoin="miter" points="74.8799,384.479 74.8799,380.015"/>
<polyline fill="none" stroke="#262626" stroke-width="0.5" stroke-linecap="butt" stroke-linejoin="miter" points="74.8799,32.4004 74.8799,36.8652"/>
<polyline fill="none" stroke="#262626" stroke-width="0.5" stroke-linecap="butt" stroke-linejoin="miter" points="138.651,384.479 138.651,380.015"/>
<polyline fill="none" stroke="#262626" stroke-width="0.5" stroke-linecap="butt" stroke-linejoin="miter" points="138.651,32.4004 138.651,36.8652"/>
<polyline fill="none" stroke="#262626" stroke-width="0.5" stroke-linecap="butt" stroke-linejoin="miter" points="202.423,384.479 202.423,380.015"/>
<polyline fill="none" stroke="#262626" stroke-width="0.5" stroke-linecap="butt" stroke-linejoin="miter" points="202.423,32.4004 202.423,36.8652"/>
<polyline fill="none" stroke="#262626" stroke-width="0.5" stroke-linecap="butt" stroke-linejoin="miter" points="266.194,384.479 266.194,380.015"/>
<polyline fill="none" stroke="#262626" stroke-width="0.5" stroke-linecap="butt" stroke-linejoin="miter" points="266.194,32.4004 266.194,36.8652"/>
<polyline fill="none" stroke="#262626" stroke-width="0.5" stroke-linecap="butt" stroke-linejoin="miter" points="329.966,384.479 329.966,380.015"/>
<polyline fill="none" stroke="#262626" stroke-width="0.5" stroke-linecap="butt" stroke-linejoin="miter" points="329.966,32.4004 329.966,36.8652"/>
<polyline fill="none" stroke="#262626" stroke-width="0.5" stroke-linecap="butt" stroke-linejoin="miter" points="393.737,384.479 393.737,380.015"/>
<polyline fill="none" stroke="#262626" stroke-width="0.5" stroke-linecap="butt" stroke-linejoin="miter" points="393.737,32.4004 393.737,36.8652"/>
<polyline fill="none" stroke="#262626" stroke-width="0.5" stroke-linecap="butt" stroke-linejoin="miter" points="457.509,384.479 457.509,380.015"/>
<polyline fill="none" stroke="#262626" stroke-width="0.5" stroke-linecap="butt" stroke-linejoin="miter" points="457.509,32.4004 457.509,36.8652"/>
<polyline fill="none" stroke="#262626" stroke-width="0.5" stroke-linecap="butt" stroke-linejoin="miter" points="521.28,384.479 521.28,380.015"/>
<polyline fill="none" stroke="#262626" stroke-width="0.5" stroke-linecap="butt" stroke-linejoin="miter" points="521.28,32.4004 521.28,36.8652"/>
<text xml:space="preserve" transform="translate(71.88,400.481) rotate(-0,3,-11)" font-family="FreeSans" font-weight="normal" font-style="normal" font-size="10"><tspan y="-1" fill="rgb(38,38,38)" x="0 ">0</tspan></text>
<text xml:space="preserve" transform="translate(129.651,400.481) rotate(-0,9,-11)" font-family="FreeSans" font-weight="normal" font-style="normal" font-size="10"><tspan y="-1" fill="rgb(38,38,38)" x="0 6 12 ">200</tspan></text>
<text xml:space="preserve" transform="translate(193.423,400.481) rotate(-0,9,-11)" font-family="FreeSans" font-weight="normal" font-style="normal" font-size="10"><tspan y="-1" fill="rgb(38,38,38)" x="0 6 12 ">400</tspan></text>
<text xml:space="preserve" transform="translate(257.194,400.481) rotate(-0,9,-11)" font-family="FreeSans" font-weight="normal" font-style="normal" font-size="10"><tspan y="-1" fill="rgb(38,38,38)" x="0 6 12 ">600</tspan></text>
<text xml:space="preserve" transform="translate(320.966,400.481) rotate(-0,9,-11)" font-family="FreeSans" font-weight="normal" font-style="normal" font-size="10"><tspan y="-1" fill="rgb(38,38,38)" x="0 6 12 ">800</tspan></text>
<text xml:space="preserve" transform="translate(381.737,400.481) rotate(-0,12,-11)" font-family="FreeSans" font-weight="normal" font-style="normal" font-size="10"><tspan y="-1" fill="rgb(38,38,38)" x="0 6 12 18 ">1000</tspan></text>
<text xml:space="preserve" transform="translate(445.509,400.481) rotate(-0,12,-11)" font-family="FreeSans" font-weight="normal" font-style="normal" font-size="10"><tspan y="-1" fill="rgb(38,38,38)" x="0 6 12 18 ">1200</tspan></text>
<text xml:space="preserve" transform="translate(509.28,400.481) rotate(-0,12,-11)" font-family="FreeSans" font-weight="normal" font-style="normal" font-size="10"><tspan y="-1" fill="rgb(38,38,38)" x="0 6 12 18 ">1400</tspan></text>
<polyline fill="none" stroke="#262626" stroke-width="0.5" stroke-linecap="butt" stroke-linejoin="miter" points="74.8799,384.479 79.3481,384.479"/>
<polyline fill="none" stroke="#262626" stroke-width="0.5" stroke-linecap="butt" stroke-linejoin="miter" points="521.28,384.479 516.812,384.479"/>
<polyline fill="none" stroke="#262626" stroke-width="0.5" stroke-linecap="butt" stroke-linejoin="miter" points="74.8799,325.8 79.3481,325.8"/>
<polyline fill="none" stroke="#262626" stroke-width="0.5" stroke-linecap="butt" stroke-linejoin="miter" points="521.28,325.8 516.812,325.8"/>
<polyline fill="none" stroke="#262626" stroke-width="0.5" stroke-linecap="butt" stroke-linejoin="miter" points="74.8799,267.12 79.3481,267.12"/>
<polyline fill="none" stroke="#262626" stroke-width="0.5" stroke-linecap="butt" stroke-linejoin="miter" points="521.28,267.12 516.812,267.12"/>
<polyline fill="none" stroke="#262626" stroke-width="0.5" stroke-linecap="butt" stroke-linejoin="miter" points="74.8799,208.44 79.3481,208.44"/>
<polyline fill="none" stroke="#262626" stroke-width="0.5" stroke-linecap="butt" stroke-linejoin="miter" points="521.28,208.44 516.812,208.44"/>
<polyline fill="none" stroke="#262626" stroke-width="0.5" stroke-linecap="butt" stroke-linejoin="miter" points="74.8799,149.76 79.3481,149.76"/>
<polyline fill="none" stroke="#262626" stroke-width="0.5" stroke-linecap="butt" stroke-linejoin="miter" points="521.28,149.76 516.812,149.76"/>
<polyline fill="none" stroke="#262626" stroke-width="0.5" stroke-linecap="butt" stroke-linejoin="miter" points="74.8799,91.0806 79.3481,91.0806"/>
<polyline fill="none" stroke="#262626" stroke-width="0.5" stroke-linecap="butt" stroke-linejoin="miter" points="521.28,91.0806 516.812,91.0806"/>
<polyline fill="none" stroke="#262626" stroke-width="0.5" stroke-linecap="butt" stroke-linejoin="miter" points="74.8799,32.4004 79.3481,32.4004"/>
<polyline fill="none" stroke="#262626" stroke-width="0.5" stroke-linecap="butt" stroke-linejoin="miter" points="521.28,32.4004 516.812,32.4004"/>
<text xml:space="preserve" transform="translate(48.8755,389.98) rotate(-0,21,-5.5)" font-family="FreeSans" font-weight="normal" font-style="normal" font-size="10"><tspan y="-1" fill="rgb(38,38,38)" x="0 6 9 15 ">2.92</tspan></text>
<text xml:space="preserve" transform="translate(48.8755,331.3) rotate(-0,21,-5.5)" font-family="FreeSans" font-weight="normal" font-style="normal" font-size="10"><tspan y="-1" fill="rgb(38,38,38)" x="0 6 9 15 ">2.94</tspan></text>
<text xml:space="preserve" transform="translate(48.8755,272.62) rotate(-0,21,-5.5)" font-family="FreeSans" font-weight="normal" font-style="normal" font-size="10"><tspan y="-1" fill="rgb(38,38,38)" x="0 6 9 15 ">2.96</tspan></text>
<text xml:space="preserve" transform="translate(48.8755,213.94) rotate(-0,21,-5.5)" font-family="FreeSans" font-weight="normal" font-style="normal" font-size="10"><tspan y="-1" fill="rgb(38,38,38)" x="0 6 9 15 ">2.98</tspan></text>
<text xml:space="preserve" transform="translate(63.8755,155.26) rotate(-0,6,-5.5)" font-family="FreeSans" font-weight="normal" font-style="normal" font-size="10"><tspan y="-1" fill="rgb(38,38,38)" x="0 ">3</tspan></text>
<text xml:space="preserve" transform="translate(48.8755,96.58) rotate(-0,21,-5.5)" font-family="FreeSans" font-weight="normal" font-style="normal" font-size="10"><tspan y="-1" fill="rgb(38,38,38)" x="0 6 9 15 ">3.02</tspan></text>
<text xml:space="preserve" transform="translate(48.8755,37.9) rotate(-0,21,-5.5)" font-family="FreeSans" font-weight="normal" font-style="normal" font-size="10"><tspan y="-1" fill="rgb(38,38,38)" x="0 6 9 15 ">3.04</tspan></text>
<polyline fill="none" stroke="#262626" stroke-width="0.5" stroke-linecap="square" stroke-linejoin="miter" stroke-dasharray="16,0" points="74.8799,384.479 521.28,384.479"/>
<polyline fill="none" stroke="#262626" stroke-width="0.5" stroke-linecap="square" stroke-linejoin="miter" stroke-dasharray="16,0" points="74.8799,32.4004 521.28,32.4004"/>
<polyline fill="none" stroke="#262626" stroke-width="0.5" stroke-linecap="square" stroke-linejoin="miter" stroke-dasharray="16,0" points="74.8799,384.479 74.8799,32.4004"/>
<polyline fill="none" stroke="#262626" stroke-width="0.5" stroke-linecap="square" stroke-linejoin="miter" stroke-dasharray="16,0" points="521.28,384.479 521.28,32.4004"/>
<text xml:space="preserve" transform="translate(247.58,413.481) rotate(-0,50.5,-13)" font-family="FreeSans" font-weight="normal" font-style="normal" font-size="11"><tspan y="-2" fill="rgb(38,38,38)" x="0 8 14 23 29 33 39 42 48 54 57 59 62 68 72 78 84 90 96 ">Número de iterações</tspan></text>
<text xml:space="preserve" transform="translate(-6.12448,208.44) rotate(-90,51,0)" font-family="FreeSans" font-weight="normal" font-style="normal" font-size="11"><tspan y="-2" fill="rgb(38,38,38)" x="0 2 8 14 18 26 32 37 39 45 51 57 60 68 74 76 82 85 87 92 98 ">log(Resíduo Relativo)</tspan></text>
<text xml:space="preserve" transform="translate(266.08,22.4) rotate(-0,32,0)" font-family="FreeSans" font-weight="bold" font-style="normal" font-size="11"><tspan y="-2" fill="rgb(0,0,0)" x="0 7 13 19 22 25 32 38 45 52 58 ">oscildcop02</tspan></text>
<polyline fill="none" stroke="#0071bc" stroke-width="0.5" stroke-linecap="butt" stroke-linejoin="round" points="75.1987,56.1875 75.5176,63.5938 75.8364,76.123 76.1553,84.3237 76.4741,85.6216 76.793,85.7056 77.1118,85.7075 77.4307,89.0693 77.7495,89.207 78.0684,89.2148 78.3872,89.5669 78.7061,89.5874 79.0254,90.2954 79.3438,90.4321 79.6631,92.9922 79.9819,101.201 80.3008,101.398 80.6196,103.424 80.9385,103.793 81.2573,103.868 81.5762,108.164 81.895,117.588 82.2139,118.53 82.5327,125.643 82.8516,125.644 83.1704,126.031 83.4893,126.047 83.8081,127.051 84.127,127.284 84.4458,127.438 84.7646,127.526 85.0835,128.106 85.4023,128.135 85.7212,129.327 86.04,129.387 86.3589,129.81 86.6777,129.811 86.9966,129.894 87.3154,129.903 87.6343,129.983 87.9531,130.016 88.272,131.158 88.5908,131.177 88.9097,131.177 89.2285,131.308 89.5474,132.049 89.8662,132.148 90.1851,133.6 90.5039,134.559 90.8228,137.569 91.1416,137.578 91.4604,137.994 91.7793,138.639 92.0981,138.675 92.417,138.698 92.7358,138.79 93.0547,139.147 93.3735,141.126 93.6924,141.167 94.0112,141.179 94.3301,141.451 94.6489,141.457 94.9678,141.49 95.2871,141.494 95.6055,141.579 95.9248,141.582 96.2437,141.584 96.5625,141.719 96.8813,142.329 97.2002,142.449 97.519,144.36 97.8379,146.273 98.1567,147.249 98.4756,147.61 98.7944,150.833 99.1133,155.604 99.4321,156.396 99.751,159.789 100.07,159.839 100.389,160.308 100.708,160.664 101.026,160.758 101.345,160.781 101.664,160.986 101.983,161.258 102.302,163.025 102.621,163.215 102.939,163.237 103.258,163.275 103.577,163.477 103.896,163.496 104.215,163.522 104.534,163.581 104.853,164.14 105.171,164.306 105.49,164.44 105.809,164.524 106.128,164.743 106.447,181.676 106.766,182.618 107.084,183.007 107.403,184.29 107.722,186.356 108.041,187.995 108.36,188.325 108.679,188.573 108.998,188.607 109.316,191.042 109.635,191.049 109.954,191.385 110.273,191.459 110.592,192.732 110.911,192.986 111.229,193.015 111.548,193.065 111.867,193.071 112.187,193.739 112.505,194.039 112.824,194.044 113.143,194.114 113.462,194.873 113.781,198.435 114.1,199.647 114.418,216.06 114.737,216.946 115.056,217.532 115.375,218.251 115.694,219.016 116.013,223.14 116.332,223.209 116.65,223.374 116.969,223.517 117.288,223.657 117.607,223.662 117.926,234.968 118.245,236.249 118.563,236.308 118.882,236.399 119.201,239.959 119.52,248.019 119.839,248.022 120.158,248.688 120.477,252.076 120.795,252.442 121.114,253.204 121.433,255.816 121.752,273.517 122.071,273.766 122.39,274.17 122.708,282.626 123.027,282.658 123.346,283.966 123.665,285.755 123.984,285.771 124.303,286.005 124.622,286.895 124.94,287.522 125.259,287.617 125.578,289.999 125.897,290.721 126.216,291.741 126.535,291.968 126.854,292.399 127.172,292.723 127.491,292.728 127.81,292.787 128.129,292.798 128.448,292.985 128.767,294.89 129.086,295.214 129.405,301.958 129.724,302.185 130.042,303.822 130.361,304.858 130.68,306.251 130.999,309.103 131.318,309.28 131.637,309.717 131.956,309.839 132.274,325.849 132.593,331.769 132.912,332.01 133.231,338.373 133.55,339.581 133.869,340.438 134.188,341.269 134.506,341.302 134.825,341.385 135.144,342.616 135.463,342.628 135.782,344.09 136.101,346.345 136.419,346.415 136.738,346.58 137.057,346.683 137.376,346.841 137.695,348.938 138.014,348.945 138.333,350.774 138.651,350.78 138.97,350.784 139.289,350.784 139.608,350.784 139.927,350.784 140.246,350.784 140.564,350.784 140.883,350.784 141.202,350.784 141.521,350.784 141.84,350.784 142.159,350.784 142.478,350.784 142.796,350.784 143.115,350.784 143.434,350.784 143.753,350.784 144.072,350.784 144.391,350.784 144.709,350.784 145.028,350.784 145.348,350.784 145.667,350.784 145.985,350.784 146.304,350.784 146.623,350.784 146.942,350.784 147.261,350.784 147.58,350.784 147.898,350.784 148.217,350.784 148.536,350.784 148.855,350.784 149.174,350.784 149.493,350.784 149.812,350.784 150.13,350.784 150.449,350.784 150.768,350.784 151.087,350.784 151.406,350.784 151.725,350.784 152.043,350.784 152.362,350.784 152.681,350.784 153,350.784 153.319,350.784 153.638,350.784 153.957,350.784 154.275,350.784 154.594,350.784 154.913,350.784 155.232,350.784 155.551,350.784 155.87,350.784 156.188,350.784 156.507,350.784 156.826,350.784 157.145,350.784 157.464,350.784 157.783,350.784 158.102,350.784 158.42,350.784 158.739,350.784 159.058,350.784 159.377,350.784 159.696,350.784 160.015,350.784 160.333,350.784 160.652,350.784 160.971,350.784 161.29,350.784 161.609,350.784 161.928,350.784 162.247,350.784 162.566,350.784 162.885,350.784 163.204,350.785 163.522,350.785 163.841,350.785 164.16,350.785 164.479,350.785 164.798,350.785 165.117,350.785 165.436,350.785 165.754,350.785 166.073,350.786 166.392,350.813 166.711,350.819 167.03,350.831 167.349,350.837 167.667,350.837 167.986,350.838 168.305,350.855 168.624,350.855 168.943,350.855 169.262,350.86 169.581,350.861 169.899,350.863 170.218,350.865 170.537,350.866 170.856,350.867 171.175,350.867 171.494,350.867 171.812,350.867 172.131,350.867 172.45,350.867 172.769,350.867 173.088,350.87 173.407,350.871 173.726,350.872 174.044,350.873 174.363,350.876 174.682,350.876 175.001,350.876 175.32,350.876 175.639,350.878 175.958,350.882 176.276,350.883 176.595,350.884 176.914,350.957 177.233,350.958 177.552,350.97 177.871,350.974 178.19,351.049 178.509,351.078 178.828,351.129 179.146,351.526 179.465,351.561 179.784,351.563 180.103,351.563 180.422,351.571 180.741,351.575 181.06,351.598 181.378,351.638 181.697,351.708 182.016,351.72 182.335,351.739 182.654,351.744 182.973,351.908 183.292,351.946 183.61,351.946 183.929,351.946 184.248,351.947 184.567,352.008 184.886,352.059 185.205,352.064 185.523,352.08 185.842,352.266 186.161,352.275 186.48,352.31 186.799,352.325 187.118,352.331 187.437,352.336 187.755,352.436 188.074,352.436 188.393,352.462 188.712,352.472 189.031,352.473 189.35,352.473 189.668,352.473 189.987,352.485 190.306,352.754 190.625,352.757 190.944,353.235 191.263,353.235 191.582,353.242 191.9,353.316 192.219,353.363 192.538,353.734 192.857,353.746 193.176,354.353 193.495,354.354 193.813,354.354 194.132,354.925 194.451,354.927 194.771,356.372 195.089,356.994 195.408,357.366 195.727,357.544 196.046,357.608 196.365,357.654 196.684,359.154 197.002,360.431 197.321,363.997 197.64,364.278 197.959,364.279 198.278,364.294 198.597,365.115 198.916,365.129 199.234,365.367 199.553,366.833 199.872,368.306 200.191,370.419 200.51,370.422 200.829,370.841 201.147,371.455 201.466,371.976 201.785,372.224 202.104,372.226 202.423,372.229 202.742,372.355 203.061,372.355 203.379,372.355 203.698,372.355 204.017,372.355 204.336,372.355 204.655,372.355 204.974,372.355 205.292,372.355 205.611,372.355 205.93,372.355 206.249,372.355 206.568,372.355 206.887,372.355 207.206,372.355 207.524,372.355 207.843,372.355 208.162,372.355 208.481,372.355 208.8,372.355 209.119,372.355 209.438,372.355 209.756,372.355 210.075,372.355 210.394,372.355 210.713,372.355 211.032,372.355 211.351,372.355 211.67,372.355 211.989,372.355 212.308,372.355 212.626,372.355 212.945,372.355 213.264,372.355 213.583,372.355 213.902,372.355 214.221,372.355 214.54,372.355 214.858,372.355 215.177,372.355 215.496,372.355 215.815,372.355 216.134,372.355 216.453,372.355 216.771,372.355 217.09,372.355 217.409,372.355 217.728,372.355 218.047,372.355 218.366,372.355 218.685,372.355 219.003,372.355 219.322,372.355 219.641,372.355 219.96,372.355 220.279,372.355 220.598,372.355 220.917,372.355 221.235,372.355 221.554,372.355 221.873,372.355 222.192,372.355 222.511,372.355 222.83,372.355 223.148,372.355 223.467,372.355 223.786,372.355 224.105,372.355 224.424,372.355 224.743,372.355 225.062,372.355 225.38,372.355 225.699,372.355 226.018,372.355 226.337,372.355 226.656,372.355 226.975,372.355 227.294,372.355 227.612,372.355 227.932,372.355 228.25,372.355 228.569,372.355 228.888,372.355 229.207,372.355 229.526,372.355 229.845,372.355 230.164,372.355 230.482,372.355 230.801,372.355 231.12,372.355 231.439,372.355 231.758,372.355 232.077,372.355 232.396,372.355 232.714,372.356 233.033,372.356 233.352,372.356 233.671,372.358 233.99,372.358 234.309,372.359 234.627,372.359 234.946,372.36 235.265,372.36 235.584,372.36 235.903,372.36 236.222,372.362 236.541,372.362 236.859,372.363 237.178,372.364 237.497,372.368 237.816,372.369 238.135,372.372 238.454,372.373 238.772,372.375 239.091,372.376 239.41,372.385 239.729,372.417 240.048,372.417 240.367,372.418 240.686,372.543 241.004,372.547 241.323,372.548 241.642,372.549 241.961,372.549 242.28,372.549 242.599,372.661 242.917,372.673 243.236,372.694 243.555,372.698 243.875,372.75 244.193,372.76 244.512,372.761 244.831,372.779 245.15,372.825 245.469,372.852 245.788,372.854 246.106,372.856 246.425,372.856 246.744,372.869 247.063,372.87 247.382,372.87 247.701,372.87 248.02,372.879 248.338,372.881 248.657,372.897 248.976,373.076 249.295,373.079 249.614,373.097 249.933,373.102 250.251,373.103 250.57,373.25 250.889,373.25 251.208,373.308 251.527,373.497 251.846,373.499 252.165,373.5 252.483,373.5 252.802,373.5 253.121,373.502 253.44,373.502 253.759,373.556 254.078,373.557 254.396,373.56 254.715,373.567 255.034,373.58 255.353,373.593 255.672,373.596 255.991,373.597 256.31,373.598 256.628,373.598 256.947,373.598 257.266,373.598 257.585,373.599 257.904,373.599 258.223,373.599 258.542,373.604 258.86,373.635 259.179,373.635 259.498,373.636 259.817,373.673 260.136,373.728 260.455,373.776 260.774,373.776 261.093,373.785 261.412,373.793 261.73,373.794 262.049,373.806 262.368,373.827 262.687,373.828 263.006,374.044 263.325,374.054 263.644,374.062 263.962,374.085 264.281,374.085 264.6,374.085 264.919,375.031 265.238,375.04 265.557,375.054 265.875,375.056 266.194,375.1 266.513,375.41 266.832,375.41 267.151,375.41 267.47,375.41 267.789,375.41 268.107,375.41 268.426,375.41 268.745,375.41 269.064,375.41 269.383,375.41 269.702,375.41 270.021,375.41 270.339,375.41 270.658,375.41 270.977,375.41 271.296,375.41 271.615,375.41 271.934,375.41 272.252,375.41 272.571,375.41 272.89,375.41 273.209,375.41 273.528,375.41 273.847,375.41 274.166,375.41 274.484,375.41 274.803,375.41 275.122,375.41 275.441,375.41 275.76,375.41 276.079,375.41 276.397,375.41 276.717,375.41 277.036,375.41 277.354,375.41 277.673,375.41 277.992,375.41 278.311,375.41 278.63,375.41 278.949,375.41 279.268,375.41 279.586,375.41 279.905,375.41 280.224,375.41 280.543,375.41 280.862,375.41 281.181,375.41 281.5,375.41 281.818,375.41 282.137,375.41 282.456,375.41 282.775,375.41 283.094,375.41 283.413,375.41 283.731,375.41 284.05,375.41 284.369,375.41 284.688,375.41 285.007,375.41 285.326,375.41 285.645,375.41 285.963,375.41 286.282,375.41 286.601,375.41 286.92,375.41 287.239,375.41 287.558,375.41 287.876,375.41 288.195,375.41 288.514,375.41 288.833,375.41 289.152,375.41 289.471,375.41 289.79,375.41 290.108,375.41 290.427,375.41 290.746,375.41 291.065,375.41 291.384,375.41 291.703,375.41 292.021,375.41 292.34,375.41 292.659,375.41 292.978,375.41 293.297,375.41 293.616,375.41 293.935,375.411 294.254,375.411 294.573,375.412 294.892,375.412 295.21,375.412 295.529,375.412 295.848,375.412 296.167,375.412 296.486,375.412 296.805,375.412 297.124,375.412 297.442,375.412 297.761,375.412 298.08,375.412 298.399,375.412 298.718,375.412 299.037,375.412 299.355,375.412 299.674,375.412 299.993,375.412 300.312,375.412 300.631,375.412 300.95,375.412 301.269,375.412 301.587,375.412 301.906,375.412 302.225,375.412 302.544,375.412 302.863,375.412 303.182,375.412 303.5,375.413 303.819,375.413 304.138,375.413 304.457,375.413 304.776,375.413 305.095,375.413 305.414,375.413 305.732,375.413 306.051,375.413 306.37,375.413 306.689,375.415 307.008,375.415 307.327,375.416 307.646,375.418 307.964,375.419 308.283,375.419 308.602,375.419 308.921,375.422 309.24,375.43 309.559,375.43 309.878,375.433 310.197,375.433 310.516,375.47 310.834,375.481 311.153,375.481 311.472,375.482 311.791,375.483 312.11,375.483 312.429,375.484 312.748,375.485 313.066,375.485 313.385,375.511 313.704,375.517 314.023,375.518 314.342,375.524 314.661,375.524 314.979,375.524 315.298,375.524 315.617,375.524 315.936,375.528 316.255,375.531 316.574,375.531 316.893,375.531 317.211,375.535 317.53,375.539 317.849,375.54 318.168,375.54 318.487,375.541 318.806,375.541 319.125,375.541 319.443,375.541 319.762,375.541 320.081,375.543 320.4,375.543 320.719,375.543 321.038,375.543 321.356,375.543 321.675,375.544 321.994,375.544 322.313,375.549 322.632,375.549 322.951,375.553 323.27,375.575 323.588,375.576 323.907,375.578 324.226,375.676 324.545,375.677 324.864,375.687 325.183,375.723 325.501,375.725 325.82,375.725 326.139,375.731 326.458,375.742 326.777,375.75 327.096,375.75 327.415,375.753 327.734,375.753 328.053,375.753 328.372,375.753 328.69,375.758 329.009,375.758 329.328,375.762 329.647,375.835 329.966,376.179 330.285,376.223 330.604,376.223 330.922,376.223 331.241,376.223 331.56,376.223 331.879,376.224 332.198,376.224 332.517,376.224 332.835,376.224 333.154,376.224 333.473,376.224 333.792,376.224 334.111,376.224 334.43,376.224 334.749,376.224 335.067,376.224 335.386,376.224 335.705,376.224 336.024,376.224 336.343,376.224 336.662,376.224 336.98,376.224 337.299,376.224 337.618,376.224 337.937,376.224 338.256,376.224 338.575,376.224 338.894,376.224 339.212,376.224 339.531,376.224 339.85,376.224 340.169,376.224 340.488,376.224 340.807,376.224 341.125,376.224 341.444,376.224 341.763,376.224 342.082,376.224 342.401,376.224 342.72,376.224 343.039,376.224 343.358,376.224 343.677,376.224 343.996,376.224 344.314,376.224 344.633,376.224 344.952,376.224 345.271,376.224 345.59,376.224 345.909,376.224 346.228,376.224 346.546,376.224 346.865,376.224 347.184,376.224 347.503,376.224 347.822,376.224 348.141,376.224 348.459,376.224 348.778,376.224 349.097,376.224 349.416,376.224 349.735,376.224 350.054,376.224 350.373,376.224 350.691,376.224 351.01,376.224 351.329,376.224 351.648,376.224 351.967,376.224 352.286,376.224 352.604,376.224 352.923,376.224 353.242,376.224 353.561,376.224 353.88,376.224 354.199,376.224 354.518,376.224 354.836,376.224 355.155,376.224 355.474,376.224 355.793,376.224 356.112,376.224 356.431,376.224 356.75,376.224 357.068,376.224 357.387,376.224 357.706,376.225 358.025,376.225 358.344,376.225 358.663,376.225 358.981,376.225 359.301,376.225 359.62,376.225 359.938,376.225 360.257,376.225 360.576,376.226 360.895,376.226 361.214,376.226 361.533,376.226 361.852,376.226 362.17,376.226 362.489,376.226 362.808,376.226 363.127,376.226 363.446,376.226 363.765,376.226 364.083,376.226 364.402,376.226 364.721,376.226 365.04,376.226 365.359,376.226 365.678,376.226 365.997,376.226 366.315,376.227 366.634,376.231 366.953,376.231 367.272,376.232 367.591,376.233 367.91,376.234 368.229,376.243 368.547,376.243 368.866,376.243 369.185,376.243 369.504,376.243 369.823,376.243 370.142,376.244 370.46,376.246 370.779,376.248 371.098,376.248 371.417,376.25 371.736,376.25 372.055,376.251 372.374,376.251 372.692,376.257 373.011,376.268 373.33,376.269 373.649,376.269 373.968,376.269 374.287,376.269 374.605,376.269 374.924,376.269 375.243,376.269 375.562,376.269 375.881,376.279 376.2,376.28 376.519,376.285 376.838,376.286 377.157,376.3 377.476,376.301 377.794,376.302 378.113,376.311 378.432,376.313 378.751,376.316 379.07,376.316 379.389,376.322 379.708,376.322 380.026,376.322 380.345,376.322 380.664,376.322 380.983,376.322 381.302,376.322 381.621,376.322 381.939,376.322 382.258,376.322 382.577,376.322 382.896,376.332 383.215,376.333 383.534,376.333 383.853,376.334 384.171,376.334 384.49,376.334 384.809,376.334 385.128,376.335 385.447,376.336 385.766,376.336 386.084,376.359 386.403,376.362 386.722,376.377 387.041,376.388 387.36,376.388 387.679,376.396 387.998,376.401 388.316,376.401 388.635,376.404 388.954,376.406 389.273,376.406 389.592,376.418 389.911,376.425 390.229,376.425 390.548,376.427 390.867,376.429 391.186,376.438 391.505,376.438 391.824,376.439 392.143,376.489 392.462,376.49 392.781,376.491 393.1,376.529 393.418,376.53 393.737,376.543 394.056,376.557 394.375,376.557 394.694,376.557 395.013,376.557 395.332,376.562 395.65,376.564 395.969,376.564 396.288,376.568 396.607,376.568 396.926,376.568 397.245,376.568 397.563,376.568 397.882,376.568 398.201,376.568 398.52,376.568 398.839,376.568 399.158,376.568 399.477,376.568 399.795,376.568 400.114,376.568 400.433,376.568 400.752,376.568 401.071,376.568 401.39,376.568 401.708,376.568 402.027,376.568 402.346,376.568 402.665,376.568 402.984,376.568 403.303,376.568 403.622,376.568 403.94,376.568 404.259,376.568 404.578,376.568 404.897,376.568 405.216,376.568 405.535,376.568 405.854,376.568 406.172,376.568 406.491,376.568 406.81,376.568 407.129,376.568 407.448,376.568 407.767,376.568 408.085,376.568 408.405,376.568 408.724,376.568 409.042,376.568 409.361,376.568 409.68,376.568 409.999,376.568 410.318,376.568 410.637,376.568 410.956,376.568 411.274,376.568 411.593,376.568 411.912,376.568 412.231,376.568 412.55,376.568 412.869,376.568 413.188,376.568 413.506,376.568 413.825,376.568 414.144,376.568 414.463,376.568 414.782,376.568 415.101,376.568 415.419,376.568 415.738,376.568 416.057,376.568 416.376,376.568 416.695,376.568 417.014,376.568 417.333,376.568 417.651,376.568 417.97,376.568 418.289,376.568 418.608,376.568 418.927,376.568 419.246,376.568 419.564,376.568 419.883,376.568 420.202,376.568 420.521,376.568 420.84,376.568 421.159,376.568 421.478,376.568 421.796,376.568 422.115,376.568 422.434,376.568 422.753,376.568 423.072,376.568 423.391,376.568 423.709,376.568 424.028,376.568 424.348,376.568 424.666,376.568 424.985,376.568 425.304,376.568 425.623,376.568 425.942,376.568 426.261,376.568 426.58,376.568 426.898,376.568 427.217,376.568 427.536,376.568 427.855,376.568 428.174,376.568 428.493,376.568 428.812,376.568 429.13,376.568 429.449,376.568 429.768,376.568 430.087,376.568 430.406,376.568 430.725,376.568 431.043,376.568 431.362,376.568 431.681,376.568 432,376.569 432.319,376.569 432.638,376.569 432.957,376.569 433.275,376.569 433.594,376.569 433.913,376.569 434.232,376.57 434.551,376.57 434.87,376.57 435.188,376.572 435.507,376.572 435.826,376.572 436.145,376.572 436.464,376.572 436.783,376.574 437.102,376.575 437.42,376.575 437.739,376.575 438.058,376.577 438.377,376.577 438.696,376.577 439.015,376.577 439.333,376.577 439.652,376.577 439.971,376.578 440.29,376.578 440.609,376.578 440.928,376.578 441.247,376.578 441.566,376.579 441.885,376.58 442.204,376.58 442.522,376.583 442.841,376.583 443.16,376.586 443.479,376.588 443.798,376.588 444.117,376.591 444.436,376.591 444.754,376.591 445.073,376.596 445.392,376.611 445.711,376.613 446.03,376.613 446.349,376.614 446.667,376.614 446.986,376.614 447.305,376.616 447.624,376.616 447.943,376.616 448.262,376.616 448.581,376.617 448.899,376.617 449.218,376.617 449.537,376.617 449.856,376.618 450.175,376.619 450.494,376.622 450.812,376.622 451.131,376.622 451.45,376.623 451.769,376.623 452.088,376.623 452.407,376.623 452.726,376.623 453.044,376.624 453.363,376.625 453.682,376.625 454.001,376.628 454.32,376.629 454.639,376.629 454.958,376.629 455.276,376.63 455.595,376.63 455.914,376.63 456.233,376.63 456.552,376.633 456.871,376.641 457.189,376.642 457.509,376.691 457.827,376.691"/>
</g>
</g>
</svg>
