<?xml version="1.0" encoding="UTF-8" standalone="no"?>
<svg xmlns="http://www.w3.org/2000/svg"
     xmlns:xlink="http://www.w3.org/1999/xlink"
     width="576pt" height="432pt" viewBox="0 0 576 432">
<title>gl2ps_renderer figure</title>
<desc>
Creator: GL2PS 1.4.0, (C) 1999-2017 C. Geuzaine
For: Octave
CreationDate: Wed May 25 15:17:21 2022
</desc>
<defs>
</defs>
<polygon fill="#ffffff" points="0,0 576,0 576,432 0,432"/>
<g>
<polygon fill="#ffffff" points="0,432 576,432 576,0 0,0" shape-rendering="crispEdges"/>
<clipPath id="cp00576432">
  <polygon points="0,432 576,432 576,0 0,0"/>
</clipPath>
<g clip-path="url(#cp00576432)">
<polygon fill="#ffffff" shape-rendering="crispEdges" points="74.8799,384.48 521.28,384.48 521.28,32.3999"/>
<polygon fill="#ffffff" shape-rendering="crispEdges" points="74.8799,384.48 521.28,32.3999 74.8799,32.3999"/>
<polyline fill="none" stroke="#262626" stroke-width="0.5" stroke-linecap="butt" stroke-linejoin="miter" points="74.8799,384.48 74.8799,380.015"/>
<polyline fill="none" stroke="#262626" stroke-width="0.5" stroke-linecap="butt" stroke-linejoin="miter" points="74.8799,32.3999 74.8799,36.8652"/>
<polyline fill="none" stroke="#262626" stroke-width="0.5" stroke-linecap="butt" stroke-linejoin="miter" points="186.48,384.48 186.48,380.015"/>
<polyline fill="none" stroke="#262626" stroke-width="0.5" stroke-linecap="butt" stroke-linejoin="miter" points="186.48,32.3999 186.48,36.8652"/>
<polyline fill="none" stroke="#262626" stroke-width="0.5" stroke-linecap="butt" stroke-linejoin="miter" points="298.08,384.48 298.08,380.015"/>
<polyline fill="none" stroke="#262626" stroke-width="0.5" stroke-linecap="butt" stroke-linejoin="miter" points="298.08,32.3999 298.08,36.8652"/>
<polyline fill="none" stroke="#262626" stroke-width="0.5" stroke-linecap="butt" stroke-linejoin="miter" points="409.68,384.48 409.68,380.015"/>
<polyline fill="none" stroke="#262626" stroke-width="0.5" stroke-linecap="butt" stroke-linejoin="miter" points="409.68,32.3999 409.68,36.8652"/>
<polyline fill="none" stroke="#262626" stroke-width="0.5" stroke-linecap="butt" stroke-linejoin="miter" points="521.28,384.48 521.28,380.015"/>
<polyline fill="none" stroke="#262626" stroke-width="0.5" stroke-linecap="butt" stroke-linejoin="miter" points="521.28,32.3999 521.28,36.8652"/>
<text xml:space="preserve" transform="translate(71.88,400.481) rotate(-0,3,-11)" font-family="FreeSans" font-weight="normal" font-style="normal" font-size="10"><tspan y="-1" fill="rgb(38,38,38)" x="0 ">0</tspan></text>
<text xml:space="preserve" transform="translate(177.48,400.481) rotate(-0,9,-11)" font-family="FreeSans" font-weight="normal" font-style="normal" font-size="10"><tspan y="-1" fill="rgb(38,38,38)" x="0 6 12 ">200</tspan></text>
<text xml:space="preserve" transform="translate(289.08,400.481) rotate(-0,9,-11)" font-family="FreeSans" font-weight="normal" font-style="normal" font-size="10"><tspan y="-1" fill="rgb(38,38,38)" x="0 6 12 ">400</tspan></text>
<text xml:space="preserve" transform="translate(400.68,400.481) rotate(-0,9,-11)" font-family="FreeSans" font-weight="normal" font-style="normal" font-size="10"><tspan y="-1" fill="rgb(38,38,38)" x="0 6 12 ">600</tspan></text>
<text xml:space="preserve" transform="translate(512.28,400.481) rotate(-0,9,-11)" font-family="FreeSans" font-weight="normal" font-style="normal" font-size="10"><tspan y="-1" fill="rgb(38,38,38)" x="0 6 12 ">800</tspan></text>
<polyline fill="none" stroke="#262626" stroke-width="0.5" stroke-linecap="butt" stroke-linejoin="miter" points="74.8799,384.48 79.3481,384.48"/>
<polyline fill="none" stroke="#262626" stroke-width="0.5" stroke-linecap="butt" stroke-linejoin="miter" points="521.28,384.48 516.812,384.48"/>
<polyline fill="none" stroke="#262626" stroke-width="0.5" stroke-linecap="butt" stroke-linejoin="miter" points="74.8799,334.183 79.3481,334.183"/>
<polyline fill="none" stroke="#262626" stroke-width="0.5" stroke-linecap="butt" stroke-linejoin="miter" points="521.28,334.183 516.812,334.183"/>
<polyline fill="none" stroke="#262626" stroke-width="0.5" stroke-linecap="butt" stroke-linejoin="miter" points="74.8799,283.886 79.3481,283.886"/>
<polyline fill="none" stroke="#262626" stroke-width="0.5" stroke-linecap="butt" stroke-linejoin="miter" points="521.28,283.886 516.812,283.886"/>
<polyline fill="none" stroke="#262626" stroke-width="0.5" stroke-linecap="butt" stroke-linejoin="miter" points="74.8799,233.588 79.3481,233.588"/>
<polyline fill="none" stroke="#262626" stroke-width="0.5" stroke-linecap="butt" stroke-linejoin="miter" points="521.28,233.588 516.812,233.588"/>
<polyline fill="none" stroke="#262626" stroke-width="0.5" stroke-linecap="butt" stroke-linejoin="miter" points="74.8799,183.292 79.3481,183.292"/>
<polyline fill="none" stroke="#262626" stroke-width="0.5" stroke-linecap="butt" stroke-linejoin="miter" points="521.28,183.292 516.812,183.292"/>
<polyline fill="none" stroke="#262626" stroke-width="0.5" stroke-linecap="butt" stroke-linejoin="miter" points="74.8799,132.994 79.3481,132.994"/>
<polyline fill="none" stroke="#262626" stroke-width="0.5" stroke-linecap="butt" stroke-linejoin="miter" points="521.28,132.994 516.812,132.994"/>
<polyline fill="none" stroke="#262626" stroke-width="0.5" stroke-linecap="butt" stroke-linejoin="miter" points="74.8799,82.6973 79.3481,82.6973"/>
<polyline fill="none" stroke="#262626" stroke-width="0.5" stroke-linecap="butt" stroke-linejoin="miter" points="521.28,82.6973 516.812,82.6973"/>
<polyline fill="none" stroke="#262626" stroke-width="0.5" stroke-linecap="butt" stroke-linejoin="miter" points="74.8799,32.3999 79.3481,32.3999"/>
<polyline fill="none" stroke="#262626" stroke-width="0.5" stroke-linecap="butt" stroke-linejoin="miter" points="521.28,32.3999 516.812,32.3999"/>
<text xml:space="preserve" transform="translate(54.8755,389.98) rotate(-0,15,-5.5)" font-family="FreeSans" font-weight="normal" font-style="normal" font-size="10"><tspan y="-1" fill="rgb(38,38,38)" x="0 3 9 ">-25</tspan></text>
<text xml:space="preserve" transform="translate(54.8755,339.683) rotate(-0,15,-5.5)" font-family="FreeSans" font-weight="normal" font-style="normal" font-size="10"><tspan y="-1" fill="rgb(38,38,38)" x="0 3 9 ">-20</tspan></text>
<text xml:space="preserve" transform="translate(54.8755,289.386) rotate(-0,15,-5.5)" font-family="FreeSans" font-weight="normal" font-style="normal" font-size="10"><tspan y="-1" fill="rgb(38,38,38)" x="0 3 9 ">-15</tspan></text>
<text xml:space="preserve" transform="translate(54.8755,239.089) rotate(-0,15,-5.5)" font-family="FreeSans" font-weight="normal" font-style="normal" font-size="10"><tspan y="-1" fill="rgb(38,38,38)" x="0 3 9 ">-10</tspan></text>
<text xml:space="preserve" transform="translate(60.8755,188.791) rotate(-0,9,-5.5)" font-family="FreeSans" font-weight="normal" font-style="normal" font-size="10"><tspan y="-1" fill="rgb(38,38,38)" x="0 3 ">-5</tspan></text>
<text xml:space="preserve" transform="translate(63.8755,138.494) rotate(-0,6,-5.5)" font-family="FreeSans" font-weight="normal" font-style="normal" font-size="10"><tspan y="-1" fill="rgb(38,38,38)" x="0 ">0</tspan></text>
<text xml:space="preserve" transform="translate(63.8755,88.1971) rotate(-0,6,-5.5)" font-family="FreeSans" font-weight="normal" font-style="normal" font-size="10"><tspan y="-1" fill="rgb(38,38,38)" x="0 ">5</tspan></text>
<text xml:space="preserve" transform="translate(57.8755,37.9) rotate(-0,12,-5.5)" font-family="FreeSans" font-weight="normal" font-style="normal" font-size="10"><tspan y="-1" fill="rgb(38,38,38)" x="0 6 ">10</tspan></text>
<polyline fill="none" stroke="#262626" stroke-width="0.5" stroke-linecap="square" stroke-linejoin="miter" stroke-dasharray="16,0" points="74.8799,384.48 521.28,384.48"/>
<polyline fill="none" stroke="#262626" stroke-width="0.5" stroke-linecap="square" stroke-linejoin="miter" stroke-dasharray="16,0" points="74.8799,32.3999 521.28,32.3999"/>
<polyline fill="none" stroke="#262626" stroke-width="0.5" stroke-linecap="square" stroke-linejoin="miter" stroke-dasharray="16,0" points="74.8799,384.48 74.8799,32.3999"/>
<polyline fill="none" stroke="#262626" stroke-width="0.5" stroke-linecap="square" stroke-linejoin="miter" stroke-dasharray="16,0" points="521.28,384.48 521.28,32.3999"/>
<text xml:space="preserve" transform="translate(247.58,413.481) rotate(-0,50.5,-13)" font-family="FreeSans" font-weight="normal" font-style="normal" font-size="11"><tspan y="-2" fill="rgb(38,38,38)" x="0 8 14 23 29 33 39 42 48 54 57 59 62 68 72 78 84 90 96 ">Número de iterações</tspan></text>
<text xml:space="preserve" transform="translate(-0.124484,208.44) rotate(-90,51,0)" font-family="FreeSans" font-weight="normal" font-style="normal" font-size="11"><tspan y="-2" fill="rgb(38,38,38)" x="0 2 8 14 18 26 32 37 39 45 51 57 60 68 74 76 82 85 87 92 98 ">log(Resíduo Relativo)</tspan></text>
<text xml:space="preserve" transform="translate(279.58,22.4) rotate(-0,18.5,0)" font-family="FreeSans" font-weight="bold" font-style="normal" font-size="11"><tspan y="-8" fill="rgb(0,0,0)" x="0 6 12 ">662</tspan><tspan font-size="9" y="-1" fill="rgb(0,0,0)" x="18 ">b</tspan><tspan y="-8" fill="rgb(0,0,0)" x="24 31 ">us</tspan></text>
<polyline fill="none" stroke="#0071bc" stroke-width="0.5" stroke-linecap="butt" stroke-linejoin="round" points="75.438,100.325 75.9961,67.6631 76.5542,69.6348 77.1118,71.5469 77.6699,64.377 78.228,69.8809 78.7861,65.0283 79.3438,69.4507 79.9019,75.625 80.46,69.3882 81.0181,68.5171 81.5762,68.1401 82.1338,71.8062 82.6919,70.2271 83.25,70.021 83.8081,69.6523 84.3662,69.0415 84.9238,69.1768 85.4819,70.6685 86.04,72.0146 86.5981,73.1836 87.1562,73.2969 87.7139,73.0488 88.272,77.4844 88.8301,75.9043 89.3882,72.7266 89.9458,72.7529 90.5039,74.8716 91.062,76.4443 91.6201,77.3638 92.1782,75.7593 92.7358,77.7642 93.2939,76.5845 93.8521,77.9067 94.4102,77.7026 94.9678,76.8662 95.5259,73.8828 96.084,71.9478 96.6421,73.0674 97.2002,75.8447 97.7578,80.4072 98.3159,80.0376 98.874,78.374 99.4321,78.9316 99.9902,77.0737 100.548,78.9067 101.106,78.6831 101.664,79.0161 102.222,81.3877 102.78,80.5752 103.338,76.165 103.896,81.7505 104.454,76.4302 105.012,78.707 105.57,81.4097 106.128,82.7104 106.686,82.9097 107.244,83.9507 107.802,85.3315 108.36,83.0195 108.918,82.061 109.476,82.936 110.034,82.7202 110.592,85.9058 111.15,84.9883 111.708,84.3008 112.266,82.0405 112.824,80.54 113.382,87.4492 113.94,87.5723 114.498,87.1001 115.056,84.4463 115.614,84.4526 116.172,89.8892 116.73,89.6064 117.288,86.7852 117.846,89.4609 118.404,90.1143 118.962,88.3677 119.52,90.9663 120.078,94.6284 120.636,94.8403 121.194,96.3511 121.752,87.1338 122.31,92.1172 122.868,94.395 123.426,96.7554 123.984,97.3555 124.542,96.5513 125.1,96.022 125.658,95.9961 126.216,93.0503 126.774,94.7778 127.332,89.3169 127.89,96.6484 128.448,97.6885 129.006,97.0713 129.564,89.6865 130.122,95.8389 130.68,95.5864 131.238,95.0015 131.796,97.459 132.354,92.7139 132.912,97.7295 133.47,94.1021 134.028,97.2949 134.586,99.9775 135.144,98.8701 135.702,98.9077 136.26,96.4736 136.818,101.495 137.376,100.323 137.934,93.3403 138.492,98.105 139.05,96.6118 139.608,93.2666 140.166,98.2759 140.724,95.3022 141.282,101.458 141.84,103.116 142.398,101.679 142.956,99.5347 143.514,104.598 144.072,103.506 144.63,106.692 145.188,106.818 145.746,102.692 146.304,103.419 146.862,104.473 147.42,107.073 147.978,102.756 148.536,107.205 149.094,103.774 149.652,108.972 150.21,107.806 150.768,104.679 151.326,110.236 151.884,109.781 152.442,106.763 153,110.417 153.558,111.516 154.116,105.013 154.674,111.365 155.232,108.173 155.79,108.757 156.348,108.963 156.906,112.279 157.464,111.083 158.022,111.841 158.58,109.486 159.138,113.197 159.696,111.063 160.254,113.987 160.812,115.792 161.37,109.269 161.928,115.553 162.486,108.327 163.044,112.204 163.602,115.996 164.16,113.662 164.718,114.703 165.276,110.945 165.834,114.329 166.392,114.121 166.95,117.094 167.508,116.977 168.066,114.225 168.624,115.34 169.182,112.341 169.74,114.41 170.298,113.891 170.856,114.543 171.414,116.904 171.972,118.047 172.53,115.388 173.088,115.398 173.646,113.851 174.204,118.727 174.762,117.56 175.32,116.813 175.878,115.114 176.436,118.017 176.994,115.787 177.552,114.366 178.11,117.807 178.668,112.363 179.226,116.985 179.784,117.168 180.342,114.017 180.9,117.312 181.458,118.105 182.016,116.255 182.574,117.726 183.132,121.809 183.69,121.045 184.248,121.383 184.806,118.541 185.364,122.188 185.922,116.687 186.48,121.663 187.038,121.723 187.596,113.646 188.154,122.748 188.712,121.86 189.27,122.219 189.828,121.557 190.386,122.48 190.944,122.961 191.502,123.106 192.06,121.158 192.618,126.416 193.176,123.598 193.734,124.22 194.292,124.928 194.85,125.267 195.408,116.428 195.966,125.778 196.524,120.475 197.082,125.955 197.64,121.375 198.198,123.62 198.756,123.596 199.314,123.436 199.872,126.295 200.43,124.398 200.988,123.693 201.546,124.334 202.104,128.634 202.662,126.322 203.22,129.052 203.778,126.571 204.336,127.591 204.894,129.238 205.452,128.702 206.01,130.328 206.568,132.06 207.126,129.638 207.684,130.859 208.242,132.631 208.8,125.443 209.358,128.438 209.916,126.123 210.474,134.279 211.032,132.014 211.59,134.603 212.148,131.618 212.706,127.5 213.264,132.771 213.822,131.485 214.38,132.273 214.938,135.644 215.496,132.829 216.054,137.498 216.612,135.085 217.17,135.202 217.728,136.864 218.286,137.131 218.844,138.074 219.402,132.229 219.96,137.079 220.518,129.193 221.076,136.623 221.634,136.019 222.192,136.616 222.75,136.312 223.308,139.684 223.866,134.204 224.424,140.901 224.982,138.613 225.54,138.988 226.098,136.581 226.656,135.151 227.214,139.932 227.772,143.294 228.33,132.736 228.888,135.083 229.446,142.596 230.004,140.386 230.562,141.867 231.12,141.109 231.678,140.612 232.236,138.628 232.794,142.479 233.352,144.418 233.91,143.203 234.468,142.54 235.026,146.651 235.584,146.125 236.142,146.41 236.7,135.882 237.258,146.481 237.816,146.146 238.374,147.791 238.932,143.624 239.49,145.137 240.048,146.65 240.606,148.698 241.164,148.801 241.722,143.829 242.28,145.499 242.838,145.19 243.396,146.072 243.954,147.216 244.512,145.95 245.07,146.354 245.628,142.898 246.186,149.343 246.744,147.905 247.302,151.28 247.86,147.986 248.418,151.844 248.976,145.869 249.534,151.334 250.092,152.086 250.65,147.241 251.208,151.496 251.766,151.516 252.324,151.658 252.882,149.637 253.44,151.126 253.998,155.776 254.556,149.757 255.114,147.993 255.672,154.084 256.23,151.949 256.788,153.473 257.346,156.155 257.904,154.552 258.462,157.921 259.02,153.306 259.578,156.909 260.136,154.501 260.694,156.616 261.252,152.688 261.81,157.993 262.368,158.284 262.926,160.229 263.484,159.993 264.042,159.525 264.6,159.124 265.158,161.56 265.716,158.904 266.274,165.758 266.832,157.462 267.39,163.59 267.948,167.827 268.506,166.695 269.064,166.709 269.622,159.189 270.18,165.612 270.738,165.679 271.296,166.468 271.854,164.567 272.412,166.303 272.97,167.894 273.528,168.386 274.086,171.485 274.644,171.315 275.202,168.115 275.76,169.764 276.318,168.912 276.876,171.65 277.434,166.311 277.992,167.244 278.55,169.942 279.108,171.84 279.666,173.856 280.224,170.7 280.782,172.774 281.34,175.041 281.898,175.56 282.456,177.398 283.014,175.507 283.572,173.63 284.13,177.641 284.688,175.373 285.246,176.284 285.804,168.463 286.362,178.414 286.92,178.514 287.478,178.333 288.036,177.921 288.594,180.291 289.152,177.786 289.71,178.56 290.268,180.83 290.826,178.403 291.384,181.212 291.942,181.371 292.5,179.968 293.058,176.77 293.616,182.708 294.174,177.557 294.732,177.104 295.29,178.537 295.848,184.897 296.406,181.45 296.964,185.222 297.522,184.189 298.08,186.449 298.638,182.987 299.196,184.417 299.754,184.909 300.312,185.634 300.87,180.611 301.428,187.383 301.986,181.536 302.544,180.04 303.102,188.196 303.66,186.487 304.218,186.5 304.776,188.049 305.334,190.452 305.892,187.154 306.45,191.362 307.008,187.136 307.566,194.377 308.124,195.676 308.682,193.563 309.24,194.786 309.798,189.395 310.356,188.32 310.914,192.749 311.472,196.535 312.03,194.365 312.588,193.82 313.146,192.706 313.704,192.231 314.262,192.051 314.82,195.101 315.378,192.635 315.936,197.131 316.494,199.26 317.052,198.592 317.61,199.412 318.168,198.419 318.726,191.618 319.284,196.698 319.842,201.381 320.4,199.468 320.958,199.062 321.516,202.659 322.074,200.944 322.632,201.715 323.19,204.31 323.748,201.48 324.306,200.644 324.864,202.561 325.422,203.394 325.98,199.548 326.538,202.938 327.096,198.75 327.654,205.873 328.212,200.23 328.77,205.63 329.328,202.908 329.886,203.796 330.444,207.982 331.002,205.864 331.56,203.832 332.118,207.317 332.676,208.101 333.234,206.038 333.792,208.926 334.35,210.577 334.908,202.438 335.466,209.009 336.024,209.107 336.582,206.508 337.14,209.77 337.698,206.125 338.256,213.33 338.814,210.9 339.372,213.602 339.93,210.251 340.488,209.73 341.046,213.375 341.604,214.187 342.162,214.956 342.72,211.059 343.278,210.856 343.836,210.249 344.394,212.209 344.952,215.406 345.51,214.043 346.068,216.604 346.626,215.057 347.184,219.505 347.742,217.792 348.3,216.85 348.858,215.944 349.416,217.136 349.974,213.009 350.532,221.201 351.09,220.71 351.648,212.329 352.206,219.786 352.764,219.659 353.322,223.964 353.88,223.175 354.438,222.281 354.996,225.189 355.554,220.973 356.112,224.991 356.67,224.769 357.228,225.869 357.786,221.28 358.344,231.381 358.902,228.889 359.46,221.189 360.018,228.18 360.576,226.639 361.134,226.859 361.692,224.988 362.25,231.523 362.808,233.457 363.366,228.608 363.924,233.934 364.482,230.933 365.04,232.721 365.598,230.708 366.156,235.018 366.714,231.129 367.272,237.218 367.83,227.036 368.388,235.983 368.946,236.331 369.504,233.048 370.062,234.688 370.62,236.362 371.178,240.321 371.736,236.245 372.294,234.28 372.852,238.35 373.41,237.417 373.968,239.461 374.526,238.384 375.084,243.515 375.642,232.091 376.2,236.579 376.758,241.57 377.316,238.63 377.874,240.667 378.432,243.208 378.99,239.949 379.548,244.145 380.106,243.446 380.664,245.366 381.222,243.478 381.78,246.06 382.338,242.895 382.896,249.125 383.454,246.129 384.012,240.483 384.57,243.023 385.128,250.348 385.686,242.275 386.244,248.952 386.802,251.796 387.36,248.978 387.918,246.158 388.476,252.294 389.034,248.554 389.592,247.674 390.15,246.375 390.708,253.382 391.266,243.639 391.824,243.3 392.382,252.258 392.94,253.422 393.498,248.929 394.056,250.083 394.614,257.342 395.172,253.222 395.73,256.235 396.288,252.281 396.846,256.106 397.404,255.685 397.962,259.178 398.52,255.054 399.078,255.238 399.636,252.304 400.194,254.617 400.752,259.877 401.31,257.436 401.868,255.147 402.426,259.657 402.984,262.827 403.542,258.257 404.1,264.131 404.658,260.346 405.216,261.042 405.774,262.247 406.332,262.361 406.89,260.208 407.448,254.266 408.006,260.699 408.564,262.641 409.122,262.682 409.68,261.172 410.238,264.032 410.796,265.556 411.354,265.804 411.912,266.56 412.47,267.068 413.028,267.392 413.586,265.481 414.144,270.19 414.702,269.481 415.26,268.498 415.818,263.081 416.376,269.251 416.934,267.855 417.492,267.25 418.05,272.417 418.608,271.449 419.166,270.961 419.724,273.591 420.282,269.079 420.84,270.826 421.398,273.003 421.956,270.326 422.514,273.274 423.072,275.849 423.63,273.366 424.188,266.502 424.746,273.647 425.304,273.948 425.862,277.021 426.42,274.59 426.978,274.702 427.536,279.296 428.094,273.268 428.652,275.892 429.21,279.051 429.768,278.37 430.326,279.429 430.884,280.667 431.442,280.491 432,277.673 432.558,276.2 433.116,280.367 433.674,279.434 434.232,275.514 434.79,284.027 435.348,282.326 435.906,286.799 436.464,281.17 437.022,283.931 437.58,285.006 438.138,288.402 438.696,289.315 439.254,284.691 439.812,277.007 440.37,285.531 440.928,286.926 441.486,283.154 442.044,285.692 442.602,288.978 443.16,285.182 443.718,285.347 444.276,283.963 444.834,285.548 445.392,283.235 445.95,290.332 446.508,289.674 447.066,290.874 447.624,289.452 448.182,285.003 448.74,288.416 449.298,288.857 449.856,292.874 450.414,290.159 450.972,291.165 451.53,293.875 452.088,292.419 452.646,291.757 453.204,289.397 453.762,291.575 454.32,293.27 454.878,294.464 455.436,295.161 455.994,286.185 456.552,291.152 457.11,292.924 457.668,295.227 458.226,295.486 458.784,296.559 459.342,297.273 459.9,301.131 460.458,294.199 461.016,298.826 461.574,297.469 462.132,297.161 462.69,298.682 463.248,301.195 463.806,295.125 464.364,297.384 464.922,297.483 465.48,298.966 466.038,304.7 466.596,304.637 467.154,302.416 467.712,304.24 468.27,303.084 468.828,300.188 469.386,305.34 469.944,302.923 470.502,306.574 471.06,306.457 471.618,305.256 472.176,299.845 472.734,307.278 473.292,310.19 473.85,305.598 474.408,308.04 474.966,310.745 475.524,311.84 476.082,310.711 476.64,312.407 477.198,310.458 477.756,315.568 478.314,314.139 478.872,312.622 479.43,310.653 479.988,308.879 480.546,316.593 481.104,311.64 481.662,312.147 482.22,314.873 482.778,311.537 483.336,317.275 483.894,320.13 484.452,314.094 485.01,318.372 485.568,318.954 486.126,312.584 486.684,316.213 487.242,320.122 487.8,315.936 488.358,310.598 488.916,318.185 489.474,318.558 490.032,317.975 490.59,320.969 491.148,318.798 491.706,322.393 492.264,324.076 492.822,319.396 493.38,321.46 493.938,325.711 494.496,325.693 495.054,326.327 495.612,327.875 496.17,326.254 496.728,329.168 497.286,325.53 497.844,326.98 498.402,329.576 498.96,329.181 499.518,332.265 500.076,330.267 500.634,331.035 501.192,329.243 501.75,335.856 502.308,333.289 502.866,334.926 503.424,334.696 503.982,334.699 504.54,327.386 505.098,337.532 505.656,335.112 506.214,339.614 506.772,337.352 507.33,336.573 507.888,338.172 508.446,337.555 509.004,341.651 509.562,340.574 510.12,343.011 510.678,343.406 511.236,346.501 511.794,343.478 512.352,339.383 512.91,347.125 513.468,342.983 514.026,344.357 514.584,343.041 515.142,345.429 515.7,344.952 516.258,347.325 516.816,343.541 517.374,344.666 517.932,347.374 518.49,345.241 519.048,351.608 519.606,347.976 520.164,351.523 520.722,351.5 521.28,347.844"/>
</g>
</g>
</svg>
