<?xml version="1.0" encoding="UTF-8" standalone="no"?>
<svg xmlns="http://www.w3.org/2000/svg"
     xmlns:xlink="http://www.w3.org/1999/xlink"
     width="576pt" height="432pt" viewBox="0 0 576 432">
<title>gl2ps_renderer figure</title>
<desc>
Creator: GL2PS 1.4.0, (C) 1999-2017 C. Geuzaine
For: Octave
CreationDate: Sun May 29 10:53:16 2022
</desc>
<defs>
</defs>
<polygon fill="#ffffff" points="0,0 576,0 576,432 0,432"/>
<g>
<polygon fill="#ffffff" points="0,432 576,432 576,0 0,0" shape-rendering="crispEdges"/>
<clipPath id="cp00576432">
  <polygon points="0,432 576,432 576,0 0,0"/>
</clipPath>
<g clip-path="url(#cp00576432)">
<polygon fill="#ffffff" shape-rendering="crispEdges" points="74.8799,384.48 521.28,384.48 521.28,32.3999"/>
<polygon fill="#ffffff" shape-rendering="crispEdges" points="74.8799,384.48 521.28,32.3999 74.8799,32.3999"/>
<polyline fill="none" stroke="#262626" stroke-width="0.5" stroke-linecap="butt" stroke-linejoin="miter" points="74.8799,384.48 74.8799,380.015"/>
<polyline fill="none" stroke="#262626" stroke-width="0.5" stroke-linecap="butt" stroke-linejoin="miter" points="74.8799,32.3999 74.8799,36.8652"/>
<polyline fill="none" stroke="#262626" stroke-width="0.5" stroke-linecap="butt" stroke-linejoin="miter" points="186.48,384.48 186.48,380.015"/>
<polyline fill="none" stroke="#262626" stroke-width="0.5" stroke-linecap="butt" stroke-linejoin="miter" points="186.48,32.3999 186.48,36.8652"/>
<polyline fill="none" stroke="#262626" stroke-width="0.5" stroke-linecap="butt" stroke-linejoin="miter" points="298.08,384.48 298.08,380.015"/>
<polyline fill="none" stroke="#262626" stroke-width="0.5" stroke-linecap="butt" stroke-linejoin="miter" points="298.08,32.3999 298.08,36.8652"/>
<polyline fill="none" stroke="#262626" stroke-width="0.5" stroke-linecap="butt" stroke-linejoin="miter" points="409.68,384.48 409.68,380.015"/>
<polyline fill="none" stroke="#262626" stroke-width="0.5" stroke-linecap="butt" stroke-linejoin="miter" points="409.68,32.3999 409.68,36.8652"/>
<polyline fill="none" stroke="#262626" stroke-width="0.5" stroke-linecap="butt" stroke-linejoin="miter" points="521.28,384.48 521.28,380.015"/>
<polyline fill="none" stroke="#262626" stroke-width="0.5" stroke-linecap="butt" stroke-linejoin="miter" points="521.28,32.3999 521.28,36.8652"/>
<text xml:space="preserve" transform="translate(71.88,400.481) rotate(-0,3,-11)" font-family="FreeSans" font-weight="normal" font-style="normal" font-size="10"><tspan y="-1" fill="rgb(38,38,38)" x="0 ">0</tspan></text>
<text xml:space="preserve" transform="translate(177.48,400.481) rotate(-0,9,-11)" font-family="FreeSans" font-weight="normal" font-style="normal" font-size="10"><tspan y="-1" fill="rgb(38,38,38)" x="0 6 12 ">200</tspan></text>
<text xml:space="preserve" transform="translate(289.08,400.481) rotate(-0,9,-11)" font-family="FreeSans" font-weight="normal" font-style="normal" font-size="10"><tspan y="-1" fill="rgb(38,38,38)" x="0 6 12 ">400</tspan></text>
<text xml:space="preserve" transform="translate(400.68,400.481) rotate(-0,9,-11)" font-family="FreeSans" font-weight="normal" font-style="normal" font-size="10"><tspan y="-1" fill="rgb(38,38,38)" x="0 6 12 ">600</tspan></text>
<text xml:space="preserve" transform="translate(512.28,400.481) rotate(-0,9,-11)" font-family="FreeSans" font-weight="normal" font-style="normal" font-size="10"><tspan y="-1" fill="rgb(38,38,38)" x="0 6 12 ">800</tspan></text>
<polyline fill="none" stroke="#262626" stroke-width="0.5" stroke-linecap="butt" stroke-linejoin="miter" points="74.8799,384.48 79.3481,384.48"/>
<polyline fill="none" stroke="#262626" stroke-width="0.5" stroke-linecap="butt" stroke-linejoin="miter" points="521.28,384.48 516.812,384.48"/>
<polyline fill="none" stroke="#262626" stroke-width="0.5" stroke-linecap="butt" stroke-linejoin="miter" points="74.8799,325.8 79.3481,325.8"/>
<polyline fill="none" stroke="#262626" stroke-width="0.5" stroke-linecap="butt" stroke-linejoin="miter" points="521.28,325.8 516.812,325.8"/>
<polyline fill="none" stroke="#262626" stroke-width="0.5" stroke-linecap="butt" stroke-linejoin="miter" points="74.8799,267.12 79.3481,267.12"/>
<polyline fill="none" stroke="#262626" stroke-width="0.5" stroke-linecap="butt" stroke-linejoin="miter" points="521.28,267.12 516.812,267.12"/>
<polyline fill="none" stroke="#262626" stroke-width="0.5" stroke-linecap="butt" stroke-linejoin="miter" points="74.8799,208.44 79.3481,208.44"/>
<polyline fill="none" stroke="#262626" stroke-width="0.5" stroke-linecap="butt" stroke-linejoin="miter" points="521.28,208.44 516.812,208.44"/>
<polyline fill="none" stroke="#262626" stroke-width="0.5" stroke-linecap="butt" stroke-linejoin="miter" points="74.8799,149.76 79.3481,149.76"/>
<polyline fill="none" stroke="#262626" stroke-width="0.5" stroke-linecap="butt" stroke-linejoin="miter" points="521.28,149.76 516.812,149.76"/>
<polyline fill="none" stroke="#262626" stroke-width="0.5" stroke-linecap="butt" stroke-linejoin="miter" points="74.8799,91.0801 79.3481,91.0801"/>
<polyline fill="none" stroke="#262626" stroke-width="0.5" stroke-linecap="butt" stroke-linejoin="miter" points="521.28,91.0801 516.812,91.0801"/>
<polyline fill="none" stroke="#262626" stroke-width="0.5" stroke-linecap="butt" stroke-linejoin="miter" points="74.8799,32.3999 79.3481,32.3999"/>
<polyline fill="none" stroke="#262626" stroke-width="0.5" stroke-linecap="butt" stroke-linejoin="miter" points="521.28,32.3999 516.812,32.3999"/>
<text xml:space="preserve" transform="translate(54.8755,389.98) rotate(-0,15,-5.5)" font-family="FreeSans" font-weight="normal" font-style="normal" font-size="10"><tspan y="-1" fill="rgb(38,38,38)" x="0 3 9 ">-20</tspan></text>
<text xml:space="preserve" transform="translate(54.8755,331.3) rotate(-0,15,-5.5)" font-family="FreeSans" font-weight="normal" font-style="normal" font-size="10"><tspan y="-1" fill="rgb(38,38,38)" x="0 3 9 ">-15</tspan></text>
<text xml:space="preserve" transform="translate(54.8755,272.62) rotate(-0,15,-5.5)" font-family="FreeSans" font-weight="normal" font-style="normal" font-size="10"><tspan y="-1" fill="rgb(38,38,38)" x="0 3 9 ">-10</tspan></text>
<text xml:space="preserve" transform="translate(60.8755,213.94) rotate(-0,9,-5.5)" font-family="FreeSans" font-weight="normal" font-style="normal" font-size="10"><tspan y="-1" fill="rgb(38,38,38)" x="0 3 ">-5</tspan></text>
<text xml:space="preserve" transform="translate(63.8755,155.26) rotate(-0,6,-5.5)" font-family="FreeSans" font-weight="normal" font-style="normal" font-size="10"><tspan y="-1" fill="rgb(38,38,38)" x="0 ">0</tspan></text>
<text xml:space="preserve" transform="translate(63.8755,96.58) rotate(-0,6,-5.5)" font-family="FreeSans" font-weight="normal" font-style="normal" font-size="10"><tspan y="-1" fill="rgb(38,38,38)" x="0 ">5</tspan></text>
<text xml:space="preserve" transform="translate(57.8755,37.9) rotate(-0,12,-5.5)" font-family="FreeSans" font-weight="normal" font-style="normal" font-size="10"><tspan y="-1" fill="rgb(38,38,38)" x="0 6 ">10</tspan></text>
<polyline fill="none" stroke="#262626" stroke-width="0.5" stroke-linecap="square" stroke-linejoin="miter" stroke-dasharray="16,0" points="74.8799,384.48 521.28,384.48"/>
<polyline fill="none" stroke="#262626" stroke-width="0.5" stroke-linecap="square" stroke-linejoin="miter" stroke-dasharray="16,0" points="74.8799,32.3999 521.28,32.3999"/>
<polyline fill="none" stroke="#262626" stroke-width="0.5" stroke-linecap="square" stroke-linejoin="miter" stroke-dasharray="16,0" points="74.8799,384.48 74.8799,32.3999"/>
<polyline fill="none" stroke="#262626" stroke-width="0.5" stroke-linecap="square" stroke-linejoin="miter" stroke-dasharray="16,0" points="521.28,384.48 521.28,32.3999"/>
<text xml:space="preserve" transform="translate(247.58,413.481) rotate(-0,50.5,-13)" font-family="FreeSans" font-weight="normal" font-style="normal" font-size="11"><tspan y="-2" fill="rgb(38,38,38)" x="0 8 14 23 29 33 39 42 48 54 57 59 62 68 72 78 84 90 96 ">Número de iterações</tspan></text>
<text xml:space="preserve" transform="translate(-0.124484,208.44) rotate(-90,51,0)" font-family="FreeSans" font-weight="normal" font-style="normal" font-size="11"><tspan y="-2" fill="rgb(38,38,38)" x="0 2 8 14 18 26 32 37 39 45 51 57 60 68 74 76 82 85 87 92 98 ">log(Resíduo Relativo)</tspan></text>
<text xml:space="preserve" transform="translate(279.08,22.4) rotate(-0,19,0)" font-family="FreeSans" font-weight="bold" font-style="normal" font-size="11"><tspan y="-2" fill="rgb(0,0,0)" x="0 6 12 18 25 32 ">662bus</tspan></text>
<polyline fill="none" stroke="#0071bc" stroke-width="0.5" stroke-linecap="butt" stroke-linejoin="round" points="75.438,111.646 75.9961,73.5405 76.5542,75.8408 77.1118,78.0713 77.6699,69.7065 78.228,76.1274 78.7861,70.4663 79.3438,75.626 79.9019,82.8296 80.46,75.5527 81.0181,74.5366 81.5762,74.0967 82.1338,78.374 82.6919,76.5317 83.25,76.291 83.8081,75.8613 84.3662,75.1484 84.9238,75.3066 85.4819,77.0464 86.04,78.6172 86.5981,79.9937 87.1562,81.0449 87.7139,78.709 88.272,84.9741 88.8301,83.1548 89.3882,79.4478 89.9458,79.4785 90.5039,81.9521 91.062,83.8555 91.6201,86.502 92.1782,80.3496 92.7358,84.9341 93.2939,83.9419 93.8521,85.4917 94.4102,85.2632 94.9678,84.4512 95.5259,81.3574 96.084,80.8799 96.6421,75.3994 97.2002,82.9312 97.7578,88.4053 98.3159,87.9771 98.874,86.0415 99.4321,86.9268 99.9902,86.6821 100.548,84.4648 101.106,86.1484 101.664,86.7808 102.222,89.5581 102.78,89.1279 103.338,88.813 103.896,85.5322 104.454,88.5498 105.012,88.23 105.57,82.4443 106.128,91.042 106.686,91.3286 107.244,92.5742 107.802,94.9102 108.36,90.0879 108.918,90.1343 109.476,90.0371 110.034,90.644 110.592,95.6162 111.15,93.8955 111.708,93.811 112.266,94.8706 112.824,95.1958 113.382,95.8335 113.94,87.6763 114.498,96.625 115.056,94.9863 115.614,98.5796 116.172,94.4033 116.73,99.2007 117.288,98.3066 117.846,95.6284 118.404,99.7847 118.962,99.519 119.52,99.6768 120.078,105.898 120.636,105.615 121.194,105.877 121.752,103.023 122.31,104.573 122.868,107.264 123.426,97.3945 123.984,107.79 124.542,107.246 125.1,106.639 125.658,106.935 126.216,103.04 126.774,105.579 127.332,106.732 127.89,101.52 128.448,107.571 129.006,107.115 129.564,106.805 130.122,105.161 130.68,106.459 131.238,106.167 131.796,107.23 132.354,97.2974 132.912,109.007 133.47,108.633 134.028,103.454 134.586,110.907 135.144,108.998 135.702,108.324 136.26,110.018 136.818,113.102 137.376,112.607 137.934,111.427 138.492,106.465 139.05,108.35 139.608,105.155 140.166,111.065 140.724,107.322 141.282,106.094 141.84,113.503 142.398,111.554 142.956,113.068 143.514,118.627 144.072,113.48 144.63,118.151 145.188,118.63 145.746,116.662 146.304,118.663 146.862,115.579 147.42,118.973 147.978,121.583 148.536,114.682 149.094,119.76 149.652,119.686 150.21,118.018 150.768,123.176 151.326,116.964 151.884,121.185 152.442,119.326 153,122.743 153.558,119.183 154.116,125.143 154.674,126.151 155.232,122.541 155.79,120.841 156.348,125.081 156.906,120.806 157.464,118.878 158.022,123.511 158.58,123.84 159.138,127.675 159.696,126.546 160.254,125.211 160.812,124.23 161.37,129.45 161.928,130.745 162.486,128.001 163.044,125.04 163.602,128.698 164.16,129.861 164.718,127.513 165.276,127.826 165.834,123.871 166.392,129.201 166.95,128.193 167.508,128.816 168.066,126.39 168.624,129.892 169.182,129.318 169.74,126.582 170.298,130.337 170.856,130.487 171.414,131.713 171.972,129.028 172.53,128 173.088,130.813 173.646,132.753 174.204,122.916 174.762,130.808 175.32,127.498 175.878,129.263 176.436,127.278 176.994,133.093 177.552,130.52 178.11,132.327 178.668,131.011 179.226,132.524 179.784,132.716 180.342,130.718 180.9,129.95 181.458,132.549 182.016,135.275 182.574,132.096 183.132,127.484 183.69,137.444 184.248,135.773 184.806,133.208 185.364,136.07 185.922,135.107 186.48,137.173 187.038,136.687 187.596,132.877 188.154,136.874 188.712,139.193 189.27,138.845 189.828,137.07 190.386,138.198 190.944,134.908 191.502,128.911 192.06,138.67 192.618,139.308 193.176,140.588 193.734,137.88 194.292,140.928 194.85,140.766 195.408,141.535 195.966,139.96 196.524,140.397 197.082,138.911 197.64,140.503 198.198,136.688 198.756,141.05 199.314,135.335 199.872,133.906 200.43,134.367 200.988,140.553 201.546,140.674 202.104,143.773 202.662,138.682 203.22,144.25 203.778,142.758 204.336,146.688 204.894,144.535 205.452,145.151 206.01,147.057 206.568,150.099 207.126,148.071 207.684,149.447 208.242,137.974 208.8,141.84 209.358,143.992 209.916,146.6 210.474,152.046 211.032,153.269 211.59,143.795 212.148,150.908 212.706,148.959 213.264,152.314 213.822,152.06 214.38,154.984 214.938,151.846 215.496,152.048 216.054,145.659 216.612,142.97 217.17,154.983 217.728,152.985 218.286,148.082 218.844,154.66 219.402,149.431 219.96,155.468 220.518,155.89 221.076,156.204 221.634,152.639 222.192,157.594 222.75,147.912 223.308,156.653 223.866,155.026 224.424,153.295 224.982,151.316 225.54,154.598 226.098,153.405 226.656,156.252 227.214,157.429 227.772,160.135 228.33,157.5 228.888,155.836 229.446,160.359 230.004,158.243 230.562,162.164 231.12,162.646 231.678,157.718 232.236,162.598 232.794,159.857 233.352,156.31 233.91,162.4 234.468,165.861 235.026,160.963 235.584,166.388 236.142,158.196 236.7,161.859 237.258,167.581 237.816,167.571 238.374,162.6 238.932,167.415 239.49,165.315 240.048,165.013 240.606,159.557 241.164,163.873 241.722,163.979 242.28,164.47 242.838,164.885 243.396,168.869 243.954,166.195 244.512,168.417 245.07,164.047 245.628,167.87 246.186,166.7 246.744,170.372 247.302,162.93 247.86,173.354 248.418,167.598 248.976,174.479 249.534,160.708 250.092,165.169 250.65,172.167 251.208,169.513 251.766,171.523 252.324,170.126 252.882,174.273 253.44,174.709 253.998,169.502 254.556,175.439 255.114,171.3 255.672,172.04 256.23,173.77 256.788,175.718 257.346,174.572 257.904,167.412 258.462,177.298 259.02,171.543 259.578,172.272 260.136,179.635 260.694,180.835 261.252,182.316 261.81,178.555 262.368,181.871 262.926,181.178 263.484,183.787 264.042,182.036 264.6,186.568 265.158,181.783 265.716,182.532 266.274,181.88 266.832,188.222 267.39,185.307 267.948,185.688 268.506,189.545 269.064,189.297 269.622,188.346 270.18,186.588 270.738,188.99 271.296,185.326 271.854,188.789 272.412,188.961 272.97,191.871 273.528,192.733 274.086,188.696 274.644,193.555 275.202,190.006 275.76,195.649 276.318,193.816 276.876,193.998 277.434,197.045 277.992,193.007 278.55,196.425 279.108,195.092 279.666,197.52 280.224,199.955 280.782,195.827 281.34,198.59 281.898,199.77 282.456,194.258 283.014,194.52 283.572,191.549 284.13,198.811 284.688,201.903 285.246,201.469 285.804,201.65 286.362,203.714 286.92,200.401 287.478,203.925 288.036,203.073 288.594,202.855 289.152,203.308 289.71,206.564 290.268,201.533 290.826,210.08 291.384,204.934 291.942,194.585 292.5,205.528 293.058,205.163 293.616,204.427 294.174,209.356 294.732,207.893 295.29,205.647 295.848,206.228 296.406,208.849 296.964,209.237 297.522,211.946 298.08,210.183 298.638,209.425 299.196,209.891 299.754,211.734 300.312,208.178 300.87,208.999 301.428,211.716 301.986,211.908 302.544,214.434 303.102,210.82 303.66,215.959 304.218,210.079 304.776,215.205 305.334,214.139 305.892,216.144 306.45,218.188 307.008,223.188 307.566,213.952 308.124,218.804 308.682,223.192 309.24,214.602 309.798,213.488 310.356,219.306 310.914,219.906 311.472,222.965 312.03,224.695 312.588,219.887 313.146,223.439 313.704,222.783 314.262,225.389 314.82,223.786 315.378,222.32 315.936,225.681 316.494,225.497 317.052,221.896 317.61,223.293 318.168,228.886 318.726,229.439 319.284,222.045 319.842,228.57 320.4,228.198 320.958,227.219 321.516,228.488 322.074,231.575 322.632,231.016 323.19,232.138 323.748,232.418 324.306,233.129 324.864,231.664 325.422,228.655 325.98,228.024 326.538,233.224 327.096,230.349 327.654,233.284 328.212,234.731 328.77,237.433 329.328,231.408 329.886,232.92 330.444,236.258 331.002,235.479 331.56,232.854 332.118,235.377 332.676,236.796 333.234,237.945 333.792,237.62 334.35,230.316 334.908,241.565 335.466,236.102 336.024,242.705 336.582,237.355 337.14,240.861 337.698,241.301 338.256,240.64 338.814,239.379 339.372,240.037 339.93,242.083 340.488,246.506 341.046,246.992 341.604,241.349 342.162,238.198 342.72,240.346 343.278,246.246 343.836,244.153 344.394,240.138 344.952,246.143 345.51,249.946 346.068,248.57 346.626,250.219 347.184,247.056 347.742,247.771 348.3,248.325 348.858,252.444 349.416,248.277 349.974,247.364 350.532,244.949 351.09,252.321 351.648,250.086 352.206,255.148 352.764,250.588 353.322,256.245 353.88,255.314 354.438,256.953 354.996,251.273 355.554,259.167 356.112,252.52 356.67,253.53 357.228,261.198 357.786,258.408 358.344,259.891 358.902,254.787 359.46,263.697 360.018,260.647 360.576,262.942 361.134,265.341 361.692,264.688 362.25,266.555 362.808,261.805 363.366,266.894 363.924,265.316 364.482,268.741 365.04,267.907 365.598,268.901 366.156,262.189 366.714,265.152 367.272,266.279 367.83,265.048 368.388,269.46 368.946,269.023 369.504,267.812 370.062,271.498 370.62,274.273 371.178,266.412 371.736,273.19 372.294,274.104 372.852,270.755 373.41,270.069 373.968,272.62 374.526,275.165 375.084,269.855 375.642,275.524 376.2,273.815 376.758,278.803 377.316,273.685 377.874,278.286 378.432,275.421 378.99,282.62 379.548,279.232 380.106,278.896 380.664,280.135 381.222,279.164 381.78,286.763 382.338,278.915 382.896,274.318 383.454,280.128 384.012,286.211 384.57,280.878 385.128,285.898 385.686,283.582 386.244,287.357 386.802,276.582 387.36,286.494 387.918,287.746 388.476,286.181 389.034,283.98 389.592,288.224 390.15,281.955 390.708,282.979 391.266,280.781 391.824,287.991 392.382,287.694 392.94,290.904 393.498,288.767 394.056,289.441 394.614,291.808 395.172,286.94 395.73,295.551 396.288,293.746 396.846,294.849 397.404,297.263 397.962,293.425 398.52,295.477 399.078,292.92 399.636,294.255 400.194,296 400.752,294.432 401.31,301.115 401.868,296.566 402.426,294.793 402.984,299.247 403.542,297.765 404.1,297.237 404.658,298.855 405.216,302.493 405.774,298.902 406.332,300.911 406.89,298.893 407.448,297.118 408.006,301.841 408.564,298.771 409.122,303.691 409.68,305.932 410.238,305.082 410.796,302.312 411.354,307.99 411.912,305.367 412.47,307.86 413.028,310.062 413.586,304.26 414.144,305.961 414.702,304.608 415.26,302.437 415.818,307.121 416.376,305.079 416.934,308.296 417.492,308.073 418.05,311.603 418.608,313.319 419.166,310.902 419.724,309.644 420.282,314.297 420.84,312.94 421.398,310.204 421.956,316.219 422.514,313.733 423.072,314.007 423.63,313.349 424.188,310.907 424.746,318.873 425.304,313.105 425.862,315.383 426.42,319.804 426.978,317.595 427.536,321.398 428.094,314.792 428.652,318.894 429.21,319.333 429.768,325.326 430.326,321.671 430.884,321.885 431.442,318.958 432,311.9 432.558,325.132 433.116,321.383 433.674,326.802 434.232,323.776 434.79,323.938 435.348,322.955 435.906,327.125 436.464,328.109 437.022,324.77 437.58,326.276 438.138,331.751 438.696,326.092 439.254,329.119 439.812,320.377 440.37,326.309 440.928,326.823 441.486,325.502 442.044,328.506 442.602,327.398 443.16,333.096 443.718,325.132 444.276,333.165 444.834,330.118 445.392,328.091 445.95,329.342 446.508,334.987 447.066,331.262 447.624,331.46 448.182,325.04 448.74,330.973 449.298,337.348 449.856,334.875 450.414,330.944 450.972,334.208 451.53,334.552 452.088,338.183 452.646,334.312 453.204,328.587 453.762,337.316 454.32,339.021 454.878,334.402 455.436,335.397 455.994,342.951 456.552,333.349 457.11,335.446 457.668,340.792 458.226,340.466 458.784,338.361 459.342,341.338 459.9,341.793 460.458,344.314 461.016,343.712 461.574,337.925 462.132,346.758 462.69,346.831 463.248,344.021 463.806,339.356 464.364,345.631 464.922,341.915 465.48,349.899 466.038,347.508 466.596,345.833 467.154,344.534 467.712,352.719 468.27,345.522 468.828,351.938 469.386,352.586 469.944,350.373 470.502,349.994 471.06,355.708 471.618,353.735 472.176,351.821 472.734,346.517 473.292,354.262 473.85,359.073 474.408,357.647 474.966,354.381 475.524,358.993 476.082,360.458 476.64,361.493 477.198,357.72 477.756,357.526 478.314,363.712 478.872,360.78 479.43,359.178 479.988,360.751 480.546,361.333 481.104,355.406 481.662,364.429 482.22,367.18 482.778,361.23 483.336,362.873 483.894,366.022 484.452,362.83 485.01,364.307 485.568,365.055 486.126,366.601 486.684,366.802 487.242,363.712 487.8,365.681 488.358,368.362 488.916,359.817 489.474,360.27 490.032,362.521 490.59,372.535 491.148,369.419 491.706,371.284 492.264,372.725 492.822,371.95 493.38,376.373 493.938,374.054 494.496,378.504 495.054,376.861 495.612,376.152 496.17,373.965 496.728,375.359 497.286,377.067 497.844,376.874 498.402,382.745"/>
</g>
</g>
</svg>
