<?xml version="1.0" encoding="UTF-8" standalone="no"?>
<svg xmlns="http://www.w3.org/2000/svg"
     xmlns:xlink="http://www.w3.org/1999/xlink"
     width="576pt" height="432pt" viewBox="0 0 576 432">
<title>gl2ps_renderer figure</title>
<desc>
Creator: GL2PS 1.4.0, (C) 1999-2017 C. Geuzaine
For: Octave
CreationDate: Thu May 26 09:25:45 2022
</desc>
<defs>
</defs>
<polygon fill="#ffffff" points="0,0 576,0 576,432 0,432"/>
<g>
<polygon fill="#ffffff" points="0,432 576,432 576,0 0,0" shape-rendering="crispEdges"/>
<clipPath id="cp00576432">
  <polygon points="0,432 576,432 576,0 0,0"/>
</clipPath>
<g clip-path="url(#cp00576432)">
<polygon fill="#ffffff" shape-rendering="crispEdges" points="74.8799,384.48 521.28,384.48 521.28,32.3999"/>
<polygon fill="#ffffff" shape-rendering="crispEdges" points="74.8799,384.48 521.28,32.3999 74.8799,32.3999"/>
<polyline fill="none" stroke="#262626" stroke-width="0.5" stroke-linecap="butt" stroke-linejoin="miter" points="74.8799,384.48 74.8799,380.015"/>
<polyline fill="none" stroke="#262626" stroke-width="0.5" stroke-linecap="butt" stroke-linejoin="miter" points="74.8799,32.3999 74.8799,36.8652"/>
<polyline fill="none" stroke="#262626" stroke-width="0.5" stroke-linecap="butt" stroke-linejoin="miter" points="149.28,384.48 149.28,380.015"/>
<polyline fill="none" stroke="#262626" stroke-width="0.5" stroke-linecap="butt" stroke-linejoin="miter" points="149.28,32.3999 149.28,36.8652"/>
<polyline fill="none" stroke="#262626" stroke-width="0.5" stroke-linecap="butt" stroke-linejoin="miter" points="223.68,384.48 223.68,380.015"/>
<polyline fill="none" stroke="#262626" stroke-width="0.5" stroke-linecap="butt" stroke-linejoin="miter" points="223.68,32.3999 223.68,36.8652"/>
<polyline fill="none" stroke="#262626" stroke-width="0.5" stroke-linecap="butt" stroke-linejoin="miter" points="298.08,384.48 298.08,380.015"/>
<polyline fill="none" stroke="#262626" stroke-width="0.5" stroke-linecap="butt" stroke-linejoin="miter" points="298.08,32.3999 298.08,36.8652"/>
<polyline fill="none" stroke="#262626" stroke-width="0.5" stroke-linecap="butt" stroke-linejoin="miter" points="372.48,384.48 372.48,380.015"/>
<polyline fill="none" stroke="#262626" stroke-width="0.5" stroke-linecap="butt" stroke-linejoin="miter" points="372.48,32.3999 372.48,36.8652"/>
<polyline fill="none" stroke="#262626" stroke-width="0.5" stroke-linecap="butt" stroke-linejoin="miter" points="446.88,384.48 446.88,380.015"/>
<polyline fill="none" stroke="#262626" stroke-width="0.5" stroke-linecap="butt" stroke-linejoin="miter" points="446.88,32.3999 446.88,36.8652"/>
<polyline fill="none" stroke="#262626" stroke-width="0.5" stroke-linecap="butt" stroke-linejoin="miter" points="521.28,384.48 521.28,380.015"/>
<polyline fill="none" stroke="#262626" stroke-width="0.5" stroke-linecap="butt" stroke-linejoin="miter" points="521.28,32.3999 521.28,36.8652"/>
<text xml:space="preserve" transform="translate(71.88,400.481) rotate(-0,3,-11)" font-family="FreeSans" font-weight="normal" font-style="normal" font-size="10"><tspan y="-1" fill="rgb(38,38,38)" x="0 ">0</tspan></text>
<text xml:space="preserve" transform="translate(140.28,400.481) rotate(-0,9,-11)" font-family="FreeSans" font-weight="normal" font-style="normal" font-size="10"><tspan y="-1" fill="rgb(38,38,38)" x="0 6 12 ">200</tspan></text>
<text xml:space="preserve" transform="translate(214.68,400.481) rotate(-0,9,-11)" font-family="FreeSans" font-weight="normal" font-style="normal" font-size="10"><tspan y="-1" fill="rgb(38,38,38)" x="0 6 12 ">400</tspan></text>
<text xml:space="preserve" transform="translate(289.08,400.481) rotate(-0,9,-11)" font-family="FreeSans" font-weight="normal" font-style="normal" font-size="10"><tspan y="-1" fill="rgb(38,38,38)" x="0 6 12 ">600</tspan></text>
<text xml:space="preserve" transform="translate(363.48,400.481) rotate(-0,9,-11)" font-family="FreeSans" font-weight="normal" font-style="normal" font-size="10"><tspan y="-1" fill="rgb(38,38,38)" x="0 6 12 ">800</tspan></text>
<text xml:space="preserve" transform="translate(434.88,400.481) rotate(-0,12,-11)" font-family="FreeSans" font-weight="normal" font-style="normal" font-size="10"><tspan y="-1" fill="rgb(38,38,38)" x="0 6 12 18 ">1000</tspan></text>
<text xml:space="preserve" transform="translate(509.28,400.481) rotate(-0,12,-11)" font-family="FreeSans" font-weight="normal" font-style="normal" font-size="10"><tspan y="-1" fill="rgb(38,38,38)" x="0 6 12 18 ">1200</tspan></text>
<polyline fill="none" stroke="#262626" stroke-width="0.5" stroke-linecap="butt" stroke-linejoin="miter" points="74.8799,384.48 79.3481,384.48"/>
<polyline fill="none" stroke="#262626" stroke-width="0.5" stroke-linecap="butt" stroke-linejoin="miter" points="521.28,384.48 516.812,384.48"/>
<polyline fill="none" stroke="#262626" stroke-width="0.5" stroke-linecap="butt" stroke-linejoin="miter" points="74.8799,325.8 79.3481,325.8"/>
<polyline fill="none" stroke="#262626" stroke-width="0.5" stroke-linecap="butt" stroke-linejoin="miter" points="521.28,325.8 516.812,325.8"/>
<polyline fill="none" stroke="#262626" stroke-width="0.5" stroke-linecap="butt" stroke-linejoin="miter" points="74.8799,267.12 79.3481,267.12"/>
<polyline fill="none" stroke="#262626" stroke-width="0.5" stroke-linecap="butt" stroke-linejoin="miter" points="521.28,267.12 516.812,267.12"/>
<polyline fill="none" stroke="#262626" stroke-width="0.5" stroke-linecap="butt" stroke-linejoin="miter" points="74.8799,208.44 79.3481,208.44"/>
<polyline fill="none" stroke="#262626" stroke-width="0.5" stroke-linecap="butt" stroke-linejoin="miter" points="521.28,208.44 516.812,208.44"/>
<polyline fill="none" stroke="#262626" stroke-width="0.5" stroke-linecap="butt" stroke-linejoin="miter" points="74.8799,149.76 79.3481,149.76"/>
<polyline fill="none" stroke="#262626" stroke-width="0.5" stroke-linecap="butt" stroke-linejoin="miter" points="521.28,149.76 516.812,149.76"/>
<polyline fill="none" stroke="#262626" stroke-width="0.5" stroke-linecap="butt" stroke-linejoin="miter" points="74.8799,91.0801 79.3481,91.0801"/>
<polyline fill="none" stroke="#262626" stroke-width="0.5" stroke-linecap="butt" stroke-linejoin="miter" points="521.28,91.0801 516.812,91.0801"/>
<polyline fill="none" stroke="#262626" stroke-width="0.5" stroke-linecap="butt" stroke-linejoin="miter" points="74.8799,32.3999 79.3481,32.3999"/>
<polyline fill="none" stroke="#262626" stroke-width="0.5" stroke-linecap="butt" stroke-linejoin="miter" points="521.28,32.3999 516.812,32.3999"/>
<text xml:space="preserve" transform="translate(63.8755,389.98) rotate(-0,6,-5.5)" font-family="FreeSans" font-weight="normal" font-style="normal" font-size="10"><tspan y="-1" fill="rgb(38,38,38)" x="0 ">5</tspan></text>
<text xml:space="preserve" transform="translate(54.8755,331.3) rotate(-0,15,-5.5)" font-family="FreeSans" font-weight="normal" font-style="normal" font-size="10"><tspan y="-1" fill="rgb(38,38,38)" x="0 6 9 ">5.5</tspan></text>
<text xml:space="preserve" transform="translate(63.8755,272.62) rotate(-0,6,-5.5)" font-family="FreeSans" font-weight="normal" font-style="normal" font-size="10"><tspan y="-1" fill="rgb(38,38,38)" x="0 ">6</tspan></text>
<text xml:space="preserve" transform="translate(54.8755,213.94) rotate(-0,15,-5.5)" font-family="FreeSans" font-weight="normal" font-style="normal" font-size="10"><tspan y="-1" fill="rgb(38,38,38)" x="0 6 9 ">6.5</tspan></text>
<text xml:space="preserve" transform="translate(63.8755,155.26) rotate(-0,6,-5.5)" font-family="FreeSans" font-weight="normal" font-style="normal" font-size="10"><tspan y="-1" fill="rgb(38,38,38)" x="0 ">7</tspan></text>
<text xml:space="preserve" transform="translate(54.8755,96.58) rotate(-0,15,-5.5)" font-family="FreeSans" font-weight="normal" font-style="normal" font-size="10"><tspan y="-1" fill="rgb(38,38,38)" x="0 6 9 ">7.5</tspan></text>
<text xml:space="preserve" transform="translate(63.8755,37.9) rotate(-0,6,-5.5)" font-family="FreeSans" font-weight="normal" font-style="normal" font-size="10"><tspan y="-1" fill="rgb(38,38,38)" x="0 ">8</tspan></text>
<polyline fill="none" stroke="#262626" stroke-width="0.5" stroke-linecap="square" stroke-linejoin="miter" stroke-dasharray="16,0" points="74.8799,384.48 521.28,384.48"/>
<polyline fill="none" stroke="#262626" stroke-width="0.5" stroke-linecap="square" stroke-linejoin="miter" stroke-dasharray="16,0" points="74.8799,32.3999 521.28,32.3999"/>
<polyline fill="none" stroke="#262626" stroke-width="0.5" stroke-linecap="square" stroke-linejoin="miter" stroke-dasharray="16,0" points="74.8799,384.48 74.8799,32.3999"/>
<polyline fill="none" stroke="#262626" stroke-width="0.5" stroke-linecap="square" stroke-linejoin="miter" stroke-dasharray="16,0" points="521.28,384.48 521.28,32.3999"/>
<text xml:space="preserve" transform="translate(247.58,413.481) rotate(-0,50.5,-13)" font-family="FreeSans" font-weight="normal" font-style="normal" font-size="11"><tspan y="-2" fill="rgb(38,38,38)" x="0 8 14 23 29 33 39 42 48 54 57 59 62 68 72 78 84 90 96 ">Número de iterações</tspan></text>
<text xml:space="preserve" transform="translate(-0.124484,208.44) rotate(-90,51,0)" font-family="FreeSans" font-weight="normal" font-style="normal" font-size="11"><tspan y="-2" fill="rgb(38,38,38)" x="0 2 8 14 18 26 32 37 39 45 51 57 60 68 74 76 82 85 87 92 98 ">log(Resíduo Relativo)</tspan></text>
<text xml:space="preserve" transform="translate(274.58,22.4) rotate(-0,23.5,0)" font-family="FreeSans" font-weight="bold" font-style="normal" font-size="11"><tspan y="-2" fill="rgb(0,0,0)" x="0 7 13 19 25 29 35 41 ">bcsstk36</tspan></text>
<polyline fill="none" stroke="#0071bc" stroke-width="0.5" stroke-linecap="butt" stroke-linejoin="round" points="75.252,381.81 75.624,156.496 75.9961,115.708 76.3682,119.611 76.7402,78.3853 77.1118,125.489 77.4839,97.7236 77.856,123.198 78.228,107.794 78.6001,117.795 78.9722,116.419 79.3438,104.059 79.7158,134.536 80.0879,87.8584 80.46,141.804 80.832,110.192 81.2041,140.458 81.5762,105.351 81.9482,114.118 82.3198,134.305 82.6919,83.2842 83.064,137.489 83.436,112.037 83.8081,119.844 84.1802,112.084 84.5518,113.2 84.9238,136.66 85.2959,126.58 85.668,98.75 86.04,120.128 86.4121,115.873 86.7842,131.78 87.1562,118.64 87.5278,98.9048 87.8999,133.684 88.272,121.806 88.644,119.408 89.0161,132.071 89.3882,133.907 89.7598,134.898 90.1318,114.162 90.5039,125.061 90.876,133.85 91.248,137.779 91.6201,126.778 91.9922,143.917 92.3638,139.225 92.7358,95.231 93.1079,110.594 93.48,125.9 93.8521,130.932 94.2241,80.019 94.5962,127.146 94.9678,124.197 95.3398,122.296 95.7119,102.235 96.084,103.143 96.4561,113.746 96.8281,86.7173 97.2002,114.114 97.5718,134.373 97.9438,134.941 98.3159,123.328 98.688,79.7017 99.0601,121.699 99.4321,121.17 99.8042,99.9976 100.176,106.092 100.548,127.57 100.92,107.658 101.292,90.6099 101.664,108.007 102.036,126.011 102.408,77.4004 102.78,104.441 103.152,127.769 103.524,117.752 103.896,86.252 104.268,97.7793 104.64,81.0654 105.012,97.3799 105.384,114.444 105.756,79.4009 106.128,86.0229 106.5,67.0405 106.872,117.925 107.244,110.875 107.616,83.7676 107.988,102.961 108.36,103.41 108.732,72.5298 109.104,104.611 109.476,120.722 109.848,82.2666 110.22,101.937 110.592,61.2461 110.964,106.828 111.336,118.15 111.708,76.98 112.08,123.644 112.452,113.673 112.824,100.833 113.196,70.5923 113.568,107.204 113.94,77.2798 114.312,118.141 114.684,118.3 115.056,124.236 115.428,117.03 115.8,92.3599 116.172,63.7222 116.544,122.966 116.916,103.511 117.288,69.9497 117.66,119.614 118.032,92.2271 118.404,98.1201 118.776,115 119.148,74.6714 119.52,87.958 119.892,96.5771 120.264,114.96 120.636,76.9194 121.008,102.827 121.38,123.121 121.752,122.759 122.124,39.5845 122.496,125.374 122.868,68.8711 123.24,94.043 123.612,92.9243 123.984,110.414 124.356,46.0586 124.728,112.594 125.1,118.312 125.472,73.8696 125.844,109.144 126.216,117.994 126.588,83.1562 126.96,99.0747 127.332,94.6201 127.704,108.546 128.076,97.4717 128.448,64.0518 128.82,117.215 129.192,81.5073 129.564,99.4443 129.936,109.024 130.308,91.6968 130.68,55.1562 131.052,104.621 131.424,68.6006 131.796,110.497 132.168,109.524 132.54,68.6245 132.912,108.471 133.284,50.7632 133.656,107.384 134.028,106.768 134.4,57.6421 134.772,116.043 135.144,103.042 135.516,51.1255 135.888,86.9277 136.26,99.3247 136.632,69.2734 137.004,95.9082 137.376,59.7798 137.748,92.2617 138.12,65.8574 138.492,87.6602 138.864,103.351 139.236,116.075 139.608,67.3467 139.98,97.1353 140.352,117.687 140.724,110.656 141.096,92.6011 141.468,112.404 141.84,55.0195 142.212,101.98 142.584,110.916 142.956,88.9375 143.328,97.2842 143.7,61.9604 144.072,108.817 144.444,98.3809 144.816,65.9019 145.188,77.832 145.56,113.833 145.932,78.2529 146.304,105.154 146.676,113.849 147.048,101.093 147.42,76.3979 147.792,72.8052 148.164,73.8486 148.536,91.8018 148.908,110.137 149.28,90.333 149.652,67.5718 150.024,82.1523 150.396,95.8232 150.768,54.3687 151.14,88.1343 151.512,78.9619 151.884,82.8701 152.256,76.7261 152.628,106.277 153,102.937 153.372,87.0352 153.744,85.7168 154.116,89.6294 154.488,106.494 154.86,51.9409 155.232,110.806 155.604,67.6499 155.976,98.5645 156.348,94.8916 156.72,74.2422 157.092,76.8223 157.464,95.105 157.836,70.3267 158.208,116.68 158.58,104.762 158.952,90.23 159.324,103.19 159.696,67.4946 160.068,99.1196 160.44,56.2061 160.812,103.231 161.184,95.7451 161.556,73.0073 161.928,96.5352 162.3,116.633 162.672,38.8594 163.044,111.736 163.416,84.4014 163.788,115.085 164.16,111.319 164.532,54.8271 164.904,95.5024 165.276,113.726 165.648,104.216 166.02,105.018 166.392,122.609 166.764,93.1372 167.136,88.0293 167.508,115.737 167.88,64.6924 168.252,90.8813 168.624,90.5137 168.996,124.678 169.368,52.1382 169.74,103.809 170.112,100.786 170.484,98.2842 170.856,90.8745 171.228,120.458 171.6,66.8867 171.972,112.505 172.344,84.8745 172.716,98.4243 173.088,91.6934 173.46,110.497 173.832,52.272 174.204,115.617 174.576,107.043 174.948,66.022 175.32,84.939 175.692,114.551 176.064,71.7119 176.436,116.146 176.808,103.307 177.18,56.8779 177.552,115.948 177.924,83.2168 178.296,99.4028 178.668,61.9219 179.04,110.939 179.412,101.625 179.784,89.9878 180.156,128.332 180.528,110.648 180.9,103.995 181.272,129.958 181.644,98.6006 182.016,83.5591 182.388,89.7964 182.76,92.3291 183.132,119.585 183.504,115.055 183.876,115.349 184.248,128.141 184.62,64.2466 184.992,120.123 185.364,125.206 185.736,100.539 186.108,92.8647 186.48,134.229 186.852,129.324 187.224,50.1763 187.596,129.522 187.968,111.776 188.34,101.864 188.712,76.1025 189.084,112.313 189.456,97.6641 189.828,109.623 190.2,126.985 190.572,86.3848 190.944,98.9268 191.316,121.164 191.688,70.0391 192.06,128.862 192.432,116.556 192.804,107.593 193.176,76.1953 193.548,133.386 193.92,139.415 194.292,113.925 194.664,99.4453 195.036,87.9395 195.408,100.553 195.78,128.919 196.152,118.33 196.524,128.263 196.896,79.7891 197.268,132.923 197.64,135.493 198.012,114.534 198.384,128.081 198.756,93.1582 199.128,128.279 199.5,130.447 199.872,95.4629 200.244,113.824 200.616,70.7686 200.988,134.545 201.36,120.673 201.732,90.5562 202.104,99.6543 202.476,141.527 202.848,133.345 203.22,72.2637 203.592,127.287 203.964,132.02 204.336,108.276 204.708,98.4277 205.08,80.0498 205.452,122.7 205.824,119.758 206.196,123.711 206.568,80.4058 206.94,117.146 207.312,89.0459 207.684,116.555 208.056,136.908 208.428,65.0913 208.8,141.312 209.172,126.814 209.544,110.753 209.916,79.1753 210.288,135.524 210.66,143.802 211.032,117.726 211.404,125.902 211.776,117.403 212.148,106.873 212.52,137.099 212.892,134.285 213.264,77.4985 213.636,113.128 214.008,111.094 214.38,105.287 214.752,107.4 215.124,118.465 215.496,143.783 215.868,137.698 216.24,119.271 216.612,102.368 216.984,130.142 217.356,98.5264 217.728,110.143 218.1,100.688 218.472,85.2642 218.844,130.685 219.216,105.364 219.588,109.824 219.96,140.138 220.332,84.2866 220.704,116.013 221.076,91.6729 221.448,130.686 221.82,136.304 222.192,118.17 222.564,101.458 222.936,96.2656 223.308,102.304 223.68,123.599 224.052,123.664 224.424,118.722 224.796,115.012 225.168,98.3281 225.54,133.06 225.912,134.166 226.284,105.678 226.656,96.5503 227.028,116.427 227.4,79.8301 227.772,121.446 228.144,125.962 228.516,133.909 228.888,123.383 229.26,111.158 229.632,109.641 230.004,114.303 230.376,133.372 230.748,101.88 231.12,105.329 231.492,128.692 231.864,84.3945 232.236,122.798 232.608,104.04 232.98,94.6973 233.352,123.657 233.724,135.199 234.096,136.945 234.468,83.0029 234.84,132.371 235.212,70.9312 235.584,143.373 235.956,134.102 236.328,112.595 236.7,98.1504 237.072,92.7012 237.444,123.349 237.816,114.13 238.188,96.5449 238.56,120.641 238.932,136.922 239.304,117.806 239.676,103.715 240.048,92.2373 240.42,98.6128 240.792,122.44 241.164,146.867 241.536,148.239 241.908,93.1919 242.28,103.55 242.652,111.945 243.024,105.969 243.396,118.088 243.768,130.234 244.14,67.6504 244.512,133.073 244.884,65.5439 245.256,138.527 245.628,131.499 246,90.7495 246.372,99.7104 246.744,96.9531 247.116,114.58 247.488,133.097 247.86,127.81 248.232,124.208 248.604,135.758 248.976,145.731 249.348,91.0093 249.72,129.195 250.092,115.062 250.464,131.49 250.836,85.5781 251.208,125.019 251.58,133.693 251.952,94.7041 252.324,118.593 252.696,82.7891 253.068,128.383 253.44,76.5332 253.812,131.937 254.184,126.655 254.556,117.308 254.928,87.3125 255.3,124.305 255.672,139.552 256.044,96.7661 256.416,131.194 256.788,108.371 257.16,117.569 257.532,109.045 257.904,139.062 258.276,148.248 258.648,93.7461 259.02,115.424 259.392,98.4702 259.764,111.932 260.136,116.634 260.508,87.2129 260.88,121.12 261.252,132.252 261.624,91.6558 261.996,115.942 262.368,86.6064 262.74,130.674 263.112,121.735 263.484,121.689 263.856,128.474 264.228,141.416 264.6,82.2627 264.972,146.101 265.344,71.4614 265.716,139.312 266.088,142.811 266.46,65.2949 266.832,135.236 267.204,113.509 267.576,90.6025 267.948,129.741 268.32,86.3906 268.692,130.386 269.064,118.803 269.436,85.1294 269.808,115.347 270.18,110.539 270.552,77.1299 270.924,134.38 271.296,123.352 271.668,115.798 272.04,74.7119 272.412,126.797 272.784,109.11 273.156,78.7144 273.528,124.427 273.9,118.548 274.272,124.161 274.644,134.82 275.016,126.964 275.388,94.7983 275.76,121.711 276.132,136.91 276.504,108.48 276.876,98.2021 277.248,101.003 277.62,111.678 277.992,113.527 278.364,101.171 278.736,98.5479 279.108,121.815 279.48,91.7617 279.852,136.511 280.224,146.138 280.596,131.644 280.968,105.778 281.34,95.5845 281.712,112.216 282.084,105.066 282.456,114.066 282.828,98.7207 283.2,127.824 283.572,113.591 283.944,90.6284 284.316,107.785 284.688,118.758 285.06,108.607 285.432,136.611 285.804,72.7788 286.176,123.783 286.548,93.8179 286.92,112.616 287.292,125.875 287.664,141.882 288.036,69.4062 288.408,147.829 288.78,131.53 289.152,78.5308 289.524,126.489 289.896,116.917 290.268,127.669 290.64,115.718 291.012,96.1841 291.384,125.747 291.756,74.8213 292.128,105.572 292.5,135.842 292.872,146.044 293.244,142.054 293.616,99.4854 293.988,99.4077 294.36,113.377 294.732,76.2446 295.104,127.199 295.476,118.379 295.848,127.942 296.22,119.88 296.592,72.9912 296.964,137.684 297.336,96.4751 297.708,115.509 298.08,105.156 298.452,115.039 298.824,129.5 299.196,79.334 299.568,106.612 299.94,110.245 300.312,109.094 300.684,128.911 301.056,72.8789 301.428,137.333 301.8,116.967 302.172,134.935 302.544,134.069 302.916,124.502 303.288,93.8252 303.66,115.005 304.032,97.0566 304.404,108.113 304.776,126.464 305.148,66.0742 305.52,147.738 305.892,140.769 306.264,99.6509 306.636,100.773 307.008,113.941 307.38,103.659 307.752,126.74 308.124,72.5415 308.496,126.871 308.868,104.818 309.24,124.038 309.612,143.575 309.984,137.021 310.356,150.098 310.728,110.483 311.1,117.335 311.472,120.376 311.844,127.493 312.216,81.729 312.588,124.429 312.96,120.77 313.332,96.6479 313.704,126.422 314.076,120.928 314.448,125.76 314.82,140.757 315.192,103.267 315.564,129.635 315.936,141.214 316.308,128.442 316.68,86.502 317.052,134.652 317.424,128.958 317.796,83.2876 318.168,120.757 318.54,141.334 318.912,142.668 319.284,96.752 319.656,120.795 320.028,111.301 320.4,137.311 320.772,106.649 321.144,104.237 321.516,132.833 321.888,137.738 322.26,109.016 322.632,135.549 323.004,149.263 323.376,114.515 323.748,146.375 324.12,80.6138 324.492,138.844 324.864,118.578 325.236,128.655 325.608,150.175 325.98,74.4019 326.352,135.663 326.724,100.399 327.096,130.219 327.468,150.109 327.84,100.408 328.212,146.934 328.584,118.881 328.956,153.548 329.328,79.7007 329.7,134.169 330.072,115.521 330.444,123.044 330.816,111.501 331.188,110.474 331.56,132.299 331.932,145.435 332.304,74.8999 332.676,141.131 333.048,95.9717 333.42,115.95 333.792,138.723 334.164,145.971 334.536,109.893 334.908,115.673 335.28,121.453 335.652,159.217 336.024,146.312 336.396,125.788 336.768,101.474 337.14,136.962 337.512,85.5825 337.884,147.382 338.256,145.365 338.628,161.742 339,119.551 339.372,117.741 339.744,125.858 340.116,151.185 340.488,87.9141 340.86,128.127 341.232,141.247 341.604,105.422 341.976,153.329 342.348,104.738 342.72,118.243 343.092,148.711 343.464,76.6606 343.836,158.673 344.208,132.776 344.58,110.165 344.952,110.052 345.324,111.938 345.696,141.502 346.068,147.272 346.44,109.911 346.812,141.664 347.184,119.625 347.556,109.734 347.928,133.69 348.3,140.945 348.672,114.832 349.044,119.268 349.416,130.508 349.788,129.357 350.16,162.792 350.532,145.006 350.904,136.164 351.276,101.354 351.648,132.598 352.02,127.674 352.392,128.138 352.764,144.905 353.136,98.8242 353.508,132.604 353.88,136.252 354.252,96.2432 354.624,137.373 354.996,149.498 355.368,120.145 355.74,120.265 356.112,131.75 356.484,144.142 356.856,112.193 357.228,129.768 357.6,152.694 357.972,138.839 358.344,101.448 358.716,134.175 359.088,150.438 359.46,120.557 359.832,119.034 360.204,149.737 360.576,136.67 360.948,116.737 361.32,129.275 361.692,145.627 362.064,159.802 362.436,141.834 362.808,135.896 363.18,113.94 363.552,127.891 363.924,112.813 364.296,135.169 364.668,159.844 365.04,93.8965 365.412,130.997 365.784,138.431 366.156,104.907 366.528,147.559 366.9,125.5 367.272,147.401 367.644,101.37 368.016,118.438 368.388,127.264 368.76,150.635 369.132,142.864 369.504,111.79 369.876,106.687 370.248,135.478 370.62,115.854 370.992,147.224 371.364,95.6089 371.736,145.837 372.108,102.283 372.48,123.225 372.852,121.205 373.224,147.048 373.596,98.5605 373.968,143.317 374.34,153.886 374.712,162.084 375.084,141.881 375.456,114.325 375.828,146.246 376.2,159.537 376.572,159.42 376.944,155.89 377.316,150.126 377.688,106.52 378.06,114.459 378.432,140.005 378.804,116.284 379.176,163.313 379.548,96.8545 379.92,139.759 380.292,106.389 380.664,139.944 381.036,158.207 381.408,93.0137 381.78,153.58 382.152,145.585 382.524,110.655 382.896,139.648 383.268,147.41 383.64,125.59 384.012,103.689 384.384,117.734 384.756,124.545 385.128,129.345 385.5,97.1807 385.872,145.483 386.244,142.542 386.616,138.969 386.988,141.197 387.36,86.1714 387.732,160.266 388.104,120.195 388.476,138.123 388.848,85.8438 389.22,149.711 389.592,129.606 389.964,149.126 390.336,120.657 390.708,127.722 391.08,111.093 391.452,106.365 391.824,137.177 392.196,142.934 392.568,150.074 392.94,119.408 393.312,113.242 393.684,127.928 394.056,117.224 394.428,141.612 394.8,147.692 395.172,133.017 395.544,106.591 395.916,130.951 396.288,141.329 396.66,135.863 397.032,120.691 397.404,101.477 397.776,147.156 398.148,96.9385 398.52,113.831 398.892,117.791 399.264,146.123 399.636,128.948 400.008,139.172 400.38,103.119 400.752,150.4 401.124,149.521 401.496,117.896 401.868,117.461 402.24,137.388 402.612,149.572 402.984,139.322 403.356,79.5342 403.728,151.573 404.1,136.079 404.472,104.665 404.844,124.79 405.216,125.834 405.588,117.236 405.96,139.08 406.332,131.286 406.704,87.9834 407.076,146.742 407.448,83.7266 407.82,135.807 408.192,115.459 408.564,157.009 408.936,144.456 409.308,137.836 409.68,139.816 410.052,153.043 410.424,114.337 410.796,133.058 411.168,124.701 411.54,125.069 411.912,154.443 412.284,102.702 412.656,140.913 413.028,126.78 413.4,119.617 413.772,152.713 414.144,128.286 414.516,110.682 414.888,152.329 415.26,144.997 415.632,94.8726 416.004,140.598 416.376,98.062 416.748,131.967 417.12,132.659 417.492,144.471 417.864,109.198 418.236,145.48 418.608,149.517 418.98,108.631 419.352,105.009 419.724,142.163 420.096,92.811 420.468,124.672 420.84,112.447 421.212,146.144 421.584,143.144 421.956,126.942 422.328,103.031 422.7,135.313 423.072,152.708 423.444,145.929 423.816,133.666 424.188,122.029 424.56,107.757 424.932,138.272 425.304,97.5371 425.676,149.089 426.048,159.49 426.42,143.78 426.792,126.948 427.164,121.471 427.536,124.573 427.908,121.531 428.28,108.737 428.652,138.209 429.024,119.682 429.396,124.165 429.768,120.319 430.14,123.285 430.512,117.426 430.884,128.422 431.256,122.956 431.628,140.565 432,146.965 432.372,138.524 432.744,96.9575 433.116,110.329 433.488,144.047 433.86,136.004 434.232,112.062 434.604,145.893 434.976,102.558 435.348,141.953 435.72,123.799 436.092,144.207 436.464,152.135 436.836,82.7344 437.208,139.119 437.58,148.572 437.952,75.7988 438.324,143.612 438.696,143.756 439.068,82.5762 439.44,158.431 439.812,114.736 440.184,139.458 440.556,147.959 440.928,142.036 441.3,116.923 441.672,87.875 442.044,140.36 442.416,88.561 442.788,130.917 443.16,122.313 443.532,142.828 443.904,118.563 444.276,104.599 444.648,131.898 445.02,146.47 445.392,82.9277 445.764,146.317 446.136,97.7432 446.508,131.568 446.88,133.076 447.252,143.941"/>
</g>
</g>
</svg>
