<?xml version="1.0" encoding="UTF-8" standalone="no"?>
<svg xmlns="http://www.w3.org/2000/svg"
     xmlns:xlink="http://www.w3.org/1999/xlink"
     width="576pt" height="432pt" viewBox="0 0 576 432">
<title>gl2ps_renderer figure</title>
<desc>
Creator: GL2PS 1.4.0, (C) 1999-2017 C. Geuzaine
For: Octave
CreationDate: Sun May 29 11:00:32 2022
</desc>
<defs>
</defs>
<polygon fill="#ffffff" points="0,0 576,0 576,432 0,432"/>
<g>
<polygon fill="#ffffff" points="0,432 576,432 576,0 0,0" shape-rendering="crispEdges"/>
<clipPath id="cp00576432">
  <polygon points="0,432 576,432 576,0 0,0"/>
</clipPath>
<g clip-path="url(#cp00576432)">
<polygon fill="#ffffff" shape-rendering="crispEdges" points="74.8799,384.48 521.28,384.48 521.28,32.3999"/>
<polygon fill="#ffffff" shape-rendering="crispEdges" points="74.8799,384.48 521.28,32.3999 74.8799,32.3999"/>
<polyline fill="none" stroke="#262626" stroke-width="0.5" stroke-linecap="butt" stroke-linejoin="miter" points="74.8799,384.48 74.8799,380.015"/>
<polyline fill="none" stroke="#262626" stroke-width="0.5" stroke-linecap="butt" stroke-linejoin="miter" points="74.8799,32.3999 74.8799,36.8652"/>
<polyline fill="none" stroke="#262626" stroke-width="0.5" stroke-linecap="butt" stroke-linejoin="miter" points="149.28,384.48 149.28,380.015"/>
<polyline fill="none" stroke="#262626" stroke-width="0.5" stroke-linecap="butt" stroke-linejoin="miter" points="149.28,32.3999 149.28,36.8652"/>
<polyline fill="none" stroke="#262626" stroke-width="0.5" stroke-linecap="butt" stroke-linejoin="miter" points="223.68,384.48 223.68,380.015"/>
<polyline fill="none" stroke="#262626" stroke-width="0.5" stroke-linecap="butt" stroke-linejoin="miter" points="223.68,32.3999 223.68,36.8652"/>
<polyline fill="none" stroke="#262626" stroke-width="0.5" stroke-linecap="butt" stroke-linejoin="miter" points="298.08,384.48 298.08,380.015"/>
<polyline fill="none" stroke="#262626" stroke-width="0.5" stroke-linecap="butt" stroke-linejoin="miter" points="298.08,32.3999 298.08,36.8652"/>
<polyline fill="none" stroke="#262626" stroke-width="0.5" stroke-linecap="butt" stroke-linejoin="miter" points="372.48,384.48 372.48,380.015"/>
<polyline fill="none" stroke="#262626" stroke-width="0.5" stroke-linecap="butt" stroke-linejoin="miter" points="372.48,32.3999 372.48,36.8652"/>
<polyline fill="none" stroke="#262626" stroke-width="0.5" stroke-linecap="butt" stroke-linejoin="miter" points="446.88,384.48 446.88,380.015"/>
<polyline fill="none" stroke="#262626" stroke-width="0.5" stroke-linecap="butt" stroke-linejoin="miter" points="446.88,32.3999 446.88,36.8652"/>
<polyline fill="none" stroke="#262626" stroke-width="0.5" stroke-linecap="butt" stroke-linejoin="miter" points="521.28,384.48 521.28,380.015"/>
<polyline fill="none" stroke="#262626" stroke-width="0.5" stroke-linecap="butt" stroke-linejoin="miter" points="521.28,32.3999 521.28,36.8652"/>
<text xml:space="preserve" transform="translate(71.88,400.481) rotate(-0,3,-11)" font-family="FreeSans" font-weight="normal" font-style="normal" font-size="10"><tspan y="-1" fill="rgb(38,38,38)" x="0 ">0</tspan></text>
<text xml:space="preserve" transform="translate(143.28,400.481) rotate(-0,6,-11)" font-family="FreeSans" font-weight="normal" font-style="normal" font-size="10"><tspan y="-1" fill="rgb(38,38,38)" x="0 6 ">50</tspan></text>
<text xml:space="preserve" transform="translate(214.68,400.481) rotate(-0,9,-11)" font-family="FreeSans" font-weight="normal" font-style="normal" font-size="10"><tspan y="-1" fill="rgb(38,38,38)" x="0 6 12 ">100</tspan></text>
<text xml:space="preserve" transform="translate(289.08,400.481) rotate(-0,9,-11)" font-family="FreeSans" font-weight="normal" font-style="normal" font-size="10"><tspan y="-1" fill="rgb(38,38,38)" x="0 6 12 ">150</tspan></text>
<text xml:space="preserve" transform="translate(363.48,400.481) rotate(-0,9,-11)" font-family="FreeSans" font-weight="normal" font-style="normal" font-size="10"><tspan y="-1" fill="rgb(38,38,38)" x="0 6 12 ">200</tspan></text>
<text xml:space="preserve" transform="translate(437.88,400.481) rotate(-0,9,-11)" font-family="FreeSans" font-weight="normal" font-style="normal" font-size="10"><tspan y="-1" fill="rgb(38,38,38)" x="0 6 12 ">250</tspan></text>
<text xml:space="preserve" transform="translate(512.28,400.481) rotate(-0,9,-11)" font-family="FreeSans" font-weight="normal" font-style="normal" font-size="10"><tspan y="-1" fill="rgb(38,38,38)" x="0 6 12 ">300</tspan></text>
<polyline fill="none" stroke="#262626" stroke-width="0.5" stroke-linecap="butt" stroke-linejoin="miter" points="74.8799,384.48 79.3481,384.48"/>
<polyline fill="none" stroke="#262626" stroke-width="0.5" stroke-linecap="butt" stroke-linejoin="miter" points="521.28,384.48 516.812,384.48"/>
<polyline fill="none" stroke="#262626" stroke-width="0.5" stroke-linecap="butt" stroke-linejoin="miter" points="74.8799,325.8 79.3481,325.8"/>
<polyline fill="none" stroke="#262626" stroke-width="0.5" stroke-linecap="butt" stroke-linejoin="miter" points="521.28,325.8 516.812,325.8"/>
<polyline fill="none" stroke="#262626" stroke-width="0.5" stroke-linecap="butt" stroke-linejoin="miter" points="74.8799,267.12 79.3481,267.12"/>
<polyline fill="none" stroke="#262626" stroke-width="0.5" stroke-linecap="butt" stroke-linejoin="miter" points="521.28,267.12 516.812,267.12"/>
<polyline fill="none" stroke="#262626" stroke-width="0.5" stroke-linecap="butt" stroke-linejoin="miter" points="74.8799,208.44 79.3481,208.44"/>
<polyline fill="none" stroke="#262626" stroke-width="0.5" stroke-linecap="butt" stroke-linejoin="miter" points="521.28,208.44 516.812,208.44"/>
<polyline fill="none" stroke="#262626" stroke-width="0.5" stroke-linecap="butt" stroke-linejoin="miter" points="74.8799,149.76 79.3481,149.76"/>
<polyline fill="none" stroke="#262626" stroke-width="0.5" stroke-linecap="butt" stroke-linejoin="miter" points="521.28,149.76 516.812,149.76"/>
<polyline fill="none" stroke="#262626" stroke-width="0.5" stroke-linecap="butt" stroke-linejoin="miter" points="74.8799,91.0801 79.3481,91.0801"/>
<polyline fill="none" stroke="#262626" stroke-width="0.5" stroke-linecap="butt" stroke-linejoin="miter" points="521.28,91.0801 516.812,91.0801"/>
<polyline fill="none" stroke="#262626" stroke-width="0.5" stroke-linecap="butt" stroke-linejoin="miter" points="74.8799,32.3999 79.3481,32.3999"/>
<polyline fill="none" stroke="#262626" stroke-width="0.5" stroke-linecap="butt" stroke-linejoin="miter" points="521.28,32.3999 516.812,32.3999"/>
<text xml:space="preserve" transform="translate(54.8755,389.98) rotate(-0,15,-5.5)" font-family="FreeSans" font-weight="normal" font-style="normal" font-size="10"><tspan y="-1" fill="rgb(38,38,38)" x="0 3 9 ">-20</tspan></text>
<text xml:space="preserve" transform="translate(54.8755,331.3) rotate(-0,15,-5.5)" font-family="FreeSans" font-weight="normal" font-style="normal" font-size="10"><tspan y="-1" fill="rgb(38,38,38)" x="0 3 9 ">-15</tspan></text>
<text xml:space="preserve" transform="translate(54.8755,272.62) rotate(-0,15,-5.5)" font-family="FreeSans" font-weight="normal" font-style="normal" font-size="10"><tspan y="-1" fill="rgb(38,38,38)" x="0 3 9 ">-10</tspan></text>
<text xml:space="preserve" transform="translate(60.8755,213.94) rotate(-0,9,-5.5)" font-family="FreeSans" font-weight="normal" font-style="normal" font-size="10"><tspan y="-1" fill="rgb(38,38,38)" x="0 3 ">-5</tspan></text>
<text xml:space="preserve" transform="translate(63.8755,155.26) rotate(-0,6,-5.5)" font-family="FreeSans" font-weight="normal" font-style="normal" font-size="10"><tspan y="-1" fill="rgb(38,38,38)" x="0 ">0</tspan></text>
<text xml:space="preserve" transform="translate(63.8755,96.58) rotate(-0,6,-5.5)" font-family="FreeSans" font-weight="normal" font-style="normal" font-size="10"><tspan y="-1" fill="rgb(38,38,38)" x="0 ">5</tspan></text>
<text xml:space="preserve" transform="translate(57.8755,37.9) rotate(-0,12,-5.5)" font-family="FreeSans" font-weight="normal" font-style="normal" font-size="10"><tspan y="-1" fill="rgb(38,38,38)" x="0 6 ">10</tspan></text>
<polyline fill="none" stroke="#262626" stroke-width="0.5" stroke-linecap="square" stroke-linejoin="miter" stroke-dasharray="16,0" points="74.8799,384.48 521.28,384.48"/>
<polyline fill="none" stroke="#262626" stroke-width="0.5" stroke-linecap="square" stroke-linejoin="miter" stroke-dasharray="16,0" points="74.8799,32.3999 521.28,32.3999"/>
<polyline fill="none" stroke="#262626" stroke-width="0.5" stroke-linecap="square" stroke-linejoin="miter" stroke-dasharray="16,0" points="74.8799,384.48 74.8799,32.3999"/>
<polyline fill="none" stroke="#262626" stroke-width="0.5" stroke-linecap="square" stroke-linejoin="miter" stroke-dasharray="16,0" points="521.28,384.48 521.28,32.3999"/>
<text xml:space="preserve" transform="translate(247.58,413.481) rotate(-0,50.5,-13)" font-family="FreeSans" font-weight="normal" font-style="normal" font-size="11"><tspan y="-2" fill="rgb(38,38,38)" x="0 8 14 23 29 33 39 42 48 54 57 59 62 68 72 78 84 90 96 ">Número de iterações</tspan></text>
<text xml:space="preserve" transform="translate(-0.124484,208.44) rotate(-90,51,0)" font-family="FreeSans" font-weight="normal" font-style="normal" font-size="11"><tspan y="-2" fill="rgb(38,38,38)" x="0 2 8 14 18 26 32 37 39 45 51 57 60 68 74 76 82 85 87 92 98 ">log(Resíduo Relativo)</tspan></text>
<text xml:space="preserve" transform="translate(271.58,22.4) rotate(-0,26.5,0)" font-family="FreeSans" font-weight="bold" font-style="normal" font-size="11"><tspan y="-2" fill="rgb(0,0,0)" x="0 8 15 22 28 35 41 47 ">Dubcova3</tspan></text>
<polyline fill="none" stroke="#0071bc" stroke-width="0.5" stroke-linecap="butt" stroke-linejoin="round" points="76.3682,79.9541 77.856,75.7563 79.3438,78.1206 80.832,83.4438 82.3198,84.0024 83.8081,81.9648 85.2959,78.2378 86.7842,77.6592 88.272,78.1963 89.7598,78.5068 91.248,74.4937 92.7358,72.5112 94.2241,70.0708 95.7119,70.542 97.2002,72.1855 98.688,71.3159 100.176,74.2563 101.664,74.2983 103.152,77.0752 104.64,75.2197 106.128,76.2471 107.616,76.3872 109.104,78.5771 110.592,78.3643 112.08,77.1689 113.568,75.6382 115.056,76.6978 116.544,75.3628 118.032,76.397 119.52,78.2534 121.008,80.3613 122.496,81.4438 123.984,80.6812 125.472,79.082 126.96,78.9712 128.448,79.0801 129.936,79.5962 131.424,80.1289 132.912,82.3965 134.4,84.5239 135.888,84.0928 137.376,83.5737 138.864,82.8726 140.352,82.7114 141.84,81.4565 143.328,82.4282 144.816,84.7236 146.304,87.0317 147.792,87.3896 149.28,88.3706 150.768,88.6709 152.256,88.2554 153.744,85.8052 155.232,87.0396 156.72,88.2803 158.208,90.166 159.696,90.5513 161.184,92.8799 162.672,93.6523 164.16,94.311 165.648,94.0049 167.136,93.8979 168.624,94.2739 170.112,95.0742 171.6,96.854 173.088,98.4014 174.576,101.346 176.064,103.182 177.552,104.807 179.04,106.015 180.528,107.697 182.016,108.492 183.504,109.598 184.992,110.561 186.48,112.381 187.968,114.181 189.456,115.801 190.944,116.668 192.432,118.501 193.92,119.876 195.408,120.638 196.896,120.581 198.384,121.1 199.872,119.672 201.36,120.284 202.848,119.791 204.336,120.714 205.824,121.386 207.312,124.336 208.8,126.543 210.288,128.668 211.776,129.264 213.264,130.556 214.752,131.46 216.24,132.824 217.728,133.033 219.216,133.548 220.704,135.292 222.192,137.304 223.68,138.458 225.168,138.597 226.656,139.773 228.144,140.252 229.632,141.46 231.12,141.2 232.608,142.194 234.096,143.908 235.584,146.158 237.072,146.679 238.56,147.826 240.048,149.297 241.536,151.754 243.024,152.715 244.512,153.8 246,154.877 247.488,157.381 248.976,158.188 250.464,159.894 251.952,160.749 253.44,162.921 254.928,164.228 256.416,166.065 257.904,167.27 259.392,169.698 260.88,170.645 262.368,171.876 263.856,172.98 265.344,175.9 266.832,177.259 268.32,179.293 269.808,181.923 271.296,185.096 272.784,187.296 274.272,188.778 275.76,190.842 277.248,193.293 278.736,195.582 280.224,197.246 281.712,199.216 283.2,201.139 284.688,203.575 286.176,204.964 287.664,207.012 289.152,208.822 290.64,211.282 292.128,213.035 293.616,215.421 295.104,217.365 296.592,220.371 298.08,222.662 299.568,224.729 301.056,225.965 302.544,228.225 304.032,229.98 305.52,232.329 307.008,234.385 308.496,237.083 309.984,239.427 311.472,241.679 312.96,243.542 314.448,246.332 315.936,248.271 317.424,250.267 318.912,252.109 320.4,255.078 321.888,257.762 323.376,260.256 324.864,262.308 326.352,264.799 327.84,267.108 329.328,268.783 330.816,270.214 332.304,271.915 333.792,274.015 335.28,274.992 336.768,276.149 338.256,276.767 339.744,277.925 341.232,277.88 342.72,277.95 344.208,277.134 345.696,276.716 347.184,274.893 348.672,273.927 350.16,271.848 351.648,271.376 353.136,269.977 354.624,269.973 356.112,269.517 357.6,270.898 359.088,272.113 360.576,274.032 362.064,275.349 363.552,277.44 365.04,279.037 366.528,281.25 368.016,283.075 369.504,285.58 370.992,288.267 372.48,290.328 373.968,292.388 375.456,294.8 376.944,296.693 378.432,298.348 379.92,299.79 381.408,301.343 382.896,302.717 384.384,303.402 385.872,304.431 387.36,304.824 388.848,304.902 390.336,304.037 391.824,303.563 393.312,303.027 394.8,303.223 396.288,303.113 397.776,303.919 399.264,304.451 400.752,306.47 402.24,307.441 403.728,309.753 405.216,310.565 406.704,312.418 408.192,313.357 409.68,315.62 411.168,316.579 412.656,317.444 414.144,317.867 415.632,319.237 417.12,320.053 418.608,320.47 420.096,320.624 421.584,321.653 423.072,322.208 424.56,322.33 426.048,322.716 427.536,323.351 429.024,324.82 430.512,326.574 432,328.729 433.488,330.403 434.976,332.155 436.464,333.527 437.952,334.504 439.44,334.5 440.928,334.802 442.416,334.496 443.904,334.599 445.392,333.736 446.88,334.342 448.368,333.838 449.856,334.323 451.344,333.892 452.832,334.848 454.32,334.678 455.808,335.471 457.296,336.244 458.784,338.238 460.272,339.324 461.76,341.147 463.248,342.885 464.736,345.355 466.224,346.887 467.712,348.496 469.2,349.646 470.688,350.259"/>
</g>
</g>
</svg>
