<?xml version="1.0" encoding="UTF-8" standalone="no"?>
<svg xmlns="http://www.w3.org/2000/svg"
     xmlns:xlink="http://www.w3.org/1999/xlink"
     width="576pt" height="432pt" viewBox="0 0 576 432">
<title>gl2ps_renderer figure</title>
<desc>
Creator: GL2PS 1.4.0, (C) 1999-2017 C. Geuzaine
For: Octave
CreationDate: Sun May 29 11:00:20 2022
</desc>
<defs>
</defs>
<polygon fill="#ffffff" points="0,0 576,0 576,432 0,432"/>
<g>
<polygon fill="#ffffff" points="0,432 576,432 576,0 0,0" shape-rendering="crispEdges"/>
<clipPath id="cp00576432">
  <polygon points="0,432 576,432 576,0 0,0"/>
</clipPath>
<g clip-path="url(#cp00576432)">
<polygon fill="#ffffff" shape-rendering="crispEdges" points="74.8799,384.48 521.28,384.48 521.28,32.3999"/>
<polygon fill="#ffffff" shape-rendering="crispEdges" points="74.8799,384.48 521.28,32.3999 74.8799,32.3999"/>
<polyline fill="none" stroke="#262626" stroke-width="0.5" stroke-linecap="butt" stroke-linejoin="miter" points="74.8799,384.48 74.8799,380.015"/>
<polyline fill="none" stroke="#262626" stroke-width="0.5" stroke-linecap="butt" stroke-linejoin="miter" points="74.8799,32.3999 74.8799,36.8652"/>
<polyline fill="none" stroke="#262626" stroke-width="0.5" stroke-linecap="butt" stroke-linejoin="miter" points="149.28,384.48 149.28,380.015"/>
<polyline fill="none" stroke="#262626" stroke-width="0.5" stroke-linecap="butt" stroke-linejoin="miter" points="149.28,32.3999 149.28,36.8652"/>
<polyline fill="none" stroke="#262626" stroke-width="0.5" stroke-linecap="butt" stroke-linejoin="miter" points="223.68,384.48 223.68,380.015"/>
<polyline fill="none" stroke="#262626" stroke-width="0.5" stroke-linecap="butt" stroke-linejoin="miter" points="223.68,32.3999 223.68,36.8652"/>
<polyline fill="none" stroke="#262626" stroke-width="0.5" stroke-linecap="butt" stroke-linejoin="miter" points="298.08,384.48 298.08,380.015"/>
<polyline fill="none" stroke="#262626" stroke-width="0.5" stroke-linecap="butt" stroke-linejoin="miter" points="298.08,32.3999 298.08,36.8652"/>
<polyline fill="none" stroke="#262626" stroke-width="0.5" stroke-linecap="butt" stroke-linejoin="miter" points="372.48,384.48 372.48,380.015"/>
<polyline fill="none" stroke="#262626" stroke-width="0.5" stroke-linecap="butt" stroke-linejoin="miter" points="372.48,32.3999 372.48,36.8652"/>
<polyline fill="none" stroke="#262626" stroke-width="0.5" stroke-linecap="butt" stroke-linejoin="miter" points="446.88,384.48 446.88,380.015"/>
<polyline fill="none" stroke="#262626" stroke-width="0.5" stroke-linecap="butt" stroke-linejoin="miter" points="446.88,32.3999 446.88,36.8652"/>
<polyline fill="none" stroke="#262626" stroke-width="0.5" stroke-linecap="butt" stroke-linejoin="miter" points="521.28,384.48 521.28,380.015"/>
<polyline fill="none" stroke="#262626" stroke-width="0.5" stroke-linecap="butt" stroke-linejoin="miter" points="521.28,32.3999 521.28,36.8652"/>
<text xml:space="preserve" transform="translate(71.88,400.481) rotate(-0,3,-11)" font-family="FreeSans" font-weight="normal" font-style="normal" font-size="10"><tspan y="-1" fill="rgb(38,38,38)" x="0 ">0</tspan></text>
<text xml:space="preserve" transform="translate(140.28,400.481) rotate(-0,9,-11)" font-family="FreeSans" font-weight="normal" font-style="normal" font-size="10"><tspan y="-1" fill="rgb(38,38,38)" x="0 6 12 ">200</tspan></text>
<text xml:space="preserve" transform="translate(214.68,400.481) rotate(-0,9,-11)" font-family="FreeSans" font-weight="normal" font-style="normal" font-size="10"><tspan y="-1" fill="rgb(38,38,38)" x="0 6 12 ">400</tspan></text>
<text xml:space="preserve" transform="translate(289.08,400.481) rotate(-0,9,-11)" font-family="FreeSans" font-weight="normal" font-style="normal" font-size="10"><tspan y="-1" fill="rgb(38,38,38)" x="0 6 12 ">600</tspan></text>
<text xml:space="preserve" transform="translate(363.48,400.481) rotate(-0,9,-11)" font-family="FreeSans" font-weight="normal" font-style="normal" font-size="10"><tspan y="-1" fill="rgb(38,38,38)" x="0 6 12 ">800</tspan></text>
<text xml:space="preserve" transform="translate(434.88,400.481) rotate(-0,12,-11)" font-family="FreeSans" font-weight="normal" font-style="normal" font-size="10"><tspan y="-1" fill="rgb(38,38,38)" x="0 6 12 18 ">1000</tspan></text>
<text xml:space="preserve" transform="translate(509.28,400.481) rotate(-0,12,-11)" font-family="FreeSans" font-weight="normal" font-style="normal" font-size="10"><tspan y="-1" fill="rgb(38,38,38)" x="0 6 12 18 ">1200</tspan></text>
<polyline fill="none" stroke="#262626" stroke-width="0.5" stroke-linecap="butt" stroke-linejoin="miter" points="74.8799,384.48 79.3481,384.48"/>
<polyline fill="none" stroke="#262626" stroke-width="0.5" stroke-linecap="butt" stroke-linejoin="miter" points="521.28,384.48 516.812,384.48"/>
<polyline fill="none" stroke="#262626" stroke-width="0.5" stroke-linecap="butt" stroke-linejoin="miter" points="74.8799,314.064 79.3481,314.064"/>
<polyline fill="none" stroke="#262626" stroke-width="0.5" stroke-linecap="butt" stroke-linejoin="miter" points="521.28,314.064 516.812,314.064"/>
<polyline fill="none" stroke="#262626" stroke-width="0.5" stroke-linecap="butt" stroke-linejoin="miter" points="74.8799,243.648 79.3481,243.648"/>
<polyline fill="none" stroke="#262626" stroke-width="0.5" stroke-linecap="butt" stroke-linejoin="miter" points="521.28,243.648 516.812,243.648"/>
<polyline fill="none" stroke="#262626" stroke-width="0.5" stroke-linecap="butt" stroke-linejoin="miter" points="74.8799,173.232 79.3481,173.232"/>
<polyline fill="none" stroke="#262626" stroke-width="0.5" stroke-linecap="butt" stroke-linejoin="miter" points="521.28,173.232 516.812,173.232"/>
<polyline fill="none" stroke="#262626" stroke-width="0.5" stroke-linecap="butt" stroke-linejoin="miter" points="74.8799,102.816 79.3481,102.816"/>
<polyline fill="none" stroke="#262626" stroke-width="0.5" stroke-linecap="butt" stroke-linejoin="miter" points="521.28,102.816 516.812,102.816"/>
<polyline fill="none" stroke="#262626" stroke-width="0.5" stroke-linecap="butt" stroke-linejoin="miter" points="74.8799,32.3999 79.3481,32.3999"/>
<polyline fill="none" stroke="#262626" stroke-width="0.5" stroke-linecap="butt" stroke-linejoin="miter" points="521.28,32.3999 516.812,32.3999"/>
<text xml:space="preserve" transform="translate(63.8755,389.98) rotate(-0,6,-5.5)" font-family="FreeSans" font-weight="normal" font-style="normal" font-size="10"><tspan y="-1" fill="rgb(38,38,38)" x="0 ">1</tspan></text>
<text xml:space="preserve" transform="translate(63.8755,319.564) rotate(-0,6,-5.5)" font-family="FreeSans" font-weight="normal" font-style="normal" font-size="10"><tspan y="-1" fill="rgb(38,38,38)" x="0 ">2</tspan></text>
<text xml:space="preserve" transform="translate(63.8755,249.148) rotate(-0,6,-5.5)" font-family="FreeSans" font-weight="normal" font-style="normal" font-size="10"><tspan y="-1" fill="rgb(38,38,38)" x="0 ">3</tspan></text>
<text xml:space="preserve" transform="translate(63.8755,178.732) rotate(-0,6,-5.5)" font-family="FreeSans" font-weight="normal" font-style="normal" font-size="10"><tspan y="-1" fill="rgb(38,38,38)" x="0 ">4</tspan></text>
<text xml:space="preserve" transform="translate(63.8755,108.316) rotate(-0,6,-5.5)" font-family="FreeSans" font-weight="normal" font-style="normal" font-size="10"><tspan y="-1" fill="rgb(38,38,38)" x="0 ">5</tspan></text>
<text xml:space="preserve" transform="translate(63.8755,37.9) rotate(-0,6,-5.5)" font-family="FreeSans" font-weight="normal" font-style="normal" font-size="10"><tspan y="-1" fill="rgb(38,38,38)" x="0 ">6</tspan></text>
<polyline fill="none" stroke="#262626" stroke-width="0.5" stroke-linecap="square" stroke-linejoin="miter" stroke-dasharray="16,0" points="74.8799,384.48 521.28,384.48"/>
<polyline fill="none" stroke="#262626" stroke-width="0.5" stroke-linecap="square" stroke-linejoin="miter" stroke-dasharray="16,0" points="74.8799,32.3999 521.28,32.3999"/>
<polyline fill="none" stroke="#262626" stroke-width="0.5" stroke-linecap="square" stroke-linejoin="miter" stroke-dasharray="16,0" points="74.8799,384.48 74.8799,32.3999"/>
<polyline fill="none" stroke="#262626" stroke-width="0.5" stroke-linecap="square" stroke-linejoin="miter" stroke-dasharray="16,0" points="521.28,384.48 521.28,32.3999"/>
<text xml:space="preserve" transform="translate(247.58,413.481) rotate(-0,50.5,-13)" font-family="FreeSans" font-weight="normal" font-style="normal" font-size="11"><tspan y="-2" fill="rgb(38,38,38)" x="0 8 14 23 29 33 39 42 48 54 57 59 62 68 72 78 84 90 96 ">Número de iterações</tspan></text>
<text xml:space="preserve" transform="translate(8.87552,208.44) rotate(-90,51,0)" font-family="FreeSans" font-weight="normal" font-style="normal" font-size="11"><tspan y="-2" fill="rgb(38,38,38)" x="0 2 8 14 18 26 32 37 39 45 51 57 60 68 74 76 82 85 87 92 98 ">log(Resíduo Relativo)</tspan></text>
<text xml:space="preserve" transform="translate(273.58,22.4) rotate(-0,24.5,0)" font-family="FreeSans" font-weight="bold" font-style="normal" font-size="11"><tspan y="-2" fill="rgb(0,0,0)" x="0 7 14 21 27 35 42 ">pdb1HYS</tspan></text>
<polyline fill="none" stroke="#0071bc" stroke-width="0.5" stroke-linecap="butt" stroke-linejoin="round" points="75.252,85.1138 75.624,181.009 75.9961,248.569 76.3682,281.692 76.7402,294.159 77.1118,301.031 77.4839,306.146 77.856,310.734 78.228,315.053 78.6001,319.106 78.9722,322.298 79.3438,323.396 79.7158,323.456 80.0879,323.178 80.46,323.639 80.832,324.335 81.2041,325.081 81.5762,325.164 81.9482,324.988 82.3198,325.256 82.6919,325.138 83.064,324.856 83.436,324.825 83.8081,325.222 84.1802,325.813 84.5518,326.164 84.9238,324.638 85.2959,323.216 85.668,322.843 86.04,321.866 86.4121,320.369 86.7842,318.637 87.1562,317.003 87.5278,315.97 87.8999,315.738 88.272,315.603 88.644,315.394 89.0161,314.744 89.3882,314.294 89.7598,313.76 90.1318,313.162 90.5039,314.069 90.876,315.453 91.248,316.618 91.6201,317.974 91.9922,319.069 92.3638,319.201 92.7358,318.941 93.1079,319.555 93.48,320.107 93.8521,318.738 94.2241,317.966 94.5962,317.89 94.9678,317.94 95.3398,317.263 95.7119,316.577 96.084,315.277 96.4561,314.445 96.8281,313.163 97.2002,311.894 97.5718,311.018 97.9438,309.865 98.3159,308.19 98.688,306.595 99.0601,304.69 99.4321,302.628 99.8042,300.315 100.176,298.004 100.548,295.468 100.92,293.188 101.292,291.128 101.664,290.307 102.036,289.626 102.408,289.117 102.78,288.64 103.152,289.371 103.524,289.542 103.896,288.512 104.268,287.553 104.64,287.414 105.012,287.357 105.384,287.312 105.756,286.774 106.128,286.337 106.5,285.608 106.872,285.207 107.244,285.197 107.616,284.794 107.988,284.279 108.36,282.88 108.732,281.097 109.104,279.129 109.476,277.458 109.848,277.426 110.22,277.01 110.592,276.329 110.964,274.892 111.336,273.85 111.708,273.97 112.08,273.988 112.452,273.174 112.824,272.372 113.196,271.505 113.568,270.897 113.94,269.982 114.312,269.541 114.684,269.116 115.056,268.215 115.428,267.02 115.8,265.72 116.172,264.094 116.544,262.637 116.916,261.196 117.288,260.25 117.66,260.109 118.032,260.624 118.404,260.065 118.776,258.964 119.148,257.983 119.52,257.553 119.892,257.588 120.264,258.45 120.636,259.351 121.008,259.834 121.38,260.13 121.752,260.423 122.124,261.112 122.496,262.201 122.868,262.123 123.24,261.113 123.612,260.589 123.984,260.778 124.356,260.981 124.728,261.241 125.1,261.296 125.472,262.035 125.844,262.547 126.216,262.724 126.588,262.805 126.96,263.469 127.332,263.322 127.704,263.769 128.076,264.21 128.448,265.733 128.82,267.775 129.192,269.696 129.564,272.104 129.936,274.831 130.308,276.637 130.68,278.255 131.052,280.191 131.424,282.574 131.796,284.244 132.168,285.507 132.54,286.822 132.912,287.814 133.284,289.14 133.656,290.417 134.028,291.125 134.4,291.232 134.772,291.639 135.144,291.941 135.516,292.253 135.888,291.776 136.26,291.711 136.632,291.945 137.004,291.729 137.376,291.369 137.748,290.792 138.12,289.947 138.492,289.85 138.864,290.278 139.236,290.848 139.608,291.583 139.98,291.117 140.352,291.251 140.724,292.691 141.096,293.78 141.468,293.921 141.84,294.129 142.212,293.386 142.584,291.923 142.956,290.81 143.328,290.847 143.7,290.896 144.072,292.038 144.444,293.926 144.816,295.815 145.188,296.454 145.56,296.874 145.932,297.508 146.304,298.233 146.676,298.34 147.048,298.26 147.42,299 147.792,300.156 148.164,301.188 148.536,302.235 148.908,303.089 149.28,304.294 149.652,305.302 150.024,306.5 150.396,307.774 150.768,308.995 151.14,310.569 151.512,311.623 151.884,311.988 152.256,311.882 152.628,312.077 153,312 153.372,312.215 153.744,311.608 154.116,311.408 154.488,311.375 154.86,310.953 155.232,311.269 155.604,311.309 155.976,311.349 156.348,311.729 156.72,311.706 157.092,312.423 157.464,313.181 157.836,312.435 158.208,311.527 158.58,310.904 158.952,310.602 159.324,309.377 159.696,307.729 160.068,306.066 160.44,304.307 160.812,303.44 161.184,303.68 161.556,304.813 161.928,305.286 162.3,305.16 162.672,304.054 163.044,302.637 163.416,301.099 163.788,299.752 164.16,297.717 164.532,296.287 164.904,295.126 165.276,293.869 165.648,292.438 166.02,291.025 166.392,289.125 166.764,286.125 167.136,283.926 167.508,282.772 167.88,281.468 168.252,279.869 168.624,280.11 168.996,281.337 169.368,283.336 169.74,286.216 170.112,288.108 170.484,288.834 170.856,289.166 171.228,289.203 171.6,288.869 171.972,289.186 172.344,290.372 172.716,290.717 173.088,290.858 173.46,292.812 173.832,295.714 174.204,297.925 174.576,299.428 174.948,301.723 175.32,303.364 175.692,304.62 176.064,306.018 176.436,306.518 176.808,307.047 177.18,307.815 177.552,307.725 177.924,307.477 178.296,306.937 178.668,307.056 179.04,306.971 179.412,306.243 179.784,305.075 180.156,304.39 180.528,303.848 180.9,304.129 181.272,304.621 181.644,304.892 182.016,306.213 182.388,307.536 182.76,307.952 183.132,308.042 183.504,307.576 183.876,307.057 184.248,306.67 184.62,306.26 184.992,306.473 185.364,306.745 185.736,306.758 186.108,306.736 186.48,306.158 186.852,305.225 187.224,304.14 187.596,303.411 187.968,303.118 188.34,302.674 188.712,302.463 189.084,302.672 189.456,302.413 189.828,301.284 190.2,300.277 190.572,299.606 190.944,299.534 191.316,298.826 191.688,298.181 192.06,298.66 192.432,299.463 192.804,299.437 193.176,299.325 193.548,298.725 193.92,298.568 194.292,298.627 194.664,298.488 195.036,298.207 195.408,298.801 195.78,300.24 196.152,301.945 196.524,303.132 196.896,304.583 197.268,306.125 197.64,307.664 198.012,308.253 198.384,308.671 198.756,308.728 199.128,308.728 199.5,308.686 199.872,308.261 200.244,307.87 200.616,308.15 200.988,308.243 201.36,309.108 201.732,309.015 202.104,309.144 202.476,309.754 202.848,309.78 203.22,310.19 203.592,311.129 203.964,313.152 204.336,315.617 204.708,315.888 205.08,316.125 205.452,316.505 205.824,317.229 206.196,318.749 206.568,320.077 206.94,320.003 207.312,320.768 207.684,322.247 208.056,322.746 208.428,322.546 208.8,321.669 209.172,320.488 209.544,319.057 209.916,317.983 210.288,317.493 210.66,317.626 211.032,317.911 211.404,318.049 211.776,317.435 212.148,316.503 212.52,316.481 212.892,316.998 213.264,317.117 213.636,317.339 214.008,317.308 214.38,316.989 214.752,317.155 215.124,317.717 215.496,316.604 215.868,315.637 216.24,314.7 216.612,314.868 216.984,314.065 217.356,313.519 217.728,312.395 218.1,312.427 218.472,312.141 218.844,310.945 219.216,310.033 219.588,309.248 219.96,308.429 220.332,308.352 220.704,308.146 221.076,307.699 221.448,307.633 221.82,308.182 222.192,307.528 222.564,307.815 222.936,308.09 223.308,307.472 223.68,306.723 224.052,304.559 224.424,301.849 224.796,300.222 225.168,298.915 225.54,297.916 225.912,296.208 226.284,294.111 226.656,292.32 227.028,291.445 227.4,290.867 227.772,290.04 228.144,288.06 228.516,286.085 228.888,284.192 229.26,282.002 229.632,279.816 230.004,278.979 230.376,277.739 230.748,276.236 231.12,274.329 231.492,272.783 231.864,272.25 232.236,272.662 232.608,271.744 232.98,270.529 233.352,270.237 233.724,270.662 234.096,271.124 234.468,271.875 234.84,272.988 235.212,273.835 235.584,273.606 235.956,273.172 236.328,272.568 236.7,273.406 237.072,275.278 237.444,276.721 237.816,278.193 238.188,279.38 238.56,280.698 238.932,281.941 239.304,284.161 239.676,285.981 240.048,287.601 240.42,288.512 240.792,289.854 241.164,290.891 241.536,291.336 241.908,291.101 242.28,289.988 242.652,289.292 243.024,289.092 243.396,288.166 243.768,286.76 244.14,285.979 244.512,285.887 244.884,285.825 245.256,285.823 245.628,285.506 246,284.878 246.372,282.499 246.744,279.779 247.116,278.145 247.488,276.89 247.86,275.692 248.232,274.943 248.604,274.704 248.976,274.073 249.348,273.425 249.72,272.949 250.092,272.444 250.464,272.208 250.836,272.545 251.208,272.639 251.58,272.196 251.952,271.73 252.324,272.223 252.696,273.379 253.068,275.177 253.44,276.974 253.812,278.899 254.184,281.132 254.556,282.188 254.928,282.737 255.3,283.35 255.672,283.765 256.044,284.367 256.416,284.763 256.788,284.995 257.16,286.375 257.532,287.166 257.904,287.089 258.276,287.026 258.648,286.362 259.02,286.224 259.392,286.151 259.764,285.821 260.136,285.141 260.508,284.583 260.88,283.713 261.252,282.054 261.624,280.306 261.996,278.882 262.368,279.438 262.74,280.127 263.112,279.822 263.484,279.053 263.856,279.019 264.228,280.481 264.6,281.541 264.972,281.239 265.344,280.562 265.716,279.658 266.088,278.755 266.46,278.726 266.832,279.537 267.204,279.466 267.576,278.058 267.948,276.537 268.32,274.549 268.692,273.053 269.064,271.818 269.436,270.495 269.808,268.678 270.18,266.665 270.552,264.521 270.924,264.17 271.296,264.183 271.668,263.007 272.04,261.464 272.412,259.462 272.784,258.038 273.156,256.98 273.528,255.679 273.9,253.893 274.272,251.786 274.644,250.68 275.016,250.312 275.388,250.135 275.76,249.84 276.132,249.012 276.504,247.532 276.876,246.732 277.248,246 277.62,245.994 277.992,245.921 278.364,244.975 278.736,244.094 279.108,242.768 279.48,240.256 279.852,238.501 280.224,238.308 280.596,238.013 280.968,237.1 281.34,235.688 281.712,234.697 282.084,233.432 282.456,231.99 282.828,231.416 283.2,231.294 283.572,230.927 283.944,230.187 284.316,228.317 284.688,227.336 285.06,227.229 285.432,227.488 285.804,228.207 286.176,228.334 286.548,227.862 286.92,227.56 287.292,227.486 287.664,227.97 288.036,227.46 288.408,226.78 288.78,224.79 289.152,223.037 289.524,221.63 289.896,220.021 290.268,218.7 290.64,218.298 291.012,218.095 291.384,217.909 291.756,217.592 292.128,216.75 292.5,216.021 292.872,215.126 293.244,213.865 293.616,213.154 293.988,212.832 294.36,213.015 294.732,213.808 295.104,214.881 295.476,214.041 295.848,212.589 296.22,211.869 296.592,211.498 296.964,211.145 297.336,211.554 297.708,211.22 298.08,210.924 298.452,211.022 298.824,211.017 299.196,211.173 299.568,211.907 299.94,212.328 300.312,211.654 300.684,210.645 301.056,209.971 301.428,210.179 301.8,210.617 302.172,211.472 302.544,212.342 302.916,211.813 303.288,211.677 303.66,211.571 304.032,211.402 304.404,210.882 304.776,209.987 305.148,208.016 305.52,206.166 305.892,205.027 306.264,204.761 306.636,204.751 307.008,204.347 307.38,203.732 307.752,203.269 308.124,204.05 308.496,204.619 308.868,205.445 309.24,205.283 309.612,203.956 309.984,203.178 310.356,202.736 310.728,202.595 311.1,203.088 311.472,203.262 311.844,202.383 312.216,201.72 312.588,200.808 312.96,199.795 313.332,199.203 313.704,199.888 314.076,200.872 314.448,201.144 314.82,200.891 315.192,200.908 315.564,201.105 315.936,201.812 316.308,202.472 316.68,201.864 317.052,200.3 317.424,199.229 317.796,198.164 318.168,197.285 318.54,196.197 318.912,194.881 319.284,193.525 319.656,192.3 320.028,191.201 320.4,189.735 320.772,188.425 321.144,187.851 321.516,187.773 321.888,188.054 322.26,188.751 322.632,189.985 323.004,190.615 323.376,189.945 323.748,188.808 324.12,187.248 324.492,185.851 324.864,185.062 325.236,184.686 325.608,183.57 325.98,182.839 326.352,182.705 326.724,183.329 327.096,184.294 327.468,184.313 327.84,183.157 328.212,183.5 328.584,185.771 328.956,187.951 329.328,188.872 329.7,189.365 330.072,190.452 330.444,191.14 330.816,192.016 331.188,193.25 331.56,192.492 331.932,190.829 332.304,188.731 332.676,188.08 333.048,190.073 333.42,191.908 333.792,192.034 334.164,192.107 334.536,192.969 334.908,193.693 335.28,194.084 335.652,194.807 336.024,195.173 336.396,194.868 336.768,195.249 337.14,195.777 337.512,196.238 337.884,195.192 338.256,194.255 338.628,193.052 339,191.8 339.372,190.693 339.744,188.727 340.116,186.999 340.488,185.163 340.86,183.81 341.232,183.582 341.604,182.65 341.976,181.895 342.348,182.425 342.72,182.771 343.092,182.473 343.464,181.687 343.836,181.43 344.208,181.465 344.58,180.513 344.952,180.208 345.324,180.785 345.696,180.48 346.068,179.229 346.44,178.72 346.812,178.265 347.184,179.311 347.556,180.629 347.928,181.571 348.3,182.436 348.672,183.81 349.044,185.575 349.416,187.607 349.788,189.149 350.16,190.76 350.532,192.327 350.904,193.385 351.276,195.83 351.648,198.599 352.02,200.728 352.392,202.96 352.764,205.249 353.136,206.176 353.508,206.738 353.88,208.392 354.252,211.165 354.624,214.573 354.996,216.754 355.368,218.526 355.74,219.476 356.112,219.606 356.484,220.786 356.856,221.894 357.228,223.477 357.6,224.896 357.972,225.724 358.344,226.771 358.716,227.705 359.088,228.521 359.46,228.8 359.832,228.632 360.204,227.804 360.576,226.461 360.948,225.439 361.32,224.812 361.692,224.295 362.064,223.546 362.436,222.334 362.808,221.337 363.18,219.453 363.552,217.083 363.924,215.397 364.296,214.9 364.668,213.946 365.04,211.901 365.412,209.607 365.784,207.325 366.156,205.099 366.528,202.941 366.9,200.265 367.272,197.073 367.644,193.58 368.016,189.084 368.388,186.254 368.76,184.984 369.132,182.775 369.504,181.041 369.876,179.452 370.248,177.42 370.62,175.733 370.992,175.851 371.364,175.906 371.736,175.313 372.108,173.994 372.48,172.647 372.852,170.964 373.224,168.49 373.596,165.681 373.968,163.737 374.34,162.532 374.712,162.108 375.084,161.88 375.456,161.878 375.828,160.853 376.2,159.353 376.572,157.526 376.944,155.72 377.316,153.671 377.688,152.361 378.06,151.457 378.432,150.24 378.804,148.76 379.176,147.325 379.548,145.909 379.92,145.949 380.292,147.011 380.664,148.449 381.036,149.868 381.408,151.214 381.78,151.771 382.152,152.195 382.524,152.371 382.896,151.463 383.268,150.07 383.64,148.969 384.012,146.913 384.384,144.931 384.756,142.917 385.128,141.484 385.5,140.311 385.872,139.413 386.244,137.112 386.616,132.995 386.988,128.723 387.36,126.71 387.732,125.233 388.104,122.349 388.476,119.428 388.848,115.103 389.22,110.296 389.592,105.854 389.964,102.287 390.336,99.248 390.708,96.416 391.08,94.5278 391.452,93.0923 391.824,90.2939 392.196,87.439 392.568,84.6694 392.94,81.6655 393.312,78.8281 393.684,76.3281 394.056,73.9165 394.428,71.6455 394.8,69.709 395.172,68.4844 395.544,68.5474 395.916,69.1138 396.288,69.1338 396.66,69.8809 397.032,70.5884 397.404,71.9463 397.776,73.1309 398.148,73.374 398.52,72.8418 398.892,73.0137 399.264,73.3809 399.636,72.9517 400.008,73.3267 400.38,73.9009 400.752,74.8198 401.124,75.1401 401.496,75.4541 401.868,75.1597 402.24,73.5239 402.612,71.7471 402.984,71.1108 403.356,68.8784 403.728,66.6782 404.1,65.2676 404.472,64.1094 404.844,63.0806 405.216,61.1343 405.588,59.8193 405.96,58.9399 406.332,57.3433 406.704,56.8135 407.076,56.8101 407.448,56.8076 407.82,56.7017 408.192,56.939 408.564,57.5259 408.936,58.397 409.308,59.4219 409.68,60.5815 410.052,62.2422 410.424,64.9487 410.796,68.1387 411.168,71.5439 411.54,74.397 411.912,77.083 412.284,78.9062 412.656,80.709 413.028,82.937 413.4,85.1289 413.772,86.7378 414.144,88.0205 414.516,89.1064 414.888,89.8984 415.26,89.9868 415.632,89.5073 416.004,90.1216 416.376,89.3262 416.748,87.3735 417.12,86.1045 417.492,86.793 417.864,87.3042 418.236,87.0713 418.608,87.1299 418.98,87.4038 419.352,88.1982 419.724,89.3867 420.096,89.7627 420.468,90.5723 420.84,90.5229 421.212,90.5376 421.584,90.3672 421.956,90.1074 422.328,89.0518 422.7,89.5029 423.072,91.1802 423.444,92.0957 423.816,92.917 424.188,93.5176 424.56,93.9502 424.932,94.0786 425.304,94.0562 425.676,94.1694 426.048,94.7427 426.42,95.1797 426.792,95.9927 427.164,96.2856 427.536,97.4858 427.908,98.8311 428.28,99.3623 428.652,99.4585 429.024,99.918 429.396,100.231 429.768,99.9399 430.14,99.1597 430.512,98.9746 430.884,100.262 431.256,101.386 431.628,103.023 432,105.099 432.372,107.55 432.744,108.928 433.116,109.382 433.488,110.472 433.86,111.508 434.232,113.153 434.604,115.787 434.976,118.734 435.348,121.725 435.72,123.933 436.092,125.438 436.464,126.892 436.836,128.626 437.208,130.824 437.58,131.97 437.952,132.637 438.324,133.552 438.696,137.298 439.068,141.42 439.44,144.894 439.812,147.051 440.184,148.555 440.556,150.256 440.928,151.779 441.3,152.966 441.672,153.999 442.044,155.146 442.416,156.037 442.788,156.39 443.16,156.358 443.532,156.378 443.904,157.196 444.276,159.106 444.648,160.154 445.02,161.068 445.392,160.736 445.764,159.579 446.136,159.167 446.508,159.608 446.88,159.428 447.252,157.931"/>
</g>
</g>
</svg>
