<?xml version="1.0" encoding="UTF-8" standalone="no"?>
<svg xmlns="http://www.w3.org/2000/svg"
     xmlns:xlink="http://www.w3.org/1999/xlink"
     width="576pt" height="432pt" viewBox="0 0 576 432">
<title>gl2ps_renderer figure</title>
<desc>
Creator: GL2PS 1.4.0, (C) 1999-2017 C. Geuzaine
For: Octave
CreationDate: Wed May 25 13:06:31 2022
</desc>
<defs>
</defs>
<polygon fill="#ffffff" points="0,0 576,0 576,432 0,432"/>
<g>
<polygon fill="#ffffff" points="0,432 576,432 576,0 0,0" shape-rendering="crispEdges"/>
<clipPath id="cp00576432">
  <polygon points="0,432 576,432 576,0 0,0"/>
</clipPath>
<g clip-path="url(#cp00576432)">
<polygon fill="#ffffff" shape-rendering="crispEdges" points="74.8799,384.48 521.28,384.48 521.28,32.3999"/>
<polygon fill="#ffffff" shape-rendering="crispEdges" points="74.8799,384.48 521.28,32.3999 74.8799,32.3999"/>
<polyline fill="none" stroke="#262626" stroke-width="0.5" stroke-linecap="butt" stroke-linejoin="miter" points="74.8799,384.48 74.8799,380.015"/>
<polyline fill="none" stroke="#262626" stroke-width="0.5" stroke-linecap="butt" stroke-linejoin="miter" points="74.8799,32.3999 74.8799,36.8652"/>
<polyline fill="none" stroke="#262626" stroke-width="0.5" stroke-linecap="butt" stroke-linejoin="miter" points="164.16,384.48 164.16,380.015"/>
<polyline fill="none" stroke="#262626" stroke-width="0.5" stroke-linecap="butt" stroke-linejoin="miter" points="164.16,32.3999 164.16,36.8652"/>
<polyline fill="none" stroke="#262626" stroke-width="0.5" stroke-linecap="butt" stroke-linejoin="miter" points="253.44,384.48 253.44,380.015"/>
<polyline fill="none" stroke="#262626" stroke-width="0.5" stroke-linecap="butt" stroke-linejoin="miter" points="253.44,32.3999 253.44,36.8652"/>
<polyline fill="none" stroke="#262626" stroke-width="0.5" stroke-linecap="butt" stroke-linejoin="miter" points="342.72,384.48 342.72,380.015"/>
<polyline fill="none" stroke="#262626" stroke-width="0.5" stroke-linecap="butt" stroke-linejoin="miter" points="342.72,32.3999 342.72,36.8652"/>
<polyline fill="none" stroke="#262626" stroke-width="0.5" stroke-linecap="butt" stroke-linejoin="miter" points="432,384.48 432,380.015"/>
<polyline fill="none" stroke="#262626" stroke-width="0.5" stroke-linecap="butt" stroke-linejoin="miter" points="432,32.3999 432,36.8652"/>
<polyline fill="none" stroke="#262626" stroke-width="0.5" stroke-linecap="butt" stroke-linejoin="miter" points="521.28,384.48 521.28,380.015"/>
<polyline fill="none" stroke="#262626" stroke-width="0.5" stroke-linecap="butt" stroke-linejoin="miter" points="521.28,32.3999 521.28,36.8652"/>
<text xml:space="preserve" transform="translate(71.88,400.481) rotate(-0,3,-11)" font-family="FreeSans" font-weight="normal" font-style="normal" font-size="10"><tspan y="-1" fill="rgb(38,38,38)" x="0 ">0</tspan></text>
<text xml:space="preserve" transform="translate(155.16,400.481) rotate(-0,9,-11)" font-family="FreeSans" font-weight="normal" font-style="normal" font-size="10"><tspan y="-1" fill="rgb(38,38,38)" x="0 6 12 ">200</tspan></text>
<text xml:space="preserve" transform="translate(244.44,400.481) rotate(-0,9,-11)" font-family="FreeSans" font-weight="normal" font-style="normal" font-size="10"><tspan y="-1" fill="rgb(38,38,38)" x="0 6 12 ">400</tspan></text>
<text xml:space="preserve" transform="translate(333.72,400.481) rotate(-0,9,-11)" font-family="FreeSans" font-weight="normal" font-style="normal" font-size="10"><tspan y="-1" fill="rgb(38,38,38)" x="0 6 12 ">600</tspan></text>
<text xml:space="preserve" transform="translate(423,400.481) rotate(-0,9,-11)" font-family="FreeSans" font-weight="normal" font-style="normal" font-size="10"><tspan y="-1" fill="rgb(38,38,38)" x="0 6 12 ">800</tspan></text>
<text xml:space="preserve" transform="translate(509.28,400.481) rotate(-0,12,-11)" font-family="FreeSans" font-weight="normal" font-style="normal" font-size="10"><tspan y="-1" fill="rgb(38,38,38)" x="0 6 12 18 ">1000</tspan></text>
<polyline fill="none" stroke="#262626" stroke-width="0.5" stroke-linecap="butt" stroke-linejoin="miter" points="74.8799,384.48 79.3481,384.48"/>
<polyline fill="none" stroke="#262626" stroke-width="0.5" stroke-linecap="butt" stroke-linejoin="miter" points="521.28,384.48 516.812,384.48"/>
<polyline fill="none" stroke="#262626" stroke-width="0.5" stroke-linecap="butt" stroke-linejoin="miter" points="74.8799,325.8 79.3481,325.8"/>
<polyline fill="none" stroke="#262626" stroke-width="0.5" stroke-linecap="butt" stroke-linejoin="miter" points="521.28,325.8 516.812,325.8"/>
<polyline fill="none" stroke="#262626" stroke-width="0.5" stroke-linecap="butt" stroke-linejoin="miter" points="74.8799,267.12 79.3481,267.12"/>
<polyline fill="none" stroke="#262626" stroke-width="0.5" stroke-linecap="butt" stroke-linejoin="miter" points="521.28,267.12 516.812,267.12"/>
<polyline fill="none" stroke="#262626" stroke-width="0.5" stroke-linecap="butt" stroke-linejoin="miter" points="74.8799,208.44 79.3481,208.44"/>
<polyline fill="none" stroke="#262626" stroke-width="0.5" stroke-linecap="butt" stroke-linejoin="miter" points="521.28,208.44 516.812,208.44"/>
<polyline fill="none" stroke="#262626" stroke-width="0.5" stroke-linecap="butt" stroke-linejoin="miter" points="74.8799,149.76 79.3481,149.76"/>
<polyline fill="none" stroke="#262626" stroke-width="0.5" stroke-linecap="butt" stroke-linejoin="miter" points="521.28,149.76 516.812,149.76"/>
<polyline fill="none" stroke="#262626" stroke-width="0.5" stroke-linecap="butt" stroke-linejoin="miter" points="74.8799,91.0801 79.3481,91.0801"/>
<polyline fill="none" stroke="#262626" stroke-width="0.5" stroke-linecap="butt" stroke-linejoin="miter" points="521.28,91.0801 516.812,91.0801"/>
<polyline fill="none" stroke="#262626" stroke-width="0.5" stroke-linecap="butt" stroke-linejoin="miter" points="74.8799,32.3999 79.3481,32.3999"/>
<polyline fill="none" stroke="#262626" stroke-width="0.5" stroke-linecap="butt" stroke-linejoin="miter" points="521.28,32.3999 516.812,32.3999"/>
<text xml:space="preserve" transform="translate(63.8755,389.98) rotate(-0,6,-5.5)" font-family="FreeSans" font-weight="normal" font-style="normal" font-size="10"><tspan y="-1" fill="rgb(38,38,38)" x="0 ">0</tspan></text>
<text xml:space="preserve" transform="translate(63.8755,331.3) rotate(-0,6,-5.5)" font-family="FreeSans" font-weight="normal" font-style="normal" font-size="10"><tspan y="-1" fill="rgb(38,38,38)" x="0 ">1</tspan></text>
<text xml:space="preserve" transform="translate(63.8755,272.62) rotate(-0,6,-5.5)" font-family="FreeSans" font-weight="normal" font-style="normal" font-size="10"><tspan y="-1" fill="rgb(38,38,38)" x="0 ">2</tspan></text>
<text xml:space="preserve" transform="translate(63.8755,213.94) rotate(-0,6,-5.5)" font-family="FreeSans" font-weight="normal" font-style="normal" font-size="10"><tspan y="-1" fill="rgb(38,38,38)" x="0 ">3</tspan></text>
<text xml:space="preserve" transform="translate(63.8755,155.26) rotate(-0,6,-5.5)" font-family="FreeSans" font-weight="normal" font-style="normal" font-size="10"><tspan y="-1" fill="rgb(38,38,38)" x="0 ">4</tspan></text>
<text xml:space="preserve" transform="translate(63.8755,96.58) rotate(-0,6,-5.5)" font-family="FreeSans" font-weight="normal" font-style="normal" font-size="10"><tspan y="-1" fill="rgb(38,38,38)" x="0 ">5</tspan></text>
<text xml:space="preserve" transform="translate(63.8755,37.9) rotate(-0,6,-5.5)" font-family="FreeSans" font-weight="normal" font-style="normal" font-size="10"><tspan y="-1" fill="rgb(38,38,38)" x="0 ">6</tspan></text>
<polyline fill="none" stroke="#262626" stroke-width="0.5" stroke-linecap="square" stroke-linejoin="miter" stroke-dasharray="16,0" points="74.8799,384.48 521.28,384.48"/>
<polyline fill="none" stroke="#262626" stroke-width="0.5" stroke-linecap="square" stroke-linejoin="miter" stroke-dasharray="16,0" points="74.8799,32.3999 521.28,32.3999"/>
<polyline fill="none" stroke="#262626" stroke-width="0.5" stroke-linecap="square" stroke-linejoin="miter" stroke-dasharray="16,0" points="74.8799,384.48 74.8799,32.3999"/>
<polyline fill="none" stroke="#262626" stroke-width="0.5" stroke-linecap="square" stroke-linejoin="miter" stroke-dasharray="16,0" points="521.28,384.48 521.28,32.3999"/>
<text xml:space="preserve" transform="translate(247.58,413.481) rotate(-0,50.5,-13)" font-family="FreeSans" font-weight="normal" font-style="normal" font-size="11"><tspan y="-2" fill="rgb(38,38,38)" x="0 8 14 23 29 33 39 42 48 54 57 59 62 68 72 78 84 90 96 ">Número de iterações</tspan></text>
<text xml:space="preserve" transform="translate(8.87552,208.44) rotate(-90,51,0)" font-family="FreeSans" font-weight="normal" font-style="normal" font-size="11"><tspan y="-2" fill="rgb(38,38,38)" x="0 2 8 14 18 26 32 37 39 45 51 57 60 68 74 76 82 85 87 92 98 ">log(Resíduo Relativo)</tspan></text>
<text xml:space="preserve" transform="translate(279.08,22.4) rotate(-0,19,0)" font-family="FreeSans" font-weight="bold" font-style="normal" font-size="11"><tspan y="-2" fill="rgb(0,0,0)" x="0 7 10 16 20 26 32 ">plat362</tspan></text>
<polyline fill="none" stroke="#0071bc" stroke-width="0.5" stroke-linecap="butt" stroke-linejoin="round" points="75.3262,211.619 75.7729,168.981 76.2192,160.62 76.6655,158.594 77.1118,165.009 77.5586,158.434 78.0049,158.663 78.4512,163.036 78.8975,167.32 79.3438,163.577 79.7905,167.5 80.2368,167.002 80.6831,163.145 81.1294,172.859 81.5762,179.178 82.0225,179.881 82.4688,175.28 82.915,175.205 83.3618,169.015 83.8081,172.578 84.2544,178.23 84.7007,181.73 85.147,179.09 85.5938,179.123 86.04,184.85 86.4863,191.624 86.9326,199.135 87.3794,201.479 87.8257,213.526 88.272,211.312 88.7183,214.642 89.165,218.179 89.6113,226.266 90.0576,228.104 90.5039,232.709 90.9502,237.394 91.397,232.905 91.8433,235.528 92.2896,221.242 92.7358,195.877 93.1826,186.081 93.6289,177.724 94.0752,157.485 94.5215,147.709 94.9678,141.889 95.4146,131.254 95.8608,128.66 96.3071,133.327 96.7534,130.209 97.2002,131.735 97.6465,141.058 98.0928,150.166 98.5391,163.946 98.9854,177.45 99.4321,198.552 99.8784,211.771 100.325,227.282 100.771,227.495 101.218,219.086 101.664,218.324 102.11,216.613 102.557,196.143 103.003,178.225 103.45,156.206 103.896,139.903 104.342,130.057 104.789,128.21 105.235,150.358 105.682,167.118 106.128,186.773 106.574,199.238 107.021,215.013 107.467,227.083 107.914,223.683 108.36,210.25 108.807,197.614 109.253,168.853 109.699,157.662 110.146,124.709 110.592,111.805 111.039,102.349 111.485,95.6914 111.931,92.9951 112.377,102.744 112.824,113.61 113.271,139.069 113.717,173.265 114.163,197.419 114.609,222.209 115.056,231.606 115.502,238.868 115.949,244.149 116.395,216.034 116.842,182.349 117.288,137.667 117.734,99.4746 118.181,83.7656 118.627,90.1362 119.074,105.023 119.52,122.119 119.966,150.954 120.413,199.062 120.859,231.854 121.306,246.215 121.752,228.15 122.198,193 122.645,174.124 123.091,116.456 123.538,98.3472 123.984,80.3252 124.43,79.7148 124.877,82.8335 125.323,122.742 125.77,154.182 126.216,175.565 126.663,225.15 127.109,261.654 127.555,274.731 128.001,256.981 128.448,238.975 128.895,191.465 129.341,178.506 129.787,129.164 130.233,107.274 130.68,107.39 131.126,140.327 131.573,184.808 132.019,215.892 132.466,253.619 132.912,275.072 133.358,264.433 133.805,239.141 134.251,181.362 134.698,125.686 135.144,107.594 135.59,89.9551 136.037,79.5967 136.483,107.263 136.93,147.614 137.376,206.454 137.822,230.685 138.269,260.568 138.715,283.158 139.162,246.786 139.608,205.92 140.054,147.769 140.501,75.3867 140.947,50.4551 141.394,87.8989 141.84,127.713 142.287,188.541 142.733,239.279 143.179,239.714 143.625,241.169 144.072,201.304 144.519,187.115 144.965,212.717 145.411,232.158 145.857,172.719 146.304,140.887 146.75,115.971 147.197,134.351 147.643,150.44 148.09,110.434 148.536,50.7437 148.982,81.0386 149.429,108.271 149.875,150.122 150.322,163.951 150.768,158.753 151.214,158.655 151.661,203.991 152.107,193.988 152.554,176.263 153,157.756 153.446,219.403 153.893,213.089 154.339,201.891 154.786,182.656 155.232,245.071 155.678,242.086 156.125,233.095 156.571,270.429 157.018,246.731 157.464,200.304 157.91,160.625 158.357,161.053 158.803,128.114 159.25,38.7603 159.696,77.3003 160.143,121.734 160.589,89.8931 161.035,123.385 161.481,228.384 161.928,203.992 162.375,234.152 162.821,259.196 163.267,201.023 163.713,217.399 164.16,145.719 164.606,144.149 165.053,105.257 165.499,51.6152 165.946,118.626 166.392,136.201 166.838,203.359 167.285,264.483 167.731,243.794 168.178,286.807 168.624,253.601 169.07,212 169.517,214.677 169.963,137.916 170.41,125.29 170.856,112.221 171.302,63.7642 171.749,87.6333 172.195,105.529 172.642,104.332 173.088,156.506 173.534,193.11 173.981,217.939 174.427,264.14 174.874,254.125 175.32,263.23 175.767,245.018 176.213,210.738 176.659,191.56 177.105,135.238 177.552,125.904 177.999,110.568 178.445,120.209 178.891,155.149 179.337,184.929 179.784,208.729 180.23,199.107 180.677,200.268 181.123,169.513 181.57,116.517 182.016,97.626 182.462,84.6504 182.909,81.8149 183.355,101.707 183.802,140.363 184.248,177.598 184.694,209.572 185.141,241.849 185.587,273.265 186.034,263.057 186.48,246.398 186.926,210.302 187.373,194.555 187.819,143.576 188.266,99.6973 188.712,83.5107 189.158,77.8691 189.605,92.1128 190.051,129.84 190.498,176.407 190.944,202.364 191.391,212.62 191.837,197.002 192.283,166.666 192.729,135.839 193.176,140.537 193.623,173.225 194.069,168.698 194.515,142.953 194.961,131.772 195.408,122.983 195.854,132.526 196.301,160.002 196.747,187.414 197.193,181.841 197.64,167.853 198.086,174.544 198.533,197.261 198.979,227.792 199.426,267.664 199.872,272.751 200.318,271.286 200.765,238.177 201.211,207.271 201.658,164.526 202.104,114.918 202.55,83.6465 202.997,92.7764 203.443,109.407 203.89,117.712 204.336,105.486 204.782,86.4209 205.229,84.3955 205.675,90.6162 206.122,132.927 206.568,168.564 207.015,168.52 207.461,184.902 207.907,162.822 208.354,147.511 208.8,143.597 209.247,166.89 209.693,180.89 210.139,195.78 210.585,205.15 211.032,208.994 211.479,232.104 211.925,263.29 212.371,265.07 212.817,269.002 213.264,232.016 213.71,202.517 214.157,193.972 214.603,187.084 215.05,148.883 215.496,90.2393 215.942,55.5049 216.389,75.3052 216.835,99.3101 217.282,107.846 217.728,110.521 218.174,107.816 218.621,137.115 219.067,184.753 219.514,242.26 219.96,246.034 220.406,251.152 220.853,260.598 221.299,261.749 221.746,279.118 222.192,278.754 222.638,241.645 223.085,189.505 223.531,142.572 223.978,77.7808 224.424,70.7793 224.871,105.736 225.317,109.95 225.763,119.373 226.209,141.973 226.656,187.537 227.103,210.991 227.549,263.783 227.995,301.425 228.441,291.415 228.888,272.534 229.334,230.516 229.781,189.78 230.227,167.85 230.674,181.422 231.12,120.373 231.566,105.967 232.013,63.1094 232.459,87.8594 232.906,113.409 233.352,143.222 233.798,158.28 234.245,171.956 234.691,234.312 235.138,265.8 235.584,277.345 236.03,272.799 236.477,287.456 236.923,247.429 237.37,166.391 237.816,138.131 238.262,93.0747 238.709,95.1562 239.155,100.369 239.602,92.541 240.048,105.274 240.495,179.765 240.941,232.812 241.387,262.696 241.833,277.893 242.28,263.645 242.727,262.576 243.173,217.123 243.619,188.611 244.065,215.496 244.512,235.41 244.958,225.97 245.405,128.885 245.851,107.902 246.297,114.461 246.744,134.624 247.19,117.433 247.637,135.261 248.083,168.402 248.53,136.324 248.976,143.349 249.422,247.977 249.869,227.331 250.315,220.873 250.762,225.488 251.208,195.827 251.654,149.84 252.101,97.1987 252.547,150.219 252.994,130.68 253.44,167.22 253.886,185.38 254.333,234.947 254.779,196.726 255.226,121.426 255.672,156.486 256.118,160.047 256.565,172.818 257.011,184.351 257.458,129.861 257.904,148.739 258.351,187.292 258.797,191.833 259.243,166.444 259.689,114.516 260.136,197.442 260.583,208.313 261.029,281.959 261.475,293.051 261.921,262.685 262.368,273.722 262.814,239.09 263.261,251.898 263.707,234.024 264.154,189.979 264.6,144.103 265.046,136.65 265.493,61.6045 265.939,48.3354 266.386,105.137 266.832,99.9917 267.278,124.05 267.725,114.825 268.171,157.763 268.618,221.476 269.064,225.424 269.51,274.281 269.957,258.477 270.403,241.203 270.85,241.224 271.296,253.466 271.742,234.923 272.189,215.028 272.635,186.163 273.082,169.787 273.528,154.235 273.975,180.034 274.421,219.354 274.867,241.948 275.313,246.727 275.76,229.142 276.207,259.085 276.653,260.4 277.099,250.389 277.545,245.706 277.992,180.293 278.438,130.595 278.885,98.1694 279.331,69.9229 279.778,107.63 280.224,119.7 280.67,153.457 281.117,217.344 281.563,233.156 282.01,234.614 282.456,201.253 282.902,204.927 283.349,173.544 283.795,149.392 284.242,115.901 284.688,76.4917 285.134,54.1025 285.581,75.4844 286.027,114.191 286.474,148.822 286.92,182.584 287.366,214.835 287.813,239.024 288.259,249.036 288.706,269.23 289.152,278.632 289.599,283.222 290.045,267.948 290.491,250.903 290.938,211.035 291.384,138.555 291.831,115.363 292.277,108.316 292.723,120.025 293.169,120.03 293.616,111.599 294.062,113.681 294.509,107.13 294.955,88.8062 295.401,81.1982 295.848,98.0591 296.294,111.264 296.741,175.851 297.187,199.026 297.634,216.102 298.08,217.158 298.526,221.203 298.973,228.989 299.419,217.335 299.866,200.884 300.312,173.388 300.758,155.13 301.205,156.775 301.651,152.475 302.098,138.579 302.544,126.863 302.99,110.888 303.437,118.851 303.883,95.6011 304.33,92.3203 304.776,160.439 305.222,198.191 305.669,239.767 306.115,278.985 306.562,308.787 307.008,277.633 307.455,225.452 307.901,200.85 308.347,203.542 308.793,229.948 309.24,204.745 309.687,140.815 310.133,105.33 310.579,64.1821 311.025,57.4351 311.472,74.0615 311.918,107.854 312.365,124.001 312.811,133.355 313.258,145.86 313.704,135.728 314.15,124.246 314.597,92.9492 315.043,97.356 315.49,149.697 315.936,199.25 316.382,241.714 316.829,288.618 317.275,289.622 317.722,301.931 318.168,285.057 318.614,284.277 319.061,245.532 319.507,231.225 319.954,222.11 320.4,211.468 320.846,159.675 321.293,131.872 321.739,90.876 322.186,83.9497 322.632,61.5889 323.079,53.2769 323.525,92.1963 323.971,130.963 324.417,126.23 324.864,122.301 325.311,138.354 325.757,207.561 326.203,250.214 326.649,245.128 327.096,227.149 327.542,218.571 327.989,176.945 328.435,170.959 328.882,182.501 329.328,203.331 329.774,185.837 330.221,203.929 330.667,265.914 331.114,329.903 331.56,307.696 332.006,284.125 332.453,227.725 332.899,182.805 333.346,145.354 333.792,132.341 334.238,98.0566 334.685,83.2544 335.131,84.1719 335.578,89.4868 336.024,81.5083 336.47,68.6855 336.917,151.116 337.363,196.835 337.81,238.087 338.256,252.243 338.703,232.496 339.149,188.722 339.595,178.921 340.042,166.398 340.488,165.822 340.935,171.258 341.381,188.47 341.827,158.093 342.273,115.415 342.72,117.442 343.167,91.5112 343.613,83.6382 344.059,116.168 344.505,102.894 344.952,170.162 345.398,235.341 345.845,307.608 346.291,278.792 346.738,286.461 347.184,201.708 347.63,172.858 348.077,172.582 348.523,195.318 348.97,182.959 349.416,217.419 349.862,186.211 350.309,222.526 350.755,223.549 351.202,225.411 351.648,226.058 352.094,244.242 352.541,262.403 352.987,231.664 353.434,220.507 353.88,188.439 354.326,134.34 354.773,99.0762 355.219,59.9971 355.666,81.6562 356.112,56.6787 356.559,85.73 357.005,138.756 357.451,113.161 357.897,110.226 358.344,153.515 358.791,164.996 359.237,170.824 359.683,185.937 360.129,212.865 360.576,278.44 361.022,292.716 361.469,326.967 361.915,302.191 362.362,269.898 362.808,242.731 363.254,230.649 363.701,196.902 364.147,218.443 364.594,201.501 365.04,220.382 365.486,255.411 365.933,212.624 366.379,183.147 366.826,160.424 367.272,94.9077 367.718,91.7749 368.165,113.204 368.611,170.85 369.058,229.743 369.504,229.986 369.95,240.636 370.397,222.34 370.843,170.028 371.29,156.386 371.736,120.908 372.183,124.903 372.629,126.314 373.075,103.166 373.521,102.731 373.968,92.2329 374.415,170.123 374.861,221.299 375.307,221.151 375.753,242.927 376.2,202.949 376.646,238.821 377.093,247.356 377.539,230.698 377.986,214.326 378.432,160.942 378.878,156.918 379.325,119.569 379.771,98.5679 380.218,91.4365 380.664,98.1401 381.11,143.383 381.557,191.049 382.003,244.133 382.45,230.215 382.896,252.029 383.342,267.472 383.789,292.187 384.235,313.673 384.682,289.784 385.128,277.87 385.574,263.582 386.021,230.942 386.467,196.463 386.914,185.979 387.36,183.373 387.807,202.191 388.253,166.949 388.699,101.456 389.146,105.408 389.592,75.8804 390.039,77.4375 390.485,81.2124 390.931,68.8101 391.377,102.994 391.824,124.67 392.271,150.95 392.717,174.32 393.163,235.454 393.609,275.174 394.056,286.882 394.502,283.664 394.949,252.315 395.395,190.615 395.842,160.753 396.288,120.607 396.734,118.799 397.181,123.96 397.627,137.827 398.074,184.584 398.52,212.94 398.966,239.71 399.413,221.08 399.859,210.839 400.306,195.413 400.752,227.954 401.198,229.748 401.645,237.897 402.091,195.584 402.538,182.952 402.984,172.207 403.43,183.931 403.877,183.422 404.323,194.561 404.77,214.097 405.216,264.385 405.663,302.718 406.109,289.325 406.555,258.927 407.001,234.873 407.448,256.406 407.895,249.468 408.341,243.332 408.787,194.045 409.233,146.033 409.68,127.141 410.126,107.178 410.573,106.248 411.019,104.464 411.466,127.726 411.912,144.371 412.358,156.435 412.805,165.964 413.251,207.094 413.698,241.274 414.144,248.817 414.59,220.411 415.037,151.417 415.483,148.37 415.93,147.104 416.376,123.805 416.822,90.4629 417.269,127.526 417.715,162.485 418.162,157.575 418.608,121.238 419.054,101.744 419.501,95.5449 419.947,94.5649 420.394,86.3232 420.84,114.786 421.287,135.474 421.733,164.937 422.179,241.009 422.625,300.929 423.072,295.668 423.519,321.772 423.965,299.108 424.411,260 424.857,204.487 425.304,183.073 425.75,155.001 426.197,140.104 426.643,147.478 427.09,109.854 427.536,101.929 427.982,114.117 428.429,118.039 428.875,90.3516 429.322,115.209 429.768,159.932 430.214,195.443 430.661,199.319 431.107,240.213 431.554,215.369 432,171.231 432.446,181.525 432.893,181.717 433.339,155.182 433.786,141.433 434.232,144.89 434.678,114.983 435.125,138.369 435.571,185.454 436.018,253.252 436.464,191.932 436.91,196.427 437.357,212.325 437.803,245.827 438.25,250.064 438.696,214.625 439.143,152.77 439.589,129.941 440.035,99.1489 440.481,64.8657 440.928,60.3584 441.375,98.4663 441.821,117.66 442.267,131.756 442.713,159.598 443.16,196.96 443.606,230.789 444.053,256.227 444.499,304.168 444.946,263.795 445.392,245.629 445.838,214.635 446.285,208.872 446.731,193.229 447.178,178.639 447.624,145.959 448.07,162.653 448.517,164.109 448.963,158.977 449.41,219.512 449.856,236.122 450.302,201.31 450.749,216.132 451.195,244.78 451.642,288.04 452.088,308.473 452.534,332.41 452.981,323.103 453.427,285.221 453.874,259.395 454.32,203.604 454.767,151.272 455.213,155.379 455.659,100.961 456.105,44.7939 456.552,65.8047 456.999,53.6704 457.445,120.491 457.891,175.554 458.337,189.487 458.784,226.31 459.23,212.688 459.677,244.681 460.123,236.276 460.57,256.725 461.016,283.443 461.462,296.363 461.909,307.49 462.355,270.66 462.802,231.801 463.248,270.151 463.694,278.483 464.141,295.717 464.587,306.48 465.034,287.38 465.48,266.891 465.926,195.91 466.373,178.18 466.819,173.14 467.266,124.739 467.712,73.5806 468.158,66.2148 468.605,91.1069 469.051,102.602 469.498,96.1001 469.944,121.338 470.391,162.372 470.837,183.478 471.283,246.532 471.729,262.543 472.176,227.247 472.623,168.522 473.069,113.406 473.515,117.786 473.961,173.171 474.408,174.148 474.854,188.792 475.301,193.846 475.747,182.305 476.193,221.079 476.64,200.427 477.086,127.725"/>
</g>
</g>
</svg>
