<?xml version="1.0" encoding="UTF-8" standalone="no"?>
<svg xmlns="http://www.w3.org/2000/svg"
     xmlns:xlink="http://www.w3.org/1999/xlink"
     width="576pt" height="432pt" viewBox="0 0 576 432">
<title>gl2ps_renderer figure</title>
<desc>
Creator: GL2PS 1.4.0, (C) 1999-2017 C. Geuzaine
For: Octave
CreationDate: Sun May 29 10:53:16 2022
</desc>
<defs>
</defs>
<polygon fill="#ffffff" points="0,0 576,0 576,432 0,432"/>
<g>
<polygon fill="#ffffff" points="0,432 576,432 576,0 0,0" shape-rendering="crispEdges"/>
<clipPath id="cp00576432">
  <polygon points="0,432 576,432 576,0 0,0"/>
</clipPath>
<g clip-path="url(#cp00576432)">
<polygon fill="#ffffff" shape-rendering="crispEdges" points="74.8799,384.48 521.28,384.48 521.28,32.3999"/>
<polygon fill="#ffffff" shape-rendering="crispEdges" points="74.8799,384.48 521.28,32.3999 74.8799,32.3999"/>
<polyline fill="none" stroke="#262626" stroke-width="0.5" stroke-linecap="butt" stroke-linejoin="miter" points="74.8799,384.48 74.8799,380.015"/>
<polyline fill="none" stroke="#262626" stroke-width="0.5" stroke-linecap="butt" stroke-linejoin="miter" points="74.8799,32.3999 74.8799,36.8652"/>
<polyline fill="none" stroke="#262626" stroke-width="0.5" stroke-linecap="butt" stroke-linejoin="miter" points="149.28,384.48 149.28,380.015"/>
<polyline fill="none" stroke="#262626" stroke-width="0.5" stroke-linecap="butt" stroke-linejoin="miter" points="149.28,32.3999 149.28,36.8652"/>
<polyline fill="none" stroke="#262626" stroke-width="0.5" stroke-linecap="butt" stroke-linejoin="miter" points="223.68,384.48 223.68,380.015"/>
<polyline fill="none" stroke="#262626" stroke-width="0.5" stroke-linecap="butt" stroke-linejoin="miter" points="223.68,32.3999 223.68,36.8652"/>
<polyline fill="none" stroke="#262626" stroke-width="0.5" stroke-linecap="butt" stroke-linejoin="miter" points="298.08,384.48 298.08,380.015"/>
<polyline fill="none" stroke="#262626" stroke-width="0.5" stroke-linecap="butt" stroke-linejoin="miter" points="298.08,32.3999 298.08,36.8652"/>
<polyline fill="none" stroke="#262626" stroke-width="0.5" stroke-linecap="butt" stroke-linejoin="miter" points="372.48,384.48 372.48,380.015"/>
<polyline fill="none" stroke="#262626" stroke-width="0.5" stroke-linecap="butt" stroke-linejoin="miter" points="372.48,32.3999 372.48,36.8652"/>
<polyline fill="none" stroke="#262626" stroke-width="0.5" stroke-linecap="butt" stroke-linejoin="miter" points="446.88,384.48 446.88,380.015"/>
<polyline fill="none" stroke="#262626" stroke-width="0.5" stroke-linecap="butt" stroke-linejoin="miter" points="446.88,32.3999 446.88,36.8652"/>
<polyline fill="none" stroke="#262626" stroke-width="0.5" stroke-linecap="butt" stroke-linejoin="miter" points="521.28,384.48 521.28,380.015"/>
<polyline fill="none" stroke="#262626" stroke-width="0.5" stroke-linecap="butt" stroke-linejoin="miter" points="521.28,32.3999 521.28,36.8652"/>
<text xml:space="preserve" transform="translate(71.88,400.481) rotate(-0,3,-11)" font-family="FreeSans" font-weight="normal" font-style="normal" font-size="10"><tspan y="-1" fill="rgb(38,38,38)" x="0 ">0</tspan></text>
<text xml:space="preserve" transform="translate(140.28,400.481) rotate(-0,9,-11)" font-family="FreeSans" font-weight="normal" font-style="normal" font-size="10"><tspan y="-1" fill="rgb(38,38,38)" x="0 6 12 ">200</tspan></text>
<text xml:space="preserve" transform="translate(214.68,400.481) rotate(-0,9,-11)" font-family="FreeSans" font-weight="normal" font-style="normal" font-size="10"><tspan y="-1" fill="rgb(38,38,38)" x="0 6 12 ">400</tspan></text>
<text xml:space="preserve" transform="translate(289.08,400.481) rotate(-0,9,-11)" font-family="FreeSans" font-weight="normal" font-style="normal" font-size="10"><tspan y="-1" fill="rgb(38,38,38)" x="0 6 12 ">600</tspan></text>
<text xml:space="preserve" transform="translate(363.48,400.481) rotate(-0,9,-11)" font-family="FreeSans" font-weight="normal" font-style="normal" font-size="10"><tspan y="-1" fill="rgb(38,38,38)" x="0 6 12 ">800</tspan></text>
<text xml:space="preserve" transform="translate(434.88,400.481) rotate(-0,12,-11)" font-family="FreeSans" font-weight="normal" font-style="normal" font-size="10"><tspan y="-1" fill="rgb(38,38,38)" x="0 6 12 18 ">1000</tspan></text>
<text xml:space="preserve" transform="translate(509.28,400.481) rotate(-0,12,-11)" font-family="FreeSans" font-weight="normal" font-style="normal" font-size="10"><tspan y="-1" fill="rgb(38,38,38)" x="0 6 12 18 ">1200</tspan></text>
<polyline fill="none" stroke="#262626" stroke-width="0.5" stroke-linecap="butt" stroke-linejoin="miter" points="74.8799,384.48 79.3481,384.48"/>
<polyline fill="none" stroke="#262626" stroke-width="0.5" stroke-linecap="butt" stroke-linejoin="miter" points="521.28,384.48 516.812,384.48"/>
<polyline fill="none" stroke="#262626" stroke-width="0.5" stroke-linecap="butt" stroke-linejoin="miter" points="74.8799,325.8 79.3481,325.8"/>
<polyline fill="none" stroke="#262626" stroke-width="0.5" stroke-linecap="butt" stroke-linejoin="miter" points="521.28,325.8 516.812,325.8"/>
<polyline fill="none" stroke="#262626" stroke-width="0.5" stroke-linecap="butt" stroke-linejoin="miter" points="74.8799,267.12 79.3481,267.12"/>
<polyline fill="none" stroke="#262626" stroke-width="0.5" stroke-linecap="butt" stroke-linejoin="miter" points="521.28,267.12 516.812,267.12"/>
<polyline fill="none" stroke="#262626" stroke-width="0.5" stroke-linecap="butt" stroke-linejoin="miter" points="74.8799,208.44 79.3481,208.44"/>
<polyline fill="none" stroke="#262626" stroke-width="0.5" stroke-linecap="butt" stroke-linejoin="miter" points="521.28,208.44 516.812,208.44"/>
<polyline fill="none" stroke="#262626" stroke-width="0.5" stroke-linecap="butt" stroke-linejoin="miter" points="74.8799,149.76 79.3481,149.76"/>
<polyline fill="none" stroke="#262626" stroke-width="0.5" stroke-linecap="butt" stroke-linejoin="miter" points="521.28,149.76 516.812,149.76"/>
<polyline fill="none" stroke="#262626" stroke-width="0.5" stroke-linecap="butt" stroke-linejoin="miter" points="74.8799,91.0801 79.3481,91.0801"/>
<polyline fill="none" stroke="#262626" stroke-width="0.5" stroke-linecap="butt" stroke-linejoin="miter" points="521.28,91.0801 516.812,91.0801"/>
<polyline fill="none" stroke="#262626" stroke-width="0.5" stroke-linecap="butt" stroke-linejoin="miter" points="74.8799,32.3999 79.3481,32.3999"/>
<polyline fill="none" stroke="#262626" stroke-width="0.5" stroke-linecap="butt" stroke-linejoin="miter" points="521.28,32.3999 516.812,32.3999"/>
<text xml:space="preserve" transform="translate(63.8755,389.98) rotate(-0,6,-5.5)" font-family="FreeSans" font-weight="normal" font-style="normal" font-size="10"><tspan y="-1" fill="rgb(38,38,38)" x="0 ">0</tspan></text>
<text xml:space="preserve" transform="translate(63.8755,331.3) rotate(-0,6,-5.5)" font-family="FreeSans" font-weight="normal" font-style="normal" font-size="10"><tspan y="-1" fill="rgb(38,38,38)" x="0 ">1</tspan></text>
<text xml:space="preserve" transform="translate(63.8755,272.62) rotate(-0,6,-5.5)" font-family="FreeSans" font-weight="normal" font-style="normal" font-size="10"><tspan y="-1" fill="rgb(38,38,38)" x="0 ">2</tspan></text>
<text xml:space="preserve" transform="translate(63.8755,213.94) rotate(-0,6,-5.5)" font-family="FreeSans" font-weight="normal" font-style="normal" font-size="10"><tspan y="-1" fill="rgb(38,38,38)" x="0 ">3</tspan></text>
<text xml:space="preserve" transform="translate(63.8755,155.26) rotate(-0,6,-5.5)" font-family="FreeSans" font-weight="normal" font-style="normal" font-size="10"><tspan y="-1" fill="rgb(38,38,38)" x="0 ">4</tspan></text>
<text xml:space="preserve" transform="translate(63.8755,96.58) rotate(-0,6,-5.5)" font-family="FreeSans" font-weight="normal" font-style="normal" font-size="10"><tspan y="-1" fill="rgb(38,38,38)" x="0 ">5</tspan></text>
<text xml:space="preserve" transform="translate(63.8755,37.9) rotate(-0,6,-5.5)" font-family="FreeSans" font-weight="normal" font-style="normal" font-size="10"><tspan y="-1" fill="rgb(38,38,38)" x="0 ">6</tspan></text>
<polyline fill="none" stroke="#262626" stroke-width="0.5" stroke-linecap="square" stroke-linejoin="miter" stroke-dasharray="16,0" points="74.8799,384.48 521.28,384.48"/>
<polyline fill="none" stroke="#262626" stroke-width="0.5" stroke-linecap="square" stroke-linejoin="miter" stroke-dasharray="16,0" points="74.8799,32.3999 521.28,32.3999"/>
<polyline fill="none" stroke="#262626" stroke-width="0.5" stroke-linecap="square" stroke-linejoin="miter" stroke-dasharray="16,0" points="74.8799,384.48 74.8799,32.3999"/>
<polyline fill="none" stroke="#262626" stroke-width="0.5" stroke-linecap="square" stroke-linejoin="miter" stroke-dasharray="16,0" points="521.28,384.48 521.28,32.3999"/>
<text xml:space="preserve" transform="translate(247.58,413.481) rotate(-0,50.5,-13)" font-family="FreeSans" font-weight="normal" font-style="normal" font-size="11"><tspan y="-2" fill="rgb(38,38,38)" x="0 8 14 23 29 33 39 42 48 54 57 59 62 68 72 78 84 90 96 ">Número de iterações</tspan></text>
<text xml:space="preserve" transform="translate(8.87552,208.44) rotate(-90,51,0)" font-family="FreeSans" font-weight="normal" font-style="normal" font-size="11"><tspan y="-2" fill="rgb(38,38,38)" x="0 2 8 14 18 26 32 37 39 45 51 57 60 68 74 76 82 85 87 92 98 ">log(Resíduo Relativo)</tspan></text>
<text xml:space="preserve" transform="translate(279.08,22.4) rotate(-0,19,0)" font-family="FreeSans" font-weight="bold" font-style="normal" font-size="11"><tspan y="-2" fill="rgb(0,0,0)" x="0 7 10 16 20 26 32 ">plat362</tspan></text>
<polyline fill="none" stroke="#0071bc" stroke-width="0.5" stroke-linecap="butt" stroke-linejoin="round" points="75.252,211.619 75.624,168.981 75.9961,160.62 76.3682,158.594 76.7402,165.009 77.1118,158.434 77.4839,158.663 77.856,163.036 78.228,167.32 78.6001,163.577 78.9722,167.5 79.3438,167.002 79.7158,163.145 80.0879,172.859 80.46,179.178 80.832,179.881 81.2041,175.28 81.5762,175.205 81.9482,169.015 82.3198,172.578 82.6919,178.23 83.064,181.73 83.436,179.09 83.8081,179.123 84.1802,184.85 84.5518,191.624 84.9238,199.135 85.2959,201.479 85.668,213.526 86.04,211.312 86.4121,214.642 86.7842,218.179 87.1562,226.266 87.5278,228.104 87.8999,232.709 88.272,237.394 88.644,232.905 89.0161,235.528 89.3882,221.242 89.7598,195.877 90.1318,186.081 90.5039,177.724 90.876,157.486 91.248,147.724 91.6201,142.098 91.9922,133.296 92.3638,127.278 92.7358,132.283 93.1079,130.113 93.48,131.723 93.8521,141.057 94.2241,150.166 94.5962,163.945 94.9678,177.449 95.3398,198.542 95.7119,211.674 96.084,226.475 96.4561,223.636 96.8281,220.519 97.2002,222.279 97.5718,216.984 97.9438,196.168 98.3159,178.227 98.688,156.209 99.0601,139.946 99.4321,130.548 99.8042,127.837 100.176,150.305 100.548,166.918 100.92,184.616 101.292,193.064 101.664,218.012 102.036,227.655 102.408,223.733 102.78,210.365 103.152,199.126 103.524,171.961 103.896,143.582 104.268,131.604 104.64,102.176 105.012,94.0791 105.384,94.3984 105.756,94.0581 106.128,107.591 106.5,117.123 106.872,136.691 107.244,172.992 107.616,197.536 107.988,223.983 108.36,237.497 108.732,234.82 109.104,242.159 109.476,215.856 109.848,182.317 110.22,137.462 110.592,97.0483 110.964,81.4463 111.336,92.6587 111.708,107.258 112.08,118.703 112.452,151.153 112.824,199.214 113.196,231.764 113.568,245.458 113.94,226.865 114.312,199.59 114.684,175.594 115.056,121.493 115.428,109.828 115.8,80.7383 116.172,83.689 116.544,92.1738 116.916,121.57 117.288,144.71 117.66,174.184 118.032,225.606 118.404,259.421 118.776,262.825 119.148,267.182 119.52,247.006 119.892,211.033 120.264,183.787 120.636,129.825 121.008,109.666 121.38,111.293 121.752,140.018 122.124,188.438 122.496,237.076 122.868,252.162 123.24,273.227 123.612,265.255 123.984,229.635 124.356,180.43 124.728,127.376 125.1,99.6113 125.472,92.0015 125.844,82.4585 126.216,115.055 126.588,147.878 126.96,199.837 127.332,214.307 127.704,264.854 128.076,284.466 128.448,245.472 128.82,196.321 129.192,146.33 129.564,76.1279 129.936,61.5239 130.308,92.4814 130.68,148.144 131.052,185.758 131.424,244.277 131.796,242.484 132.168,207.153 132.54,200.941 132.912,198.213 133.284,229.679 133.656,223.79 134.028,212.058 134.4,125.81 134.772,95 135.144,111.681 135.516,127.406 135.888,116.576 136.26,97.9688 136.632,54.5293 137.004,108.715 137.376,146.328 137.748,169.707 138.12,145.157 138.492,145.194 138.864,194.989 139.236,229.928 139.608,227.696 139.98,207.905 140.352,196.112 140.724,248.223 141.096,229.099 141.468,171.06 141.84,236.453 142.212,246.758 142.584,244.914 142.956,210.537 143.328,247.006 143.7,194.649 144.072,164.573 144.444,125.178 144.816,151.9 145.188,49.7856 145.56,102.641 145.932,122.282 146.304,93.5029 146.676,197.487 147.048,186.512 147.42,184.766 147.792,252.78 148.164,255.815 148.536,216.506 148.908,200.407 149.28,105.774 149.652,96.5352 150.024,69.9414 150.396,56.7349 150.768,137.897 151.14,170.988 151.512,173.067 151.884,250.617 152.256,223.88 152.628,283.576 153,267.127 153.372,224.723 153.744,235.428 154.116,217.034 154.488,138.812 154.86,146.832 155.232,79.5908 155.604,75.7075 155.976,95.792 156.348,91.7725 156.72,168.619 157.092,178.354 157.464,242.758 157.836,255.245 158.208,251.425 158.58,250.992 158.952,206.331 159.324,170.54 159.696,161.419 160.068,138.277 160.44,167.317 160.812,175.505 161.184,209.237 161.556,229.291 161.928,241.977 162.3,226.088 162.672,202.409 163.044,176.568 163.416,137.004 163.788,82.4536 164.16,70.3696 164.532,86.6421 164.904,115.194 165.276,137.139 165.648,174.12 166.02,184.303 166.392,225.354 166.764,250.474 167.136,272.771 167.508,267.201 167.88,223.815 168.252,184.651 168.624,167.569 168.996,125.275 169.368,100.846 169.74,78.6016 170.112,75.5615 170.484,114.731 170.856,154.916 171.228,185.483 171.6,215.507 171.972,202.868 172.344,165.214 172.716,140.394 173.088,141.353 173.46,149.953 173.832,132.907 174.204,137.754 174.576,117.026 174.948,112.26 175.32,136.144 175.692,187.907 176.064,209.82 176.436,237.253 176.808,226.296 177.18,219.866 177.552,211.277 177.924,237.224 178.296,268.561 178.668,261.339 179.04,252.202 179.412,222.42 179.784,191.503 180.156,181.147 180.528,185.438 180.9,189.574 181.272,196.304 181.644,174.043 182.016,133.542 182.388,102.273 182.76,67.0762 183.132,61.1265 183.504,71.5659 183.876,110.717 184.248,133.963 184.62,177.03 184.992,204.45 185.364,200.1 185.736,205.393 186.108,234.946 186.48,249.05 186.852,244.06 187.224,228.55 187.596,209.937 187.968,198.367 188.34,219.659 188.712,238.313 189.084,254.11 189.456,230.925 189.828,218.553 190.2,226.96 190.572,214.495 190.944,159.548 191.316,134.749 191.688,105.503 192.06,71.6543 192.432,69.3535 192.804,98.1816 193.176,106.838 193.548,86.5225 193.92,104.579 194.292,140.211 194.664,189.532 195.036,226.107 195.408,260.825 195.78,272.306 196.152,272.565 196.524,260.211 196.896,272.679 197.268,256.435 197.64,240.499 198.012,179.876 198.384,147.201 198.756,91.5859 199.128,78.7104 199.5,79.2324 199.872,117.886 200.244,138.255 200.616,131.493 200.988,172.081 201.36,212.596 201.732,258.808 202.104,308.588 202.476,288.496 202.848,243.458 203.22,228.924 203.592,223.816 203.964,214.824 204.336,157.816 204.708,106.36 205.08,90.9209 205.452,96.312 205.824,92.9858 206.196,108.173 206.568,117.635 206.94,144.631 207.312,181.141 207.684,226.889 208.056,271.495 208.428,279.396 208.8,271.954 209.172,272.607 209.544,252.554 209.916,245.072 210.288,185.229 210.66,122.649 211.032,73.7021 211.404,85.1426 211.776,89.7759 212.148,98.7476 212.52,118.897 212.892,156.259 213.264,210.875 213.636,267.303 214.008,292.521 214.38,266.224 214.752,210.081 215.124,193.295 215.496,183.919 215.868,135.828 216.24,168.843 216.612,154.276 216.984,112.798 217.356,119.755 217.728,154.947 218.1,171.896 218.472,196.898 218.844,192.072 219.216,235.387 219.588,178.748 219.96,205.695 220.332,241.866 220.704,245.953 221.076,184.551 221.448,200.93 221.82,178.596 222.192,160.375 222.564,148.436 222.936,187.258 223.308,160.81 223.68,116.673 224.052,92.897 224.424,159.225 224.796,150.311 225.168,225.625 225.54,214.301 225.912,154.215 226.284,167.538 226.656,96.5869 227.028,86.2876 227.4,185.417 227.772,227.617 228.144,259.381 228.516,301.73 228.888,248.998 229.26,263.362 229.632,269.401 230.004,247.793 230.376,258.022 230.748,140.293 231.12,141.992 231.492,103.303 231.864,151.703 232.236,148.052 232.608,117.179 232.98,134.998 233.352,109.68 233.724,131.657 234.096,110.524 234.468,79.1548 234.84,94.5127 235.212,106.488 235.584,164.15 235.956,155.142 236.328,187.034 236.7,201.309 237.072,214.978 237.444,263.38 237.816,282.566 238.188,263.702 238.56,229.034 238.932,171.164 239.304,161.373 239.676,152.471 240.048,163.096 240.42,218.082 240.792,234.208 241.164,252.67 241.536,291.404 241.908,263.734 242.28,219.77 242.652,203.969 243.024,161.707 243.396,147.967 243.768,139.867 244.14,103.595 244.512,90.5244 244.884,75.728 245.256,89.4043 245.628,147.512 246,165.672 246.372,209.683 246.744,232.19 247.116,229.084 247.488,203.636 247.86,171.046 248.232,169.005 248.604,158.764 248.976,119.836 249.348,101.29 249.72,64.6133 250.092,76.5981 250.464,108.864 250.836,127.659 251.208,149.721 251.58,151.471 251.952,182.968 252.324,220.267 252.696,252.88 253.068,288.914 253.44,301.862 253.812,247.142 254.184,214.904 254.556,200.165 254.928,187.958 255.3,160.645 255.672,118.205 256.044,106.66 256.416,64.0781 256.788,79.3369 257.16,126.016 257.532,137.801 257.904,120.142 258.276,133.382 258.648,156.257 259.02,167.944 259.392,163.193 259.764,183.936 260.136,204.215 260.508,229.691 260.88,212.602 261.252,201.038 261.624,176.419 261.996,181.726 262.368,200.535 262.74,215.071 263.112,208.717 263.484,168.557 263.856,140.378 264.228,112.212 264.6,116.148 264.972,141.967 265.344,127.457 265.716,117.392 266.088,115.06 266.46,119.767 266.832,128.268 267.204,144.664 267.576,201.358 267.948,250.831 268.32,287.379 268.692,307.417 269.064,275.251 269.436,242.222 269.808,174.953 270.18,135.871 270.552,70.7539 270.924,51.832 271.296,65.0024 271.668,113.403 272.04,147.557 272.412,156.533 272.784,187.527 273.156,188.084 273.528,203.736 273.9,183.195 274.272,177.234 274.644,169.441 275.016,187.745 275.388,216.492 275.76,217.966 276.132,215.715 276.504,219.377 276.876,261.149 277.248,277.61 277.62,310.392 277.992,303.919 278.364,264.678 278.736,235.893 279.108,215.086 279.48,181.913 279.852,182.154 280.224,147.009 280.596,117.159 280.968,77.5952 281.34,47.0107 281.712,67.2266 282.084,88.146 282.456,87.0781 282.828,106.031 283.2,114.323 283.572,153.523 283.944,165.38 284.316,186.431 284.688,236.433 285.06,262.864 285.432,216.556 285.804,181.726 286.176,157.65 286.548,171.302 286.92,171.868 287.292,174.6 287.664,241.816 288.036,306.977 288.408,317.809 288.78,315.111 289.152,257.659 289.524,207.394 289.896,185.909 290.268,159.58 290.64,95.7607 291.012,50.6943 291.384,72.3735 291.756,134.86 292.128,187.794 292.5,162.864 292.872,197.195 293.244,236.841 293.616,252.174 293.988,230.913 294.36,218.925 294.732,206.68 295.104,161.619 295.476,83.6064 295.848,94.6001 296.22,132.722 296.592,165.921 296.964,178.666 297.336,202.851 297.708,218.525 298.08,230.09 298.452,249.835 298.824,284.616 299.196,255.184 299.568,254.371 299.94,242.645 300.312,248.059 300.684,239.181 301.056,253.406 301.428,215.354 301.8,191.557 302.172,219.925 302.544,194.744 302.916,163.461 303.288,189.904 303.66,224.968 304.032,216.552 304.404,218.151 304.776,216.307 305.148,219.509 305.52,197.833 305.892,252.755 306.264,272.601 306.636,237.412 307.008,235.051 307.38,194.373 307.752,219.934 308.124,175.619 308.496,192.22 308.868,188.01 309.24,130.269 309.612,119.273 309.984,65.4033 310.356,75.2822 310.728,114.719 311.1,135.678 311.472,177.012 311.844,166.909 312.216,220.095 312.588,293.165 312.96,308.271 313.332,331.958 313.704,264.943 314.076,231.134 314.448,210.835 314.82,175.358 315.192,218.36 315.564,226.393 315.936,236.963 316.308,219.915 316.68,184.982 317.052,122.973 317.424,132.431 317.796,113.795 318.168,81.9795 318.54,123.948 318.912,119.366 319.284,149.916 319.656,155.311 320.028,142.127 320.4,181.852 320.772,196.082 321.144,216.046 321.516,244.504 321.888,222.341 322.26,194.654 322.632,159.103 323.004,136.832 323.376,137.701 323.748,115.17 324.12,103.619 324.492,64.6147 324.864,103.686 325.236,118.651 325.608,158.701 325.98,211.336 326.352,207.184 326.724,221.122 327.096,263.283 327.468,259.826 327.84,254.931 328.212,166.419 328.584,100.671 328.956,83.0776 329.328,108.317 329.7,123.835 330.072,145.6 330.444,189.687 330.816,237.548 331.188,260.402 331.56,313.095 331.932,314.018 332.304,299.603 332.676,243.999 333.048,196.13 333.42,166.198 333.792,127.765 334.164,119.062 334.536,78.3398 334.908,41.4629 335.28,51.6748 335.652,77.0879 336.024,151.78 336.396,191.48 336.768,232.794 337.14,263.335 337.512,271.612 337.884,297.236 338.256,270.521 338.628,237.557 339,205.106 339.372,194.593 339.744,198.491 340.116,204.131 340.488,195.726 340.86,206.155 341.232,235.389 341.604,237.498 341.976,230.122 342.348,238.391 342.72,236.591 343.092,243.918 343.464,236.155 343.836,245.816 344.208,258.009 344.58,219.494 344.952,207.392 345.324,154.094 345.696,162.475 346.068,162.39 346.44,187.691 346.812,158.216 347.184,135.218 347.556,113.416 347.928,145.488 348.3,176.276 348.672,177.468 349.044,164.561 349.416,179.673 349.788,211.251 350.16,218.705 350.532,208.836 350.904,224.628 351.276,255.834 351.648,275.517 352.02,289.974 352.392,245.336 352.764,208.95 353.136,162.022 353.508,124.948 353.88,110.83 354.252,105.251 354.624,107.032 354.996,123.652 355.368,147.994 355.74,176.657 356.112,193.129 356.484,207.094 356.856,242.736 357.228,264.674 357.6,231.43 357.972,193.768 358.344,183.301 358.716,137.178 359.088,113.431 359.46,106.176 359.832,127.023 360.204,135.679 360.576,152.579 360.948,146.04 361.32,133.851 361.692,122.929 362.064,84.3711 362.436,93.9287 362.808,86.0117 363.18,90.6523 363.552,99.4819 363.924,174.397 364.296,186.781 364.668,230.822 365.04,215.712 365.412,261.294 365.784,286.463 366.156,299.877 366.528,309.294 366.9,310.853 367.272,260.824 367.644,213.263 368.016,204.096 368.388,207.254 368.76,178.125 369.132,128.971 369.504,86.7729 369.876,105.519 370.248,101.814 370.62,169.941 370.992,187.384 371.364,207.919 371.736,180.013 372.108,231.067 372.48,225.554 372.852,231.271 373.224,210.451 373.596,208.897 373.968,189.62 374.34,137.632 374.712,155.038 375.084,128.255 375.456,137.967 375.828,154.812 376.2,219.688 376.572,251.059 376.944,257.206 377.316,234.78 377.688,202.262 378.06,170.158 378.432,110.332 378.804,41.9766 379.176,74.9126 379.548,99.5835 379.92,136.339 380.292,183.407 380.664,266.897 381.036,299.59 381.408,239.613 381.78,224.106 382.152,187.018 382.524,146.164 382.896,119.122 383.268,201.212 383.64,212.958 384.012,243.909 384.384,283.663 384.756,274.389 385.128,255.16 385.5,280.535 385.872,285.703 386.244,309.932 386.616,320.691 386.988,302.574 387.36,296.074 387.732,269.042 388.104,223.009 388.476,276.532 388.848,249.017 389.22,230.317 389.592,158.993 389.964,175.094 390.336,156.913 390.708,121.492 391.08,133.39 391.452,117.573 391.824,111.285 392.196,120.158 392.568,68.9858 392.94,84.4175 393.312,69.8374 393.684,70.5801 394.056,107.921 394.428,114.587 394.8,181.022 395.172,273.752 395.544,327.257 395.916,308.511 396.288,308.167 396.66,296.862 397.032,282.075 397.404,277.233 397.776,247.81 398.148,214.411 398.52,188.307 398.892,172.865 399.264,168 399.636,159.642 400.008,201.464 400.38,197.109 400.752,172.919 401.124,140.731 401.496,116.327 401.868,81.9717 402.24,87.5996 402.612,53.1191 402.984,118.123 403.356,166.658 403.728,174.713 404.1,179.482 404.472,187.486 404.844,182.969 405.216,196.532 405.588,158.252 405.96,144.61 406.332,138.371 406.704,138.352 407.076,128.837 407.448,120.282 407.82,134.879 408.192,188.895 408.564,235.161 408.936,225.052 409.308,228.687 409.68,229.805 410.052,235.666 410.424,218.544 410.796,199.091 411.168,170.108 411.54,181.396 411.912,133.845 412.284,105.402 412.656,84.6367 413.028,62.8677 413.4,79.2593 413.772,85.459 414.144,75.5107 414.516,123.849 414.888,199.894 415.26,231.921 415.632,272.125 416.004,266.736 416.376,282.297 416.748,295.783 417.12,333.43 417.492,332.267 417.864,313.161 418.236,295.76 418.608,261.865 418.98,229.934 419.352,196.018 419.724,148.604 420.096,133.708 420.468,111.993 420.84,154.271 421.212,191.113 421.584,247.185 421.956,260.113 422.328,238.996 422.7,209.603 423.072,190.436 423.444,155.786 423.816,110.021 424.188,83.355 424.56,101.584 424.932,107.947 425.304,106.147 425.676,130.695 426.048,186.984 426.42,214.708 426.792,220.033 427.164,213.448 427.536,215.238 427.908,244.96 428.28,245.94 428.652,263.874 429.024,226.312 429.396,199.295 429.768,180.33 430.14,167.706 430.512,162.328 430.884,160.261 431.256,177.44 431.628,158.693 432,119.612 432.372,68.4956 432.744,77.2866 433.116,104.103 433.488,120.923 433.86,94.2075 434.232,88.7397 434.604,107.657 434.976,138.845 435.348,186.075 435.72,252.812 436.092,246.105 436.464,186.729 436.836,187.937 437.208,142.243 437.58,136.336 437.952,140.341 438.324,179.734 438.696,196.493 439.068,230.175 439.44,212.575 439.812,259.392 440.184,299.386 440.556,319.98 440.928,285.725 441.3,243.804 441.672,222.467 442.044,230.149 442.416,247.562 442.788,254.755 443.16,277.009 443.532,253.128 443.904,208.045 444.276,174.967 444.648,159.52 445.02,120.886 445.392,136.459 445.764,150.001 446.136,174.883 446.508,227.357 446.88,253.681 447.252,246.472"/>
</g>
</g>
</svg>
