<?xml version="1.0" encoding="UTF-8" standalone="no"?>
<svg xmlns="http://www.w3.org/2000/svg"
     xmlns:xlink="http://www.w3.org/1999/xlink"
     width="576pt" height="432pt" viewBox="0 0 576 432">
<title>gl2ps_renderer figure</title>
<desc>
Creator: GL2PS 1.4.0, (C) 1999-2017 C. Geuzaine
For: Octave
CreationDate: Wed May 25 22:07:04 2022
</desc>
<defs>
</defs>
<polygon fill="#ffffff" points="0,0 576,0 576,432 0,432"/>
<g>
<polygon fill="#ffffff" points="0,432 576,432 576,0 0,0" shape-rendering="crispEdges"/>
<clipPath id="cp00576432">
  <polygon points="0,432 576,432 576,0 0,0"/>
</clipPath>
<g clip-path="url(#cp00576432)">
<polygon fill="#ffffff" shape-rendering="crispEdges" points="74.8799,384.48 521.28,384.48 521.28,32.3999"/>
<polygon fill="#ffffff" shape-rendering="crispEdges" points="74.8799,384.48 521.28,32.3999 74.8799,32.3999"/>
<polyline fill="none" stroke="#262626" stroke-width="0.5" stroke-linecap="butt" stroke-linejoin="miter" points="74.8799,384.48 74.8799,380.015"/>
<polyline fill="none" stroke="#262626" stroke-width="0.5" stroke-linecap="butt" stroke-linejoin="miter" points="74.8799,32.3999 74.8799,36.8652"/>
<polyline fill="none" stroke="#262626" stroke-width="0.5" stroke-linecap="butt" stroke-linejoin="miter" points="149.28,384.48 149.28,380.015"/>
<polyline fill="none" stroke="#262626" stroke-width="0.5" stroke-linecap="butt" stroke-linejoin="miter" points="149.28,32.3999 149.28,36.8652"/>
<polyline fill="none" stroke="#262626" stroke-width="0.5" stroke-linecap="butt" stroke-linejoin="miter" points="223.68,384.48 223.68,380.015"/>
<polyline fill="none" stroke="#262626" stroke-width="0.5" stroke-linecap="butt" stroke-linejoin="miter" points="223.68,32.3999 223.68,36.8652"/>
<polyline fill="none" stroke="#262626" stroke-width="0.5" stroke-linecap="butt" stroke-linejoin="miter" points="298.08,384.48 298.08,380.015"/>
<polyline fill="none" stroke="#262626" stroke-width="0.5" stroke-linecap="butt" stroke-linejoin="miter" points="298.08,32.3999 298.08,36.8652"/>
<polyline fill="none" stroke="#262626" stroke-width="0.5" stroke-linecap="butt" stroke-linejoin="miter" points="372.48,384.48 372.48,380.015"/>
<polyline fill="none" stroke="#262626" stroke-width="0.5" stroke-linecap="butt" stroke-linejoin="miter" points="372.48,32.3999 372.48,36.8652"/>
<polyline fill="none" stroke="#262626" stroke-width="0.5" stroke-linecap="butt" stroke-linejoin="miter" points="446.88,384.48 446.88,380.015"/>
<polyline fill="none" stroke="#262626" stroke-width="0.5" stroke-linecap="butt" stroke-linejoin="miter" points="446.88,32.3999 446.88,36.8652"/>
<polyline fill="none" stroke="#262626" stroke-width="0.5" stroke-linecap="butt" stroke-linejoin="miter" points="521.28,384.48 521.28,380.015"/>
<polyline fill="none" stroke="#262626" stroke-width="0.5" stroke-linecap="butt" stroke-linejoin="miter" points="521.28,32.3999 521.28,36.8652"/>
<text xml:space="preserve" transform="translate(71.88,400.481) rotate(-0,3,-11)" font-family="FreeSans" font-weight="normal" font-style="normal" font-size="10"><tspan y="-1" fill="rgb(38,38,38)" x="0 ">0</tspan></text>
<text xml:space="preserve" transform="translate(143.28,400.481) rotate(-0,6,-11)" font-family="FreeSans" font-weight="normal" font-style="normal" font-size="10"><tspan y="-1" fill="rgb(38,38,38)" x="0 6 ">20</tspan></text>
<text xml:space="preserve" transform="translate(217.68,400.481) rotate(-0,6,-11)" font-family="FreeSans" font-weight="normal" font-style="normal" font-size="10"><tspan y="-1" fill="rgb(38,38,38)" x="0 6 ">40</tspan></text>
<text xml:space="preserve" transform="translate(292.08,400.481) rotate(-0,6,-11)" font-family="FreeSans" font-weight="normal" font-style="normal" font-size="10"><tspan y="-1" fill="rgb(38,38,38)" x="0 6 ">60</tspan></text>
<text xml:space="preserve" transform="translate(366.48,400.481) rotate(-0,6,-11)" font-family="FreeSans" font-weight="normal" font-style="normal" font-size="10"><tspan y="-1" fill="rgb(38,38,38)" x="0 6 ">80</tspan></text>
<text xml:space="preserve" transform="translate(437.88,400.481) rotate(-0,9,-11)" font-family="FreeSans" font-weight="normal" font-style="normal" font-size="10"><tspan y="-1" fill="rgb(38,38,38)" x="0 6 12 ">100</tspan></text>
<text xml:space="preserve" transform="translate(512.28,400.481) rotate(-0,9,-11)" font-family="FreeSans" font-weight="normal" font-style="normal" font-size="10"><tspan y="-1" fill="rgb(38,38,38)" x="0 6 12 ">120</tspan></text>
<polyline fill="none" stroke="#262626" stroke-width="0.5" stroke-linecap="butt" stroke-linejoin="miter" points="74.8799,384.48 79.3481,384.48"/>
<polyline fill="none" stroke="#262626" stroke-width="0.5" stroke-linecap="butt" stroke-linejoin="miter" points="521.28,384.48 516.812,384.48"/>
<polyline fill="none" stroke="#262626" stroke-width="0.5" stroke-linecap="butt" stroke-linejoin="miter" points="74.8799,296.46 79.3481,296.46"/>
<polyline fill="none" stroke="#262626" stroke-width="0.5" stroke-linecap="butt" stroke-linejoin="miter" points="521.28,296.46 516.812,296.46"/>
<polyline fill="none" stroke="#262626" stroke-width="0.5" stroke-linecap="butt" stroke-linejoin="miter" points="74.8799,208.44 79.3481,208.44"/>
<polyline fill="none" stroke="#262626" stroke-width="0.5" stroke-linecap="butt" stroke-linejoin="miter" points="521.28,208.44 516.812,208.44"/>
<polyline fill="none" stroke="#262626" stroke-width="0.5" stroke-linecap="butt" stroke-linejoin="miter" points="74.8799,120.42 79.3481,120.42"/>
<polyline fill="none" stroke="#262626" stroke-width="0.5" stroke-linecap="butt" stroke-linejoin="miter" points="521.28,120.42 516.812,120.42"/>
<polyline fill="none" stroke="#262626" stroke-width="0.5" stroke-linecap="butt" stroke-linejoin="miter" points="74.8799,32.3999 79.3481,32.3999"/>
<polyline fill="none" stroke="#262626" stroke-width="0.5" stroke-linecap="butt" stroke-linejoin="miter" points="521.28,32.3999 516.812,32.3999"/>
<text xml:space="preserve" transform="translate(63.8755,389.98) rotate(-0,6,-5.5)" font-family="FreeSans" font-weight="normal" font-style="normal" font-size="10"><tspan y="-1" fill="rgb(38,38,38)" x="0 ">4</tspan></text>
<text xml:space="preserve" transform="translate(63.8755,301.96) rotate(-0,6,-5.5)" font-family="FreeSans" font-weight="normal" font-style="normal" font-size="10"><tspan y="-1" fill="rgb(38,38,38)" x="0 ">5</tspan></text>
<text xml:space="preserve" transform="translate(63.8755,213.94) rotate(-0,6,-5.5)" font-family="FreeSans" font-weight="normal" font-style="normal" font-size="10"><tspan y="-1" fill="rgb(38,38,38)" x="0 ">6</tspan></text>
<text xml:space="preserve" transform="translate(63.8755,125.92) rotate(-0,6,-5.5)" font-family="FreeSans" font-weight="normal" font-style="normal" font-size="10"><tspan y="-1" fill="rgb(38,38,38)" x="0 ">7</tspan></text>
<text xml:space="preserve" transform="translate(63.8755,37.9) rotate(-0,6,-5.5)" font-family="FreeSans" font-weight="normal" font-style="normal" font-size="10"><tspan y="-1" fill="rgb(38,38,38)" x="0 ">8</tspan></text>
<polyline fill="none" stroke="#262626" stroke-width="0.5" stroke-linecap="square" stroke-linejoin="miter" stroke-dasharray="16,0" points="74.8799,384.48 521.28,384.48"/>
<polyline fill="none" stroke="#262626" stroke-width="0.5" stroke-linecap="square" stroke-linejoin="miter" stroke-dasharray="16,0" points="74.8799,32.3999 521.28,32.3999"/>
<polyline fill="none" stroke="#262626" stroke-width="0.5" stroke-linecap="square" stroke-linejoin="miter" stroke-dasharray="16,0" points="74.8799,384.48 74.8799,32.3999"/>
<polyline fill="none" stroke="#262626" stroke-width="0.5" stroke-linecap="square" stroke-linejoin="miter" stroke-dasharray="16,0" points="521.28,384.48 521.28,32.3999"/>
<text xml:space="preserve" transform="translate(247.58,413.481) rotate(-0,50.5,-13)" font-family="FreeSans" font-weight="normal" font-style="normal" font-size="11"><tspan y="-2" fill="rgb(38,38,38)" x="0 8 14 23 29 33 39 42 48 54 57 59 62 68 72 78 84 90 96 ">Número de iterações</tspan></text>
<text xml:space="preserve" transform="translate(8.87552,208.44) rotate(-90,51,0)" font-family="FreeSans" font-weight="normal" font-style="normal" font-size="11"><tspan y="-2" fill="rgb(38,38,38)" x="0 2 8 14 18 26 32 37 39 45 51 57 60 68 74 76 82 85 87 92 98 ">log(Resíduo Relativo)</tspan></text>
<text xml:space="preserve" transform="translate(270.58,22.4) rotate(-0,27.5,0)" font-family="FreeSans" font-weight="bold" font-style="normal" font-size="11"><tspan y="-2" fill="rgb(0,0,0)" x="0 6 12 16 26 33 39 49 ">s1rmq4m1</tspan></text>
<polyline fill="none" stroke="#0071bc" stroke-width="0.5" stroke-linecap="butt" stroke-linejoin="round" points="78.6001,357.612 82.3198,170.749 86.04,167.925 89.7598,171.533 93.48,172.563 97.2002,173.938 100.92,176.008 104.64,176.447 108.36,178.283 112.08,178.703 115.8,180.037 119.52,180.388 123.24,181.155 126.96,181.6 130.68,181.829 134.4,182.199 138.12,182.018 141.84,182.227 145.56,181.749 149.28,181.511 153,180.864 156.72,179.835 160.44,177.2 164.16,170.289 167.88,157.542 171.6,142.889 175.32,138.285 179.04,145.289 182.76,148.994 186.48,145.536 190.2,151.778 193.92,132.188 197.64,121.081 201.36,129.648 205.08,125.701 208.8,122.003 212.52,127.58 216.24,127.056 219.96,128.093 223.68,130.319 227.4,130.148 231.12,128.306 234.84,132.035 238.56,128.258 242.28,132.653 246,129.338 249.72,133.344 253.44,136.461 257.16,136.12 260.88,139.016 264.6,130.095 268.32,127.637 272.04,125.649 275.76,122.863 279.48,106.65 283.2,80.811 286.92,69.7627 290.64,74.7031 294.36,74.8462 298.08,66.5469 301.8,89.1362 305.52,99.4819 309.24,94.9961 312.96,100.816 316.68,115.612 320.4,110.608 324.12,121.244 327.84,128.564 331.56,128.217 335.28,133.753 339,128.308 342.72,127.419 346.44,131.939 350.16,133.205 353.88,138.391 357.6,143.25 361.32,138.92 365.04,143.434 368.76,139.381 372.48,137.148 376.2,131.5 379.92,127.718 383.64,135.334 387.36,139.729 391.08,146.783 394.8,144.282 398.52,142.78 402.24,145.09 405.96,148.18 409.68,153.454 413.4,147.436 417.12,157.089 420.84,156.047 424.56,154.207 428.28,151.399 432,144.24 435.72,128.481 439.44,120.852 443.16,116.851 446.88,99.2202 450.6,98.7505"/>
</g>
</g>
</svg>
