<?xml version="1.0" encoding="UTF-8" standalone="no"?>
<svg xmlns="http://www.w3.org/2000/svg"
     xmlns:xlink="http://www.w3.org/1999/xlink"
     width="576pt" height="432pt" viewBox="0 0 576 432">
<title>gl2ps_renderer figure</title>
<desc>
Creator: GL2PS 1.4.0, (C) 1999-2017 C. Geuzaine
For: Octave
CreationDate: Sun May 29 10:54:45 2022
</desc>
<defs>
</defs>
<polygon fill="#ffffff" points="0,0 576,0 576,432 0,432"/>
<g>
<polygon fill="#ffffff" points="0,432 576,432 576,0 0,0" shape-rendering="crispEdges"/>
<clipPath id="cp00576432">
  <polygon points="0,432 576,432 576,0 0,0"/>
</clipPath>
<g clip-path="url(#cp00576432)">
<polygon fill="#ffffff" shape-rendering="crispEdges" points="74.8799,384.48 521.28,384.48 521.28,32.3999"/>
<polygon fill="#ffffff" shape-rendering="crispEdges" points="74.8799,384.48 521.28,32.3999 74.8799,32.3999"/>
<polyline fill="none" stroke="#262626" stroke-width="0.5" stroke-linecap="butt" stroke-linejoin="miter" points="74.8799,384.48 74.8799,380.015"/>
<polyline fill="none" stroke="#262626" stroke-width="0.5" stroke-linecap="butt" stroke-linejoin="miter" points="74.8799,32.3999 74.8799,36.8652"/>
<polyline fill="none" stroke="#262626" stroke-width="0.5" stroke-linecap="butt" stroke-linejoin="miter" points="149.28,384.48 149.28,380.015"/>
<polyline fill="none" stroke="#262626" stroke-width="0.5" stroke-linecap="butt" stroke-linejoin="miter" points="149.28,32.3999 149.28,36.8652"/>
<polyline fill="none" stroke="#262626" stroke-width="0.5" stroke-linecap="butt" stroke-linejoin="miter" points="223.68,384.48 223.68,380.015"/>
<polyline fill="none" stroke="#262626" stroke-width="0.5" stroke-linecap="butt" stroke-linejoin="miter" points="223.68,32.3999 223.68,36.8652"/>
<polyline fill="none" stroke="#262626" stroke-width="0.5" stroke-linecap="butt" stroke-linejoin="miter" points="298.08,384.48 298.08,380.015"/>
<polyline fill="none" stroke="#262626" stroke-width="0.5" stroke-linecap="butt" stroke-linejoin="miter" points="298.08,32.3999 298.08,36.8652"/>
<polyline fill="none" stroke="#262626" stroke-width="0.5" stroke-linecap="butt" stroke-linejoin="miter" points="372.48,384.48 372.48,380.015"/>
<polyline fill="none" stroke="#262626" stroke-width="0.5" stroke-linecap="butt" stroke-linejoin="miter" points="372.48,32.3999 372.48,36.8652"/>
<polyline fill="none" stroke="#262626" stroke-width="0.5" stroke-linecap="butt" stroke-linejoin="miter" points="446.88,384.48 446.88,380.015"/>
<polyline fill="none" stroke="#262626" stroke-width="0.5" stroke-linecap="butt" stroke-linejoin="miter" points="446.88,32.3999 446.88,36.8652"/>
<polyline fill="none" stroke="#262626" stroke-width="0.5" stroke-linecap="butt" stroke-linejoin="miter" points="521.28,384.48 521.28,380.015"/>
<polyline fill="none" stroke="#262626" stroke-width="0.5" stroke-linecap="butt" stroke-linejoin="miter" points="521.28,32.3999 521.28,36.8652"/>
<text xml:space="preserve" transform="translate(71.88,400.481) rotate(-0,3,-11)" font-family="FreeSans" font-weight="normal" font-style="normal" font-size="10"><tspan y="-1" fill="rgb(38,38,38)" x="0 ">0</tspan></text>
<text xml:space="preserve" transform="translate(140.28,400.481) rotate(-0,9,-11)" font-family="FreeSans" font-weight="normal" font-style="normal" font-size="10"><tspan y="-1" fill="rgb(38,38,38)" x="0 6 12 ">200</tspan></text>
<text xml:space="preserve" transform="translate(214.68,400.481) rotate(-0,9,-11)" font-family="FreeSans" font-weight="normal" font-style="normal" font-size="10"><tspan y="-1" fill="rgb(38,38,38)" x="0 6 12 ">400</tspan></text>
<text xml:space="preserve" transform="translate(289.08,400.481) rotate(-0,9,-11)" font-family="FreeSans" font-weight="normal" font-style="normal" font-size="10"><tspan y="-1" fill="rgb(38,38,38)" x="0 6 12 ">600</tspan></text>
<text xml:space="preserve" transform="translate(363.48,400.481) rotate(-0,9,-11)" font-family="FreeSans" font-weight="normal" font-style="normal" font-size="10"><tspan y="-1" fill="rgb(38,38,38)" x="0 6 12 ">800</tspan></text>
<text xml:space="preserve" transform="translate(434.88,400.481) rotate(-0,12,-11)" font-family="FreeSans" font-weight="normal" font-style="normal" font-size="10"><tspan y="-1" fill="rgb(38,38,38)" x="0 6 12 18 ">1000</tspan></text>
<text xml:space="preserve" transform="translate(509.28,400.481) rotate(-0,12,-11)" font-family="FreeSans" font-weight="normal" font-style="normal" font-size="10"><tspan y="-1" fill="rgb(38,38,38)" x="0 6 12 18 ">1200</tspan></text>
<polyline fill="none" stroke="#262626" stroke-width="0.5" stroke-linecap="butt" stroke-linejoin="miter" points="74.8799,384.48 79.3481,384.48"/>
<polyline fill="none" stroke="#262626" stroke-width="0.5" stroke-linecap="butt" stroke-linejoin="miter" points="521.28,384.48 516.812,384.48"/>
<polyline fill="none" stroke="#262626" stroke-width="0.5" stroke-linecap="butt" stroke-linejoin="miter" points="74.8799,296.46 79.3481,296.46"/>
<polyline fill="none" stroke="#262626" stroke-width="0.5" stroke-linecap="butt" stroke-linejoin="miter" points="521.28,296.46 516.812,296.46"/>
<polyline fill="none" stroke="#262626" stroke-width="0.5" stroke-linecap="butt" stroke-linejoin="miter" points="74.8799,208.44 79.3481,208.44"/>
<polyline fill="none" stroke="#262626" stroke-width="0.5" stroke-linecap="butt" stroke-linejoin="miter" points="521.28,208.44 516.812,208.44"/>
<polyline fill="none" stroke="#262626" stroke-width="0.5" stroke-linecap="butt" stroke-linejoin="miter" points="74.8799,120.42 79.3481,120.42"/>
<polyline fill="none" stroke="#262626" stroke-width="0.5" stroke-linecap="butt" stroke-linejoin="miter" points="521.28,120.42 516.812,120.42"/>
<polyline fill="none" stroke="#262626" stroke-width="0.5" stroke-linecap="butt" stroke-linejoin="miter" points="74.8799,32.3999 79.3481,32.3999"/>
<polyline fill="none" stroke="#262626" stroke-width="0.5" stroke-linecap="butt" stroke-linejoin="miter" points="521.28,32.3999 516.812,32.3999"/>
<text xml:space="preserve" transform="translate(63.8755,389.98) rotate(-0,6,-5.5)" font-family="FreeSans" font-weight="normal" font-style="normal" font-size="10"><tspan y="-1" fill="rgb(38,38,38)" x="0 ">4</tspan></text>
<text xml:space="preserve" transform="translate(63.8755,301.96) rotate(-0,6,-5.5)" font-family="FreeSans" font-weight="normal" font-style="normal" font-size="10"><tspan y="-1" fill="rgb(38,38,38)" x="0 ">5</tspan></text>
<text xml:space="preserve" transform="translate(63.8755,213.94) rotate(-0,6,-5.5)" font-family="FreeSans" font-weight="normal" font-style="normal" font-size="10"><tspan y="-1" fill="rgb(38,38,38)" x="0 ">6</tspan></text>
<text xml:space="preserve" transform="translate(63.8755,125.92) rotate(-0,6,-5.5)" font-family="FreeSans" font-weight="normal" font-style="normal" font-size="10"><tspan y="-1" fill="rgb(38,38,38)" x="0 ">7</tspan></text>
<text xml:space="preserve" transform="translate(63.8755,37.9) rotate(-0,6,-5.5)" font-family="FreeSans" font-weight="normal" font-style="normal" font-size="10"><tspan y="-1" fill="rgb(38,38,38)" x="0 ">8</tspan></text>
<polyline fill="none" stroke="#262626" stroke-width="0.5" stroke-linecap="square" stroke-linejoin="miter" stroke-dasharray="16,0" points="74.8799,384.48 521.28,384.48"/>
<polyline fill="none" stroke="#262626" stroke-width="0.5" stroke-linecap="square" stroke-linejoin="miter" stroke-dasharray="16,0" points="74.8799,32.3999 521.28,32.3999"/>
<polyline fill="none" stroke="#262626" stroke-width="0.5" stroke-linecap="square" stroke-linejoin="miter" stroke-dasharray="16,0" points="74.8799,384.48 74.8799,32.3999"/>
<polyline fill="none" stroke="#262626" stroke-width="0.5" stroke-linecap="square" stroke-linejoin="miter" stroke-dasharray="16,0" points="521.28,384.48 521.28,32.3999"/>
<text xml:space="preserve" transform="translate(247.58,413.481) rotate(-0,50.5,-13)" font-family="FreeSans" font-weight="normal" font-style="normal" font-size="11"><tspan y="-2" fill="rgb(38,38,38)" x="0 8 14 23 29 33 39 42 48 54 57 59 62 68 72 78 84 90 96 ">Número de iterações</tspan></text>
<text xml:space="preserve" transform="translate(8.87552,208.44) rotate(-90,51,0)" font-family="FreeSans" font-weight="normal" font-style="normal" font-size="11"><tspan y="-2" fill="rgb(38,38,38)" x="0 2 8 14 18 26 32 37 39 45 51 57 60 68 74 76 82 85 87 92 98 ">log(Resíduo Relativo)</tspan></text>
<text xml:space="preserve" transform="translate(270.58,22.4) rotate(-0,27.5,0)" font-family="FreeSans" font-weight="bold" font-style="normal" font-size="11"><tspan y="-2" fill="rgb(0,0,0)" x="0 6 12 16 26 33 39 49 ">s1rmq4m1</tspan></text>
<polyline fill="none" stroke="#0071bc" stroke-width="0.5" stroke-linecap="butt" stroke-linejoin="round" points="75.252,357.612 75.624,170.749 75.9961,167.925 76.3682,171.533 76.7402,172.563 77.1118,173.938 77.4839,176.008 77.856,176.447 78.228,178.283 78.6001,178.703 78.9722,180.037 79.3438,180.388 79.7158,181.155 80.0879,181.6 80.46,181.829 80.832,182.199 81.2041,182.018 81.5762,182.227 81.9482,181.749 82.3198,181.511 82.6919,180.864 83.064,179.835 83.436,177.2 83.8081,170.289 84.1802,157.542 84.5518,142.889 84.9238,138.285 85.2959,145.289 85.668,148.994 86.04,145.536 86.4121,151.778 86.7842,132.188 87.1562,121.081 87.5278,129.648 87.8999,125.701 88.272,122.003 88.644,127.58 89.0161,127.056 89.3882,128.093 89.7598,130.319 90.1318,130.148 90.5039,128.306 90.876,132.035 91.248,128.258 91.6201,132.653 91.9922,129.338 92.3638,133.344 92.7358,136.461 93.1079,136.12 93.48,139.016 93.8521,130.095 94.2241,127.637 94.5962,125.649 94.9678,122.863 95.3398,106.65 95.7119,80.811 96.084,69.7627 96.4561,74.7031 96.8281,74.8462 97.2002,66.5469 97.5718,89.1362 97.9438,99.4819 98.3159,94.9961 98.688,100.816 99.0601,115.612 99.4321,110.608 99.8042,121.244 100.176,128.564 100.548,128.217 100.92,133.753 101.292,128.308 101.664,127.419 102.036,131.939 102.408,133.205 102.78,138.391 103.152,143.25 103.524,138.92 103.896,143.434 104.268,139.381 104.64,137.148 105.012,131.5 105.384,127.718 105.756,135.334 106.128,139.729 106.5,146.783 106.872,144.282 107.244,142.78 107.616,145.09 107.988,148.18 108.36,153.454 108.732,147.436 109.104,157.089 109.476,156.047 109.848,154.207 110.22,151.399 110.592,144.24 110.964,128.481 111.336,120.852 111.708,116.851 112.08,99.2202 112.452,98.7505 112.824,94.8389 113.196,93.8486 113.568,106.996 113.94,108.34 114.312,108.691 114.684,96.8516 115.056,101.323 115.428,100.107 115.8,100.138 116.172,109.65 116.544,106.16 116.916,108.404 117.288,120.59 117.66,119.531 118.032,125.361 118.404,131.127 118.776,136.227 119.148,137.19 119.52,134.496 119.892,150.664 120.264,147.467 120.636,143.437 121.008,148.59 121.38,149.432 121.752,143.817 122.124,149.496 122.496,147.042 122.868,145.938 123.24,150.267 123.612,154.88 123.984,154.525 124.356,154.604 124.728,164.342 125.1,162.873 125.472,169.351 125.844,167.011 126.216,165.388 126.588,163.63 126.96,162.329 127.332,159.935 127.704,159.967 128.076,156.744 128.448,163.995 128.82,166.046 129.192,163.116 129.564,175.065 129.936,181.904 130.308,187.798 130.68,184.292 131.052,180.931 131.424,180.938 131.796,192.318 132.168,187.035 132.54,183.051 132.912,187.412 133.284,178.775 133.656,178.545 134.028,176.433 134.4,174.424 134.772,174.788 135.144,173.46 135.516,168.894 135.888,169.017 136.26,162.813 136.632,152.25 137.004,139.584 137.376,138.694 137.748,139.07 138.12,129.805 138.492,121.652 138.864,109.33 139.236,112.042 139.608,107.088 139.98,102.989 140.352,102.291 140.724,94.7925 141.096,89.8452 141.468,88.1851 141.84,85.4873 142.212,87.8115 142.584,84.8438 142.956,84.2422 143.328,84.4238 143.7,87.1128 144.072,87.0947 144.444,86.188 144.816,91.623 145.188,92.1074 145.56,96.9912 145.932,103.179 146.304,103.119 146.676,103.47 147.048,103.902 147.42,105.824 147.792,111.828 148.164,115.485 148.536,120.56 148.908,119.688 149.28,114.311 149.652,110.488 150.024,109.043 150.396,109.536 150.768,111.93 151.14,116.992 151.512,118.347 151.884,124.782 152.256,128.529 152.628,128.623 153,126.218 153.372,122.281 153.744,129.238 154.116,116.174 154.488,118.576 154.86,112.96 155.232,111.688 155.604,107.816 155.976,104.663 156.348,94.5249 156.72,81.8975 157.092,81.1992 157.464,68.894 157.836,77.3013 158.208,69.4526 158.58,78.1699 158.952,79.7207 159.324,78.9941 159.696,76.668 160.068,74.7881 160.44,81.3457 160.812,83.2754 161.184,77.6826 161.556,79.9639 161.928,79.2329 162.3,86.1777 162.672,81.6182 163.044,91.7451 163.416,97.9507 163.788,107.012 164.16,114.091 164.532,120.317 164.904,119.982 165.276,123.17 165.648,124.252 166.02,126.455 166.392,126.22 166.764,119.932 167.136,115.449 167.508,115.763 167.88,116.014 168.252,116.115 168.624,121.362 168.996,118.956 169.368,109.717 169.74,102.45 170.112,104.083 170.484,95.4438 170.856,96.1147 171.228,96.4272 171.6,92.3389 171.972,89.9565 172.344,83.8945 172.716,73.1929 173.088,69.4233 173.46,69.2451 173.832,72.478 174.204,77.3203 174.576,79.3438 174.948,74.4072 175.32,78.2632 175.692,85.0742 176.064,90.1768 176.436,93.5161 176.808,102.713 177.18,105.097 177.552,102.869 177.924,104.897 178.296,101.983 178.668,96.1924 179.04,92.0869 179.412,86.8569 179.784,81.4185 180.156,92.5088 180.528,93.5645 180.9,94.999 181.272,106.383 181.644,109.051 182.016,106.759 182.388,110.889 182.76,109.138 183.132,108.955 183.504,114.172 183.876,118.219 184.248,118.562 184.62,118.854 184.992,115.853 185.364,118.752 185.736,118.454 186.108,113.879 186.48,115.598 186.852,111.938 187.224,114.266 187.596,111.43 187.968,106.429 188.34,110.881 188.712,106.052 189.084,99.042 189.456,96.2808 189.828,95.333 190.2,95.4023 190.572,91.5444 190.944,92.5571 191.316,90.7827 191.688,89.6016 192.06,94.4795 192.432,98.8877 192.804,96.646 193.176,98.7051 193.548,98.7944 193.92,107.912 194.292,102.295 194.664,106.804 195.036,104.412 195.408,100.166 195.78,97.7544 196.152,94.6724 196.524,94.1865 196.896,90.3789 197.268,91.855 197.64,93.7046 198.012,90.6079 198.384,103.84 198.756,108.313 199.128,111.012 199.5,114.463 199.872,116.194 200.244,116.257 200.616,115.651 200.988,109.568 201.36,106.47 201.732,112.603 202.104,108.799 202.476,104.219 202.848,100.891 203.22,99.4717 203.592,106.792 203.964,105.35 204.336,101.121 204.708,100.455 205.08,102.479 205.452,113.896 205.824,118.437 206.196,121.511 206.568,123.075 206.94,122.942 207.312,129.954 207.684,141.312 208.056,137.717 208.428,143.082 208.8,148.909 209.172,149.4 209.544,146.545 209.916,145.224 210.288,150.176 210.66,146.709 211.032,144.493 211.404,141.477 211.776,132.035 212.148,143.441 212.52,145.433 212.892,136.273 213.264,138.262 213.636,137.33 214.008,136.234 214.38,137.029 214.752,138.91 215.124,134.587 215.496,130.593 215.868,127.507 216.24,124.814 216.612,123.451 216.984,120.208 217.356,121.069 217.728,122.929 218.1,125.681 218.472,123.036 218.844,115.233 219.216,112.318 219.588,117.677 219.96,115.981 220.332,127.179 220.704,136.878 221.076,132.823 221.448,138.913 221.82,147.256 222.192,148.615 222.564,152.769 222.936,150.975 223.308,149.521 223.68,147.586 224.052,146.419 224.424,143.475 224.796,141.244 225.168,140.199 225.54,151.928 225.912,158.598 226.284,163.009 226.656,159.924 227.028,163.641 227.4,168.088 227.772,178.155 228.144,176.387 228.516,173.678 228.888,163.854 229.26,155.186 229.632,148.881 230.004,146.129 230.376,146.146 230.748,141.64 231.12,141.88 231.492,138.251 231.864,135.389 232.236,131.585 232.608,124.357 232.98,110.837 233.352,112.923 233.724,107.928 234.096,100.058 234.468,101.745 234.84,101.498 235.212,113.044 235.584,123.366 235.956,124.107 236.328,129.952 236.7,128.187 237.072,136.925 237.444,139.541 237.816,139.909 238.188,149.182 238.56,155.215 238.932,147.214 239.304,140.702 239.676,147.594 240.048,139.529 240.42,139.875 240.792,135.196 241.164,135.324 241.536,145.081 241.908,146.865 242.28,136.685 242.652,136.067 243.024,129.689 243.396,126.324 243.768,119.281 244.14,119.369 244.512,113.468 244.884,114.968 245.256,116.743 245.628,115.25 246,113.729 246.372,119.404 246.744,128.426 247.116,135.747 247.488,138.304 247.86,141.171 248.232,147.972 248.604,149.138 248.976,151.191 249.348,150.543 249.72,149.509 250.092,155.197 250.464,159.818 250.836,159.637 251.208,156.978 251.58,162.395 251.952,169.833 252.324,173.222 252.696,164.364 253.068,163.48 253.44,165.875 253.812,157.654 254.184,154.246 254.556,138.471 254.928,134.318 255.3,124.904 255.672,115.12 256.044,110.108 256.416,114.751 256.788,115.301 257.16,117.79 257.532,109.024 257.904,115.294 258.276,117.348 258.648,122.115 259.02,122.537 259.392,139.677 259.764,144.466 260.136,149.629 260.508,147.032 260.88,157.181 261.252,158.259 261.624,156.887 261.996,146.653 262.368,151.215 262.74,149.319 263.112,149.711 263.484,146.701 263.856,152.492 264.228,147.285 264.6,138.525 264.972,135.481 265.344,140.149 265.716,131.607 266.088,122.225 266.46,118.327 266.832,119.059 267.204,114.376 267.576,110.118 267.948,112.148 268.32,117.959 268.692,119.62 269.064,115.66 269.436,121.158 269.808,118.825 270.18,120.119 270.552,117.45 270.924,115.752 271.296,118.385 271.668,114.344 272.04,121.391 272.412,123.789 272.784,122.237 273.156,120.631 273.528,128.094 273.9,131.721 274.272,132.681 274.644,136.644 275.016,149.136 275.388,142.046 275.76,149.123 276.132,156.471 276.504,156.176 276.876,157.715 277.248,162.036 277.62,161.212 277.992,155.243 278.364,141.883 278.736,140.018 279.108,138.769 279.48,130.534 279.852,122.928 280.224,117.341 280.596,115.486 280.968,104.738 281.34,94.6313 281.712,102.038 282.084,95.522 282.456,94.0483 282.828,97.0278 283.2,109.642 283.572,111.52 283.944,117.835 284.316,117.051 284.688,126.256 285.06,127.591 285.432,129.151 285.804,134.194 286.176,139.542 286.548,147.5 286.92,149.942 287.292,153.004 287.664,167.338 288.036,166.061 288.408,169.496 288.78,186.072 289.152,184.98 289.524,180.231 289.896,183.486 290.268,187.157 290.64,174.244 291.012,172.083 291.384,174.703 291.756,171.261 292.128,159.583 292.5,160.948 292.872,159.092 293.244,156.159 293.616,143.132 293.988,140.424 294.36,137.758 294.732,131.764 295.104,136.037 295.476,137.949 295.848,134.223 296.22,128.973 296.592,126.768 296.964,118.343 297.336,121.584 297.708,127.129 298.08,130.655 298.452,130.328 298.824,138.833 299.196,149.922 299.568,167.497 299.94,166.726 300.312,181.389 300.684,191.62 301.056,190.335 301.428,187.439 301.8,190.565 302.172,181.107 302.544,167.361 302.916,171.14 303.288,167.144 303.66,148.998 304.032,140.351 304.404,138.957 304.776,126.009 305.148,120.188 305.52,119.727 305.892,122.008 306.264,123.1 306.636,125.52 307.008,137.458 307.38,141.053 307.752,149.981 308.124,148.162 308.496,158.927 308.868,157.531 309.24,162.732 309.612,172.687 309.984,170.466 310.356,165.022 310.728,177.923 311.1,181.471 311.472,175.426 311.844,183.461 312.216,173.685 312.588,172.618 312.96,180.696 313.332,178.702 313.704,177.128 314.076,171.185 314.448,169.738 314.82,165.408 315.192,158.71 315.564,155.182 315.936,149.126 316.308,140.83 316.68,142.851 317.052,144.71 317.424,140.599 317.796,149.359 318.168,148.06 318.54,143.826 318.912,150.367 319.284,160.006 319.656,155.095 320.028,155.021 320.4,162.869 320.772,167.316 321.144,160.343 321.516,176.72 321.888,182.581 322.26,187.083 322.632,195.922 323.004,207.16 323.376,206.072 323.748,208.312 324.12,215.81 324.492,206.785 324.864,212.241 325.236,210.402 325.608,209.522 325.98,211.367 326.352,210.142 326.724,197.544 327.096,198.263 327.468,193.399 327.84,179.55 328.212,169.158 328.584,157.777 328.956,146.383 329.328,134.908 329.7,139.172 330.072,145.291 330.444,145.638 330.816,150.186 331.188,167.142 331.56,175.572 331.932,189.961 332.304,207.95 332.676,213.73 333.048,222.702 333.42,227.661 333.792,223.99 334.164,219.567 334.536,229.913 334.908,226.605 335.28,225.004 335.652,231.652 336.024,218.458 336.396,204.284 336.768,204.361 337.14,195.043 337.512,179.105 337.884,178.771 338.256,180.473 338.628,169.868 339,176.107 339.372,175.189 339.744,175.74 340.116,179.837 340.488,177.74 340.86,170.209 341.232,185.071 341.604,186.327 341.976,185.229 342.348,184.685 342.72,186.126 343.092,181.273 343.464,175.589 343.836,183.31 344.208,177.733 344.58,173.628 344.952,174.793 345.324,174.674 345.696,187.081 346.068,201.521 346.44,212.786 346.812,222.494 347.184,227.564 347.556,236.619 347.928,237.904 348.3,245.378 348.672,233.919 349.044,248.402 349.416,246.141 349.788,236.896 350.16,234.317 350.532,235.413 350.904,227.569 351.276,225.66 351.648,215.624 352.02,201.535 352.392,203.298 352.764,198.024 353.136,186.406 353.508,197.716 353.88,183.557 354.252,180.68 354.624,183.143 354.996,182.521 355.368,197.996 355.74,195.607 356.112,200.259 356.484,204.003 356.856,210.398 357.228,214.178 357.6,219.087 357.972,227.144 358.344,233.467 358.716,242.22 359.088,255.717 359.46,256.213 359.832,262.774 360.204,273.477 360.576,272.674 360.948,266.923 361.32,267.774 361.692,258.517 362.064,251.092 362.436,251.33 362.808,236.121 363.18,243.942 363.552,237.405 363.924,228.75 364.296,231.608 364.668,223.432 365.04,224.105 365.412,219.92 365.784,201.692 366.156,203.543 366.528,199.035 366.9,188.739 367.272,197.193 367.644,187.617 368.016,190.715 368.388,200.392 368.76,195.915 369.132,199.292 369.504,201.739 369.876,206.573 370.248,221.887 370.62,219.811 370.992,231.003 371.364,248.574 371.736,251.38 372.108,261.297 372.48,271.8 372.852,266.336 373.224,279.497 373.596,275.401 373.968,278.131 374.34,273.612 374.712,267.627 375.084,264.954 375.456,248.417 375.828,234.217 376.2,234.992 376.572,228.62 376.944,213.673 377.316,213.821 377.688,196.795 378.06,196.013 378.432,196.303 378.804,186.118 379.176,192.802 379.548,195.809 379.92,195.141 380.292,207.229 380.664,210.391 381.036,214.733 381.408,222.29 381.78,227.718 382.152,240.275 382.524,249.574 382.896,250.697 383.268,261.236 383.64,269.731 384.012,274.691 384.384,284.533 384.756,276.256 385.128,277.206 385.5,282.702 385.872,277.375 386.244,280.792 386.616,272.219 386.988,260.185 387.36,255.409 387.732,239.228 388.104,232.407 388.476,216.845 388.848,205.489 389.22,206.055 389.592,199.667 389.964,199.609 390.336,203.028 390.708,200.423 391.08,213.007 391.452,231.766 391.824,240.555 392.196,249.042 392.568,266.663 392.94,262.79 393.312,272.369 393.684,287.648 394.056,282.125 394.428,283.458 394.8,278.935 395.172,279.973 395.544,282.322 395.916,282.085 396.288,271.896 396.66,276.82 397.032,268.976 397.404,281.377 397.776,275.872 398.148,266.673 398.52,255.903 398.892,246.856 399.264,236.451 399.636,233.431 400.008,214.955 400.38,209.337 400.752,208.099 401.124,201.847 401.496,211.764 401.868,213.67 402.24,207.671 402.612,214.957 402.984,213.277 403.356,221.079 403.728,233.118 404.1,233.775 404.472,249.497 404.844,264.935 405.216,266.369 405.588,292.432 405.96,300.653 406.332,311.738 406.704,315.413 407.076,304.476 407.448,302.277 407.82,289.381 408.192,293.562 408.564,273.65 408.936,270.578 409.308,256.887 409.68,227.328 410.052,214.759 410.424,207.185 410.796,199.811 411.168,197.763 411.54,196.245 411.912,205.077 412.284,222.447 412.656,224.721 413.028,240.91 413.4,250.522 413.772,261.123 414.144,278.078 414.516,283.102 414.888,294.93 415.26,289.58 415.632,300.391 416.004,303.77 416.376,295.328 416.748,301.394 417.12,295.427 417.492,285.714 417.864,269.438 418.236,260.328 418.608,269.333 418.98,254.392 419.352,253.091 419.724,244.826 420.096,233.277 420.468,228.917 420.84,211.839 421.212,207.455 421.584,198.912 421.956,190.418 422.328,199.901 422.7,201.081 423.072,221.123 423.444,228.698 423.816,246.658 424.188,259.173 424.56,265.409 424.932,277.825 425.304,273.396 425.676,283.88 426.048,293.807 426.42,290.167 426.792,299.149 427.164,289.505 427.536,291.485 427.908,279.087 428.28,257.496 428.652,252.705 429.024,237.669 429.396,223.022 429.768,222.295 430.14,203.962 430.512,202.838 430.884,200.8 431.256,188.193 431.628,202.252 432,196.836 432.372,203.028 432.744,205.174 433.116,204.988 433.488,218.125 433.86,224.903 434.232,227.188 434.604,238.998 434.976,240.589 435.348,255.437 435.72,261.152 436.092,272.109 436.464,271.729 436.836,271.189 437.208,284.249 437.58,283.183 437.952,281.622 438.324,276.077 438.696,267.578 439.068,265.686 439.44,249.93 439.812,252.232 440.184,236.854 440.556,232.348 440.928,228.864 441.3,214.537 441.672,216.073 442.044,204.148 442.416,197.975 442.788,194.013 443.16,193.271 443.532,194.597 443.904,192.852 444.276,204.342 444.648,215.296 445.02,226.045 445.392,238.734 445.764,252.967 446.136,260.434 446.508,284.419 446.88,288.945 447.252,309.861"/>
</g>
</g>
</svg>
